<svg xmlns="http://www.w3.org/2000/svg" xmlns:xlink="http://www.w3.org/1999/xlink" width="500" zoomAndPan="magnify" viewBox="0 0 375 374.999991" height="500" preserveAspectRatio="xMidYMid meet" version="1.0"><defs><clipPath id="97e176d6a8"><path d="M 11.261719 11.261719 L 363.761719 11.261719 L 363.761719 363.761719 L 11.261719 363.761719 Z M 11.261719 11.261719 " clip-rule="nonzero"/></clipPath></defs><path fill="#ffffff" d="M 132.777344 280.910156 C 132.777344 281.402344 132.730469 281.890625 132.632812 282.375 C 132.539062 282.859375 132.394531 283.332031 132.207031 283.789062 C 132.015625 284.246094 131.785156 284.679688 131.511719 285.089844 C 131.234375 285.5 130.925781 285.878906 130.574219 286.230469 C 130.226562 286.578125 129.84375 286.890625 129.433594 287.164062 C 129.023438 287.4375 128.589844 287.671875 128.132812 287.859375 C 127.675781 288.050781 127.207031 288.191406 126.722656 288.289062 C 126.238281 288.382812 125.75 288.433594 125.253906 288.433594 C 124.761719 288.433594 124.269531 288.382812 123.785156 288.289062 C 123.300781 288.191406 122.832031 288.050781 122.375 287.859375 C 121.917969 287.671875 121.484375 287.4375 121.074219 287.164062 C 120.664062 286.890625 120.28125 286.578125 119.933594 286.230469 C 119.585938 285.878906 119.273438 285.5 118.996094 285.089844 C 118.722656 284.679688 118.492188 284.246094 118.300781 283.789062 C 118.113281 283.332031 117.96875 282.859375 117.875 282.375 C 117.777344 281.890625 117.730469 281.402344 117.730469 280.910156 C 117.730469 280.414062 117.777344 279.925781 117.875 279.441406 C 117.96875 278.957031 118.113281 278.484375 118.300781 278.027344 C 118.492188 277.574219 118.722656 277.136719 118.996094 276.726562 C 119.273438 276.316406 119.585938 275.9375 119.933594 275.585938 C 120.28125 275.238281 120.664062 274.925781 121.074219 274.652344 C 121.484375 274.378906 121.917969 274.144531 122.375 273.957031 C 122.832031 273.765625 123.300781 273.625 123.785156 273.527344 C 124.269531 273.433594 124.761719 273.382812 125.253906 273.382812 C 125.75 273.382812 126.238281 273.433594 126.722656 273.527344 C 127.207031 273.625 127.675781 273.765625 128.132812 273.957031 C 128.589844 274.144531 129.023438 274.378906 129.433594 274.652344 C 129.84375 274.925781 130.226562 275.238281 130.574219 275.585938 C 130.925781 275.9375 131.234375 276.316406 131.511719 276.726562 C 131.785156 277.136719 132.015625 277.570312 132.207031 278.027344 C 132.394531 278.484375 132.539062 278.957031 132.632812 279.441406 C 132.730469 279.925781 132.777344 280.414062 132.777344 280.910156 Z M 132.777344 280.910156 " fill-opacity="1" fill-rule="nonzero"/><path fill="#ffffff" d="M 256.277344 280.910156 C 256.277344 281.402344 256.230469 281.890625 256.132812 282.375 C 256.039062 282.859375 255.894531 283.332031 255.707031 283.789062 C 255.515625 284.246094 255.285156 284.679688 255.011719 285.089844 C 254.734375 285.5 254.421875 285.878906 254.074219 286.230469 C 253.726562 286.578125 253.34375 286.890625 252.933594 287.164062 C 252.523438 287.4375 252.089844 287.671875 251.632812 287.859375 C 251.175781 288.050781 250.707031 288.191406 250.222656 288.289062 C 249.738281 288.382812 249.246094 288.433594 248.753906 288.433594 C 248.257812 288.433594 247.769531 288.382812 247.285156 288.289062 C 246.800781 288.191406 246.332031 288.050781 245.875 287.859375 C 245.417969 287.671875 244.984375 287.4375 244.574219 287.164062 C 244.164062 286.890625 243.78125 286.578125 243.433594 286.230469 C 243.082031 285.878906 242.773438 285.5 242.496094 285.089844 C 242.222656 284.679688 241.992188 284.246094 241.800781 283.789062 C 241.613281 283.332031 241.46875 282.859375 241.375 282.375 C 241.277344 281.890625 241.230469 281.402344 241.230469 280.910156 C 241.230469 280.414062 241.277344 279.925781 241.375 279.441406 C 241.46875 278.957031 241.613281 278.484375 241.800781 278.027344 C 241.992188 277.574219 242.222656 277.136719 242.496094 276.726562 C 242.773438 276.316406 243.082031 275.9375 243.433594 275.585938 C 243.78125 275.238281 244.164062 274.925781 244.574219 274.652344 C 244.984375 274.378906 245.417969 274.144531 245.875 273.957031 C 246.332031 273.765625 246.800781 273.625 247.285156 273.527344 C 247.769531 273.433594 248.257812 273.382812 248.753906 273.382812 C 249.246094 273.382812 249.738281 273.433594 250.222656 273.527344 C 250.707031 273.625 251.175781 273.765625 251.632812 273.957031 C 252.089844 274.144531 252.523438 274.378906 252.933594 274.652344 C 253.34375 274.925781 253.726562 275.238281 254.074219 275.585938 C 254.421875 275.9375 254.734375 276.316406 255.011719 276.726562 C 255.285156 277.136719 255.515625 277.570312 255.707031 278.027344 C 255.894531 278.484375 256.039062 278.957031 256.132812 279.441406 C 256.230469 279.925781 256.277344 280.414062 256.277344 280.910156 Z M 256.277344 280.910156 " fill-opacity="1" fill-rule="nonzero"/><g clip-path="url(#97e176d6a8)"><path fill="#ffffff" d="M 187.464844 11.15625 C 90.164062 11.15625 11.285156 90.042969 11.285156 187.339844 C 11.285156 284.636719 90.164062 363.527344 187.464844 363.527344 C 284.769531 363.527344 363.652344 284.640625 363.652344 187.339844 C 363.652344 90.039062 284.769531 11.15625 187.464844 11.15625 Z M 139.316406 255.105469 L 248.753906 255.105469 C 262.980469 255.105469 274.554688 266.683594 274.554688 280.910156 C 274.554688 295.136719 262.980469 306.710938 248.753906 306.710938 C 234.523438 306.710938 222.949219 295.136719 222.949219 280.910156 C 222.949219 278.292969 223.347656 275.765625 224.070312 273.382812 L 149.929688 273.382812 C 150.65625 275.765625 151.058594 278.289062 151.058594 280.910156 C 151.058594 295.136719 139.484375 306.710938 125.253906 306.710938 C 111.023438 306.710938 99.453125 295.136719 99.453125 280.910156 C 99.453125 268.199219 108.695312 257.632812 120.8125 255.515625 L 116.277344 230.535156 L 116.226562 230.296875 L 92.167969 111.230469 L 70.0625 111.378906 L 69.941406 93.101562 L 107.105469 92.851562 L 116.097656 137.347656 L 282.695312 157.324219 L 261.535156 237.964844 L 136.203125 237.964844 Z M 139.316406 255.105469 " fill-opacity="1" fill-rule="nonzero"/></g></svg>