<svg xmlns="http://www.w3.org/2000/svg" xmlns:xlink="http://www.w3.org/1999/xlink" width="1024" zoomAndPan="magnify" viewBox="0 0 768 767.999994" height="1024" preserveAspectRatio="xMidYMid meet" version="1.0"><defs><clipPath id="cf3c8c537e"><path d="M 766.878906 838.058594 L 13.15625 838.058594 C -17.886719 838.058594 -43.183594 812.761719 -43.183594 781.714844 L -43.183594 27.992188 C -43.183594 -3.050781 -17.886719 -28.347656 13.15625 -28.347656 L 766.878906 -28.347656 C 797.925781 -28.347656 823.222656 -3.050781 823.222656 27.992188 L 823.222656 781.714844 C 823.222656 812.761719 797.925781 838.058594 766.878906 838.058594 Z M 766.878906 838.058594 " clip-rule="nonzero"/></clipPath><clipPath id="715ab1f17f"><path d="M 149.074219 400 L 535 400 L 535 576.746094 L 149.074219 576.746094 Z M 149.074219 400 " clip-rule="nonzero"/></clipPath><clipPath id="a04c973a80"><path d="M 550 287 L 631 287 L 631 576.746094 L 550 576.746094 Z M 550 287 " clip-rule="nonzero"/></clipPath><clipPath id="dcfeaf716e"><path d="M 237 191.246094 L 447 191.246094 L 447 336 L 237 336 Z M 237 191.246094 " clip-rule="nonzero"/></clipPath></defs><rect x="-76.8" width="921.6" fill="#ffffff" y="-76.799999" height="921.599993" fill-opacity="1"/><rect x="-76.8" width="921.6" fill="#fff5e6" y="-76.799999" height="921.599993" fill-opacity="1"/><g clip-path="url(#cf3c8c537e)"><rect x="-76.8" width="921.6" fill="#ca530e" y="-76.799999" height="921.599993" fill-opacity="1"/></g><g clip-path="url(#715ab1f17f)"><path fill="#ffffff" d="M 510.484375 472.339844 L 510.484375 432.183594 C 510.484375 431.128906 510.433594 430.082031 510.332031 429.03125 C 510.226562 427.984375 510.074219 426.945312 509.867188 425.914062 C 509.664062 424.882812 509.410156 423.863281 509.101562 422.855469 C 508.796875 421.847656 508.445312 420.859375 508.039062 419.886719 C 507.636719 418.917969 507.1875 417.964844 506.691406 417.039062 C 506.195312 416.109375 505.65625 415.207031 505.070312 414.335938 C 504.488281 413.460938 503.863281 412.613281 503.195312 411.800781 C 502.527344 410.988281 501.820312 410.210938 501.078125 409.464844 C 500.332031 408.722656 499.554688 408.015625 498.742188 407.347656 C 497.929688 406.679688 497.082031 406.054688 496.207031 405.472656 C 495.335938 404.886719 494.433594 404.347656 493.503906 403.851562 C 492.578125 403.355469 491.628906 402.90625 490.65625 402.503906 C 489.683594 402.097656 488.695312 401.746094 487.6875 401.441406 C 486.679688 401.132812 485.660156 400.878906 484.628906 400.675781 C 483.597656 400.46875 482.558594 400.316406 481.511719 400.210938 C 480.464844 400.109375 479.414062 400.058594 478.359375 400.058594 L 365.921875 400.058594 C 363.636719 400.0625 361.375 400.316406 359.140625 400.808594 C 356.90625 401.300781 354.75 402.027344 352.667969 402.984375 C 350.589844 403.941406 348.636719 405.109375 346.808594 406.488281 C 344.984375 407.867188 343.324219 409.421875 341.828125 411.15625 C 340.335938 409.421875 338.675781 407.867188 336.851562 406.488281 C 335.023438 405.109375 333.070312 403.941406 330.992188 402.984375 C 328.910156 402.027344 326.753906 401.300781 324.519531 400.808594 C 322.285156 400.316406 320.023438 400.0625 317.734375 400.058594 L 205.296875 400.058594 C 204.246094 400.058594 203.195312 400.109375 202.148438 400.210938 C 201.101562 400.316406 200.0625 400.46875 199.03125 400.675781 C 198 400.878906 196.980469 401.132812 195.972656 401.441406 C 194.964844 401.746094 193.976562 402.097656 193.003906 402.503906 C 192.03125 402.90625 191.082031 403.355469 190.15625 403.851562 C 189.226562 404.347656 188.324219 404.886719 187.449219 405.472656 C 186.578125 406.054688 185.730469 406.679688 184.917969 407.347656 C 184.105469 408.015625 183.328125 408.722656 182.582031 409.464844 C 181.839844 410.210938 181.132812 410.988281 180.464844 411.800781 C 179.796875 412.613281 179.171875 413.460938 178.585938 414.335938 C 178.003906 415.207031 177.464844 416.109375 176.96875 417.039062 C 176.472656 417.964844 176.023438 418.917969 175.621094 419.886719 C 175.214844 420.859375 174.863281 421.851562 174.558594 422.855469 C 174.25 423.863281 173.996094 424.882812 173.792969 425.914062 C 173.585938 426.945312 173.429688 427.984375 173.328125 429.03125 C 173.226562 430.082031 173.171875 431.128906 173.171875 432.183594 L 173.171875 472.339844 C 172.382812 472.339844 171.597656 472.375 170.8125 472.453125 C 170.027344 472.53125 169.246094 472.648438 168.472656 472.800781 C 167.699219 472.953125 166.933594 473.144531 166.179688 473.375 C 165.425781 473.605469 164.683594 473.871094 163.953125 474.171875 C 163.222656 474.472656 162.511719 474.8125 161.816406 475.183594 C 161.121094 475.554688 160.445312 475.960938 159.789062 476.398438 C 159.132812 476.835938 158.5 477.304688 157.890625 477.808594 C 157.277344 478.308594 156.695312 478.835938 156.136719 479.394531 C 155.578125 479.953125 155.050781 480.535156 154.550781 481.148438 C 154.046875 481.757812 153.578125 482.390625 153.140625 483.046875 C 152.703125 483.703125 152.296875 484.378906 151.925781 485.074219 C 151.554688 485.769531 151.214844 486.484375 150.914062 487.210938 C 150.613281 487.941406 150.347656 488.683594 150.117188 489.4375 C 149.886719 490.191406 149.695312 490.957031 149.542969 491.730469 C 149.390625 492.503906 149.273438 493.285156 149.195312 494.070312 C 149.117188 494.855469 149.078125 495.644531 149.078125 496.433594 L 149.078125 568.714844 C 149.078125 569.242188 149.132812 569.761719 149.234375 570.28125 C 149.335938 570.796875 149.488281 571.300781 149.691406 571.785156 C 149.894531 572.273438 150.140625 572.738281 150.433594 573.175781 C 150.726562 573.613281 151.058594 574.019531 151.433594 574.390625 C 151.804688 574.765625 152.210938 575.097656 152.648438 575.390625 C 153.085938 575.683594 153.550781 575.929688 154.039062 576.132812 C 154.523438 576.335938 155.027344 576.488281 155.542969 576.589844 C 156.0625 576.691406 156.582031 576.746094 157.109375 576.746094 L 205.296875 576.746094 C 205.824219 576.746094 206.347656 576.691406 206.867188 576.589844 C 207.382812 576.488281 207.886719 576.335938 208.371094 576.132812 C 208.859375 575.929688 209.320312 575.683594 209.761719 575.390625 C 210.199219 575.097656 210.605469 574.765625 210.976562 574.390625 C 211.351562 574.019531 211.683594 573.613281 211.976562 573.175781 C 212.269531 572.738281 212.515625 572.273438 212.71875 571.785156 C 212.921875 571.300781 213.074219 570.796875 213.175781 570.28125 C 213.277344 569.761719 213.328125 569.242188 213.328125 568.714844 L 213.328125 560.683594 L 470.328125 560.683594 L 470.328125 568.714844 C 470.328125 569.242188 470.382812 569.761719 470.484375 570.28125 C 470.585938 570.796875 470.738281 571.300781 470.941406 571.785156 C 471.144531 572.273438 471.390625 572.738281 471.683594 573.175781 C 471.976562 573.613281 472.308594 574.019531 472.683594 574.390625 C 473.054688 574.765625 473.460938 575.097656 473.898438 575.390625 C 474.335938 575.683594 474.800781 575.929688 475.289062 576.132812 C 475.773438 576.335938 476.277344 576.488281 476.792969 576.589844 C 477.3125 576.691406 477.832031 576.746094 478.359375 576.746094 L 526.546875 576.746094 C 527.074219 576.746094 527.597656 576.691406 528.117188 576.589844 C 528.632812 576.488281 529.136719 576.335938 529.621094 576.132812 C 530.109375 575.929688 530.570312 575.683594 531.011719 575.390625 C 531.449219 575.097656 531.855469 574.765625 532.226562 574.390625 C 532.601562 574.019531 532.933594 573.613281 533.226562 573.175781 C 533.519531 572.738281 533.765625 572.273438 533.96875 571.785156 C 534.171875 571.300781 534.324219 570.796875 534.425781 570.28125 C 534.527344 569.761719 534.578125 569.242188 534.578125 568.714844 L 534.578125 496.433594 C 534.578125 495.644531 534.542969 494.855469 534.464844 494.070312 C 534.386719 493.285156 534.269531 492.503906 534.117188 491.730469 C 533.964844 490.957031 533.773438 490.191406 533.542969 489.4375 C 533.3125 488.683594 533.046875 487.941406 532.746094 487.210938 C 532.445312 486.484375 532.105469 485.769531 531.734375 485.074219 C 531.363281 484.378906 530.957031 483.703125 530.519531 483.046875 C 530.082031 482.390625 529.613281 481.757812 529.109375 481.148438 C 528.609375 480.535156 528.082031 479.953125 527.523438 479.394531 C 526.964844 478.835938 526.382812 478.308594 525.769531 477.808594 C 525.160156 477.304688 524.527344 476.835938 523.871094 476.398438 C 523.214844 475.960938 522.539062 475.554688 521.84375 475.183594 C 521.148438 474.8125 520.4375 474.472656 519.707031 474.171875 C 518.976562 473.871094 518.234375 473.605469 517.480469 473.375 C 516.726562 473.144531 515.960938 472.953125 515.1875 472.800781 C 514.414062 472.648438 513.632812 472.53125 512.847656 472.453125 C 512.0625 472.375 511.273438 472.339844 510.484375 472.339844 Z M 365.921875 416.121094 L 478.359375 416.121094 C 478.886719 416.121094 479.414062 416.144531 479.9375 416.195312 C 480.460938 416.25 480.980469 416.324219 481.496094 416.429688 C 482.011719 416.53125 482.519531 416.660156 483.023438 416.8125 C 483.527344 416.964844 484.023438 417.140625 484.507812 417.34375 C 484.992188 417.542969 485.46875 417.769531 485.933594 418.015625 C 486.398438 418.265625 486.847656 418.535156 487.285156 418.828125 C 487.722656 419.117188 488.144531 419.429688 488.550781 419.765625 C 488.957031 420.097656 489.347656 420.453125 489.71875 420.824219 C 490.089844 421.195312 490.445312 421.585938 490.777344 421.992188 C 491.113281 422.398438 491.425781 422.820312 491.714844 423.257812 C 492.007812 423.695312 492.277344 424.144531 492.527344 424.609375 C 492.773438 425.074219 493 425.550781 493.199219 426.035156 C 493.402344 426.519531 493.578125 427.015625 493.730469 427.519531 C 493.886719 428.023438 494.011719 428.53125 494.113281 429.046875 C 494.21875 429.5625 494.292969 430.082031 494.347656 430.605469 C 494.398438 431.132812 494.421875 431.65625 494.421875 432.183594 L 494.421875 472.339844 C 493.140625 472.34375 491.863281 472.449219 490.597656 472.65625 C 489.332031 472.867188 488.089844 473.171875 486.871094 473.582031 C 485.65625 473.988281 484.476562 474.488281 483.339844 475.085938 C 482.203125 475.683594 481.121094 476.363281 480.09375 477.132812 C 479.066406 477.902344 478.105469 478.75 477.214844 479.671875 C 476.320312 480.597656 475.507812 481.585938 474.773438 482.636719 C 474.039062 483.691406 473.394531 484.796875 472.839844 485.953125 C 472.28125 487.109375 471.820312 488.300781 471.453125 489.53125 C 469.695312 488.074219 467.824219 486.773438 465.839844 485.636719 C 463.855469 484.5 461.789062 483.542969 459.640625 482.761719 C 457.492188 481.980469 455.292969 481.386719 453.042969 480.988281 C 450.792969 480.585938 448.523438 480.378906 446.234375 480.371094 L 349.859375 480.371094 L 349.859375 432.183594 C 349.859375 431.65625 349.886719 431.132812 349.9375 430.609375 C 349.988281 430.082031 350.066406 429.5625 350.167969 429.046875 C 350.273438 428.53125 350.398438 428.023438 350.554688 427.519531 C 350.707031 427.015625 350.882812 426.519531 351.082031 426.035156 C 351.285156 425.550781 351.511719 425.074219 351.757812 424.609375 C 352.007812 424.144531 352.277344 423.695312 352.566406 423.257812 C 352.859375 422.820312 353.171875 422.398438 353.507812 421.992188 C 353.839844 421.585938 354.195312 421.195312 354.566406 420.824219 C 354.9375 420.453125 355.328125 420.097656 355.734375 419.765625 C 356.140625 419.429688 356.5625 419.117188 357 418.828125 C 357.4375 418.535156 357.886719 418.265625 358.351562 418.015625 C 358.816406 417.769531 359.289062 417.542969 359.777344 417.34375 C 360.261719 417.140625 360.757812 416.964844 361.261719 416.8125 C 361.765625 416.660156 362.273438 416.53125 362.789062 416.429688 C 363.304688 416.324219 363.824219 416.25 364.347656 416.195312 C 364.871094 416.144531 365.398438 416.121094 365.921875 416.121094 Z M 189.234375 432.183594 C 189.234375 431.65625 189.261719 431.132812 189.3125 430.609375 C 189.363281 430.082031 189.441406 429.5625 189.546875 429.046875 C 189.648438 428.53125 189.773438 428.023438 189.929688 427.519531 C 190.082031 427.015625 190.257812 426.519531 190.460938 426.035156 C 190.660156 425.550781 190.886719 425.074219 191.132812 424.609375 C 191.382812 424.144531 191.652344 423.695312 191.941406 423.257812 C 192.234375 422.820312 192.546875 422.398438 192.882812 421.992188 C 193.214844 421.585938 193.570312 421.195312 193.941406 420.824219 C 194.3125 420.453125 194.703125 420.097656 195.109375 419.765625 C 195.515625 419.429688 195.9375 419.117188 196.375 418.828125 C 196.8125 418.535156 197.261719 418.265625 197.726562 418.015625 C 198.191406 417.769531 198.664062 417.542969 199.152344 417.34375 C 199.636719 417.140625 200.132812 416.964844 200.636719 416.8125 C 201.140625 416.660156 201.648438 416.53125 202.164062 416.429688 C 202.679688 416.324219 203.199219 416.25 203.722656 416.195312 C 204.246094 416.144531 204.773438 416.121094 205.296875 416.121094 L 317.734375 416.121094 C 318.261719 416.121094 318.789062 416.144531 319.3125 416.195312 C 319.835938 416.25 320.355469 416.324219 320.871094 416.429688 C 321.386719 416.53125 321.894531 416.660156 322.398438 416.8125 C 322.902344 416.964844 323.398438 417.140625 323.882812 417.34375 C 324.371094 417.542969 324.84375 417.769531 325.308594 418.015625 C 325.773438 418.265625 326.222656 418.535156 326.660156 418.828125 C 327.097656 419.117188 327.519531 419.429688 327.925781 419.765625 C 328.332031 420.097656 328.722656 420.453125 329.09375 420.824219 C 329.464844 421.195312 329.820312 421.585938 330.152344 421.992188 C 330.488281 422.398438 330.800781 422.820312 331.089844 423.257812 C 331.382812 423.695312 331.652344 424.144531 331.902344 424.609375 C 332.148438 425.074219 332.375 425.550781 332.574219 426.035156 C 332.777344 426.519531 332.953125 427.015625 333.105469 427.519531 C 333.261719 428.023438 333.386719 428.53125 333.488281 429.046875 C 333.59375 429.5625 333.667969 430.082031 333.722656 430.605469 C 333.773438 431.132812 333.796875 431.65625 333.796875 432.183594 L 333.796875 480.371094 L 229.390625 480.371094 C 226.09375 480.375 222.875 480.875 219.734375 481.878906 C 216.59375 482.878906 213.675781 484.335938 210.984375 486.238281 C 210.503906 485.210938 209.953125 484.21875 209.332031 483.265625 C 208.710938 482.3125 208.027344 481.410156 207.277344 480.554688 C 206.527344 479.699219 205.722656 478.902344 204.859375 478.160156 C 203.996094 477.421875 203.085938 476.742188 202.128906 476.132812 C 201.171875 475.519531 200.175781 474.976562 199.140625 474.503906 C 198.105469 474.035156 197.042969 473.636719 195.953125 473.316406 C 194.863281 472.996094 193.753906 472.753906 192.628906 472.589844 C 191.503906 472.425781 190.375 472.34375 189.234375 472.339844 Z M 197.265625 560.683594 L 165.140625 560.683594 L 165.140625 496.433594 C 165.140625 495.90625 165.195312 495.382812 165.296875 494.863281 C 165.398438 494.347656 165.550781 493.84375 165.753906 493.359375 C 165.957031 492.871094 166.203125 492.410156 166.496094 491.96875 C 166.789062 491.53125 167.121094 491.125 167.496094 490.753906 C 167.867188 490.378906 168.273438 490.046875 168.710938 489.753906 C 169.148438 489.460938 169.613281 489.214844 170.101562 489.011719 C 170.585938 488.808594 171.089844 488.65625 171.605469 488.554688 C 172.125 488.453125 172.644531 488.402344 173.171875 488.402344 L 189.234375 488.402344 C 189.761719 488.402344 190.285156 488.453125 190.804688 488.554688 C 191.320312 488.65625 191.824219 488.808594 192.308594 489.011719 C 192.796875 489.214844 193.257812 489.460938 193.699219 489.753906 C 194.136719 490.046875 194.542969 490.378906 194.914062 490.753906 C 195.289062 491.125 195.621094 491.53125 195.914062 491.96875 C 196.207031 492.410156 196.453125 492.871094 196.65625 493.359375 C 196.859375 493.84375 197.011719 494.347656 197.113281 494.863281 C 197.214844 495.382812 197.265625 495.90625 197.265625 496.433594 Z M 213.328125 544.621094 L 213.328125 512.496094 C 213.328125 511.96875 213.355469 511.445312 213.40625 510.917969 C 213.457031 510.394531 213.535156 509.875 213.640625 509.359375 C 213.742188 508.84375 213.867188 508.335938 214.023438 507.832031 C 214.175781 507.328125 214.351562 506.832031 214.554688 506.347656 C 214.753906 505.863281 214.980469 505.386719 215.226562 504.921875 C 215.476562 504.457031 215.746094 504.007812 216.035156 503.570312 C 216.328125 503.132812 216.640625 502.710938 216.976562 502.304688 C 217.308594 501.898438 217.664062 501.507812 218.035156 501.136719 C 218.40625 500.765625 218.796875 500.410156 219.203125 500.078125 C 219.609375 499.742188 220.03125 499.429688 220.46875 499.140625 C 220.90625 498.847656 221.355469 498.578125 221.820312 498.328125 C 222.285156 498.082031 222.757812 497.855469 223.246094 497.65625 C 223.730469 497.453125 224.226562 497.277344 224.730469 497.125 C 225.234375 496.972656 225.742188 496.84375 226.257812 496.742188 C 226.773438 496.636719 227.292969 496.5625 227.816406 496.507812 C 228.339844 496.457031 228.867188 496.433594 229.390625 496.433594 L 446.234375 496.433594 C 447.023438 496.433594 447.8125 496.46875 448.597656 496.546875 C 449.382812 496.625 450.164062 496.742188 450.9375 496.894531 C 451.710938 497.046875 452.476562 497.238281 453.230469 497.46875 C 453.984375 497.699219 454.726562 497.964844 455.457031 498.265625 C 456.1875 498.566406 456.898438 498.90625 457.59375 499.277344 C 458.289062 499.648438 458.964844 500.054688 459.621094 500.492188 C 460.277344 500.929688 460.910156 501.398438 461.519531 501.902344 C 462.132812 502.402344 462.714844 502.929688 463.273438 503.488281 C 463.832031 504.046875 464.359375 504.628906 464.859375 505.242188 C 465.363281 505.851562 465.832031 506.484375 466.269531 507.140625 C 466.707031 507.796875 467.113281 508.472656 467.484375 509.167969 C 467.855469 509.863281 468.195312 510.578125 468.496094 511.304688 C 468.796875 512.035156 469.0625 512.777344 469.292969 513.53125 C 469.523438 514.285156 469.714844 515.050781 469.867188 515.824219 C 470.019531 516.597656 470.136719 517.378906 470.214844 518.164062 C 470.292969 518.949219 470.328125 519.738281 470.328125 520.527344 L 470.328125 544.621094 Z M 518.515625 560.683594 L 486.390625 560.683594 L 486.390625 496.433594 C 486.390625 495.90625 486.445312 495.382812 486.546875 494.863281 C 486.648438 494.347656 486.800781 493.84375 487.003906 493.359375 C 487.207031 492.871094 487.453125 492.410156 487.746094 491.96875 C 488.039062 491.53125 488.371094 491.125 488.746094 490.753906 C 489.117188 490.378906 489.523438 490.046875 489.960938 489.753906 C 490.398438 489.460938 490.863281 489.214844 491.351562 489.011719 C 491.835938 488.808594 492.339844 488.65625 492.855469 488.554688 C 493.375 488.453125 493.894531 488.402344 494.421875 488.402344 L 510.484375 488.402344 C 511.011719 488.402344 511.535156 488.453125 512.054688 488.554688 C 512.570312 488.65625 513.074219 488.808594 513.558594 489.011719 C 514.046875 489.214844 514.507812 489.460938 514.949219 489.753906 C 515.386719 490.046875 515.792969 490.378906 516.164062 490.753906 C 516.539062 491.125 516.871094 491.53125 517.164062 491.96875 C 517.457031 492.410156 517.703125 492.871094 517.90625 493.359375 C 518.109375 493.84375 518.261719 494.347656 518.363281 494.863281 C 518.464844 495.382812 518.515625 495.90625 518.515625 496.433594 Z M 518.515625 560.683594 " fill-opacity="1" fill-rule="nonzero"/></g><g clip-path="url(#a04c973a80)"><path fill="#ffffff" d="M 606.859375 528.558594 L 598.828125 528.558594 L 598.828125 383.996094 L 622.921875 383.996094 C 623.488281 383.996094 624.042969 383.941406 624.59375 383.828125 C 625.144531 383.710938 625.679688 383.542969 626.195312 383.316406 C 626.710938 383.089844 627.195312 382.8125 627.652344 382.484375 C 628.109375 382.15625 628.527344 381.78125 628.90625 381.367188 C 629.285156 380.949219 629.617188 380.496094 629.898438 380.011719 C 630.183594 379.527344 630.414062 379.015625 630.589844 378.480469 C 630.765625 377.945312 630.886719 377.398438 630.949219 376.839844 C 631.007812 376.28125 631.011719 375.71875 630.953125 375.160156 L 624.371094 309.304688 C 624.296875 308.566406 624.191406 307.835938 624.050781 307.109375 C 623.914062 306.382812 623.738281 305.664062 623.535156 304.953125 C 623.328125 304.242188 623.089844 303.542969 622.816406 302.851562 C 622.546875 302.164062 622.246094 301.488281 621.914062 300.828125 C 621.578125 300.167969 621.214844 299.523438 620.824219 298.894531 C 620.429688 298.269531 620.011719 297.660156 619.5625 297.074219 C 619.113281 296.484375 618.636719 295.917969 618.136719 295.371094 C 617.636719 294.828125 617.109375 294.308594 616.5625 293.8125 C 616.011719 293.316406 615.441406 292.847656 614.847656 292.402344 C 614.253906 291.960938 613.644531 291.546875 613.011719 291.160156 C 612.382812 290.773438 611.734375 290.414062 611.070312 290.089844 C 610.40625 289.761719 609.726562 289.464844 609.035156 289.203125 C 608.347656 288.9375 607.644531 288.707031 606.929688 288.507812 C 606.21875 288.308594 605.496094 288.140625 604.769531 288.007812 C 604.042969 287.875 603.308594 287.777344 602.570312 287.710938 C 601.835938 287.648438 601.097656 287.617188 600.355469 287.621094 L 581.242188 287.621094 C 580.503906 287.617188 579.765625 287.648438 579.027344 287.714844 C 578.292969 287.78125 577.558594 287.882812 576.832031 288.015625 C 576.105469 288.148438 575.386719 288.316406 574.675781 288.515625 C 573.964844 288.714844 573.261719 288.949219 572.574219 289.210938 C 571.882812 289.476562 571.207031 289.773438 570.542969 290.101562 C 569.878906 290.429688 569.234375 290.785156 568.605469 291.171875 C 567.972656 291.558594 567.363281 291.972656 566.773438 292.417969 C 566.179688 292.859375 565.609375 293.328125 565.0625 293.824219 C 564.511719 294.320312 563.988281 294.839844 563.488281 295.386719 C 562.988281 295.929688 562.515625 296.496094 562.066406 297.085938 C 561.617188 297.671875 561.199219 298.28125 560.808594 298.90625 C 560.414062 299.535156 560.054688 300.175781 559.722656 300.835938 C 559.386719 301.496094 559.085938 302.171875 558.816406 302.859375 C 558.546875 303.546875 558.308594 304.246094 558.101562 304.957031 C 557.898438 305.667969 557.726562 306.386719 557.585938 307.109375 C 557.445312 307.835938 557.339844 308.566406 557.269531 309.304688 L 550.683594 375.160156 C 550.625 375.71875 550.628906 376.277344 550.691406 376.835938 C 550.75 377.390625 550.867188 377.9375 551.042969 378.472656 C 551.21875 379.003906 551.449219 379.511719 551.730469 380 C 552.011719 380.484375 552.339844 380.933594 552.71875 381.351562 C 553.09375 381.765625 553.507812 382.140625 553.964844 382.46875 C 554.417969 382.796875 554.902344 383.074219 555.414062 383.304688 C 555.929688 383.53125 556.460938 383.703125 557.007812 383.820312 C 557.558594 383.9375 558.113281 383.996094 558.671875 383.996094 L 582.765625 383.996094 L 582.765625 528.558594 L 574.734375 528.558594 C 573.945312 528.558594 573.160156 528.59375 572.375 528.671875 C 571.589844 528.75 570.808594 528.867188 570.035156 529.019531 C 569.261719 529.171875 568.496094 529.363281 567.742188 529.59375 C 566.988281 529.824219 566.246094 530.089844 565.515625 530.390625 C 564.785156 530.691406 564.074219 531.03125 563.378906 531.402344 C 562.683594 531.773438 562.007812 532.179688 561.351562 532.617188 C 560.695312 533.054688 560.0625 533.523438 559.453125 534.027344 C 558.839844 534.527344 558.257812 535.054688 557.699219 535.613281 C 557.140625 536.171875 556.613281 536.753906 556.113281 537.367188 C 555.609375 537.976562 555.140625 538.609375 554.703125 539.265625 C 554.265625 539.921875 553.859375 540.597656 553.488281 541.292969 C 553.117188 541.988281 552.777344 542.703125 552.476562 543.429688 C 552.175781 544.160156 551.910156 544.902344 551.679688 545.65625 C 551.449219 546.410156 551.257812 547.175781 551.105469 547.949219 C 550.953125 548.722656 550.835938 549.503906 550.757812 550.289062 C 550.679688 551.074219 550.640625 551.863281 550.640625 552.652344 L 550.640625 568.714844 C 550.640625 569.242188 550.695312 569.761719 550.796875 570.28125 C 550.898438 570.796875 551.050781 571.300781 551.253906 571.785156 C 551.457031 572.273438 551.703125 572.738281 551.996094 573.175781 C 552.289062 573.613281 552.621094 574.019531 552.996094 574.390625 C 553.367188 574.765625 553.773438 575.097656 554.210938 575.390625 C 554.648438 575.683594 555.113281 575.929688 555.601562 576.132812 C 556.085938 576.335938 556.589844 576.488281 557.105469 576.589844 C 557.625 576.691406 558.144531 576.746094 558.671875 576.746094 L 622.921875 576.746094 C 623.449219 576.746094 623.972656 576.691406 624.492188 576.589844 C 625.007812 576.488281 625.511719 576.335938 625.996094 576.132812 C 626.484375 575.929688 626.945312 575.683594 627.386719 575.390625 C 627.824219 575.097656 628.230469 574.765625 628.601562 574.390625 C 628.976562 574.019531 629.308594 573.613281 629.601562 573.175781 C 629.894531 572.738281 630.140625 572.273438 630.34375 571.785156 C 630.546875 571.300781 630.699219 570.796875 630.800781 570.28125 C 630.902344 569.761719 630.953125 569.242188 630.953125 568.714844 L 630.953125 552.652344 C 630.953125 551.863281 630.917969 551.074219 630.839844 550.289062 C 630.761719 549.503906 630.644531 548.722656 630.492188 547.949219 C 630.339844 547.175781 630.148438 546.410156 629.917969 545.65625 C 629.6875 544.902344 629.421875 544.160156 629.121094 543.429688 C 628.820312 542.703125 628.480469 541.988281 628.109375 541.292969 C 627.738281 540.597656 627.332031 539.921875 626.894531 539.265625 C 626.457031 538.609375 625.988281 537.976562 625.484375 537.367188 C 624.984375 536.753906 624.457031 536.171875 623.898438 535.613281 C 623.339844 535.054688 622.757812 534.527344 622.144531 534.027344 C 621.535156 533.523438 620.902344 533.054688 620.246094 532.617188 C 619.589844 532.179688 618.914062 531.773438 618.21875 531.402344 C 617.523438 531.03125 616.808594 530.691406 616.082031 530.390625 C 615.351562 530.089844 614.609375 529.824219 613.855469 529.59375 C 613.101562 529.363281 612.335938 529.171875 611.5625 529.019531 C 610.789062 528.867188 610.007812 528.75 609.222656 528.671875 C 608.4375 528.59375 607.648438 528.558594 606.859375 528.558594 Z M 573.25 310.910156 C 573.300781 310.417969 573.394531 309.933594 573.535156 309.457031 C 573.671875 308.984375 573.855469 308.523438 574.078125 308.082031 C 574.300781 307.640625 574.5625 307.222656 574.863281 306.832031 C 575.167969 306.4375 575.5 306.074219 575.867188 305.742188 C 576.238281 305.414062 576.632812 305.117188 577.054688 304.859375 C 577.476562 304.601562 577.921875 304.382812 578.382812 304.207031 C 578.847656 304.03125 579.320312 303.898438 579.808594 303.8125 C 580.296875 303.722656 580.785156 303.679688 581.28125 303.683594 L 600.394531 303.683594 C 600.890625 303.679688 601.382812 303.722656 601.871094 303.8125 C 602.355469 303.898438 602.832031 304.03125 603.292969 304.207031 C 603.757812 304.382812 604.199219 304.601562 604.621094 304.859375 C 605.046875 305.117188 605.441406 305.414062 605.808594 305.742188 C 606.175781 306.074219 606.511719 306.4375 606.8125 306.832031 C 607.113281 307.222656 607.375 307.640625 607.601562 308.082031 C 607.824219 308.523438 608.003906 308.984375 608.144531 309.457031 C 608.285156 309.933594 608.378906 310.417969 608.425781 310.910156 L 614.089844 367.933594 L 567.589844 367.933594 Z M 614.890625 560.683594 L 566.703125 560.683594 L 566.703125 552.652344 C 566.703125 552.125 566.757812 551.601562 566.859375 551.082031 C 566.960938 550.566406 567.113281 550.0625 567.316406 549.578125 C 567.519531 549.089844 567.765625 548.628906 568.058594 548.1875 C 568.351562 547.75 568.683594 547.34375 569.058594 546.972656 C 569.429688 546.597656 569.835938 546.265625 570.273438 545.972656 C 570.710938 545.679688 571.175781 545.433594 571.664062 545.230469 C 572.148438 545.027344 572.652344 544.875 573.167969 544.773438 C 573.6875 544.671875 574.207031 544.621094 574.734375 544.621094 L 606.859375 544.621094 C 607.386719 544.621094 607.910156 544.671875 608.429688 544.773438 C 608.945312 544.875 609.449219 545.027344 609.933594 545.230469 C 610.421875 545.433594 610.882812 545.679688 611.324219 545.972656 C 611.761719 546.265625 612.167969 546.597656 612.539062 546.972656 C 612.914062 547.34375 613.246094 547.75 613.539062 548.1875 C 613.832031 548.628906 614.078125 549.089844 614.28125 549.578125 C 614.484375 550.0625 614.636719 550.566406 614.738281 551.082031 C 614.839844 551.601562 614.890625 552.125 614.890625 552.652344 Z M 614.890625 560.683594 " fill-opacity="1" fill-rule="nonzero"/></g><g clip-path="url(#dcfeaf716e)"><path fill="#ffffff" d="M 239.777344 322.097656 L 239.984375 322.304688 C 241.15625 324.683594 242.679688 326.804688 244.550781 328.679688 C 246.425781 330.550781 248.546875 332.074219 250.925781 333.246094 L 251.132812 333.453125 L 251.199219 333.390625 C 254.453125 334.984375 257.894531 335.789062 261.515625 335.808594 L 422.140625 335.808594 C 422.929688 335.808594 423.71875 335.769531 424.503906 335.691406 C 425.289062 335.613281 426.070312 335.496094 426.84375 335.34375 C 427.617188 335.191406 428.382812 335 429.136719 334.769531 C 429.890625 334.539062 430.632812 334.273438 431.363281 333.972656 C 432.09375 333.671875 432.804688 333.332031 433.5 332.960938 C 434.195312 332.589844 434.871094 332.183594 435.527344 331.746094 C 436.183594 331.308594 436.816406 330.839844 437.425781 330.335938 C 438.039062 329.835938 438.621094 329.308594 439.179688 328.75 C 439.738281 328.191406 440.265625 327.609375 440.765625 326.996094 C 441.269531 326.386719 441.738281 325.753906 442.175781 325.097656 C 442.613281 324.441406 443.019531 323.765625 443.390625 323.070312 C 443.761719 322.375 444.101562 321.664062 444.402344 320.933594 C 444.703125 320.203125 444.96875 319.460938 445.199219 318.707031 C 445.429688 317.953125 445.621094 317.1875 445.773438 316.414062 C 445.925781 315.640625 446.042969 314.859375 446.121094 314.074219 C 446.199219 313.289062 446.234375 312.503906 446.234375 311.714844 L 446.234375 215.339844 C 446.234375 214.550781 446.199219 213.761719 446.121094 212.976562 C 446.042969 212.191406 445.925781 211.410156 445.773438 210.636719 C 445.621094 209.863281 445.429688 209.097656 445.199219 208.34375 C 444.96875 207.589844 444.703125 206.847656 444.402344 206.117188 C 444.101562 205.390625 443.761719 204.675781 443.390625 203.980469 C 443.019531 203.285156 442.613281 202.609375 442.175781 201.953125 C 441.738281 201.296875 441.269531 200.664062 440.765625 200.054688 C 440.265625 199.441406 439.738281 198.859375 439.179688 198.300781 C 438.621094 197.742188 438.039062 197.214844 437.425781 196.714844 C 436.816406 196.210938 436.183594 195.742188 435.527344 195.304688 C 434.871094 194.867188 434.195312 194.460938 433.5 194.089844 C 432.804688 193.71875 432.09375 193.378906 431.363281 193.078125 C 430.632812 192.777344 429.890625 192.511719 429.136719 192.28125 C 428.382812 192.050781 427.617188 191.859375 426.84375 191.707031 C 426.070312 191.554688 425.289062 191.4375 424.503906 191.359375 C 423.71875 191.28125 422.929688 191.246094 422.140625 191.246094 L 261.515625 191.246094 C 260.726562 191.246094 259.941406 191.28125 259.15625 191.359375 C 258.371094 191.4375 257.589844 191.554688 256.816406 191.707031 C 256.042969 191.859375 255.277344 192.050781 254.523438 192.28125 C 253.769531 192.511719 253.027344 192.777344 252.296875 193.078125 C 251.566406 193.378906 250.855469 193.71875 250.160156 194.089844 C 249.464844 194.460938 248.789062 194.867188 248.132812 195.304688 C 247.476562 195.742188 246.84375 196.210938 246.234375 196.714844 C 245.621094 197.214844 245.039062 197.742188 244.480469 198.300781 C 243.921875 198.859375 243.394531 199.441406 242.894531 200.054688 C 242.390625 200.664062 241.921875 201.296875 241.484375 201.953125 C 241.046875 202.609375 240.640625 203.285156 240.269531 203.980469 C 239.898438 204.675781 239.558594 205.390625 239.257812 206.117188 C 238.957031 206.847656 238.691406 207.589844 238.460938 208.34375 C 238.230469 209.097656 238.039062 209.863281 237.886719 210.636719 C 237.734375 211.410156 237.617188 212.191406 237.539062 212.976562 C 237.460938 213.761719 237.421875 214.550781 237.421875 215.339844 L 237.421875 311.714844 C 237.4375 315.335938 238.242188 318.777344 239.832031 322.035156 Z M 354.566406 319.746094 L 264.84375 319.746094 L 309.703125 274.882812 Z M 422.140625 319.746094 L 377.28125 319.746094 L 345.15625 287.621094 L 390.015625 242.757812 L 430.171875 282.914062 L 430.171875 311.714844 C 430.171875 312.242188 430.121094 312.761719 430.019531 313.28125 C 429.917969 313.796875 429.765625 314.300781 429.5625 314.785156 C 429.359375 315.273438 429.113281 315.738281 428.820312 316.175781 C 428.527344 316.613281 428.195312 317.019531 427.820312 317.390625 C 427.449219 317.765625 427.042969 318.097656 426.605469 318.390625 C 426.164062 318.683594 425.703125 318.929688 425.214844 319.132812 C 424.730469 319.335938 424.226562 319.488281 423.710938 319.589844 C 423.191406 319.691406 422.667969 319.746094 422.140625 319.746094 Z M 253.484375 215.339844 C 253.484375 214.8125 253.539062 214.289062 253.640625 213.769531 C 253.742188 213.253906 253.894531 212.75 254.097656 212.265625 C 254.300781 211.777344 254.546875 211.316406 254.839844 210.875 C 255.132812 210.4375 255.464844 210.03125 255.839844 209.660156 C 256.210938 209.285156 256.617188 208.953125 257.054688 208.660156 C 257.492188 208.367188 257.957031 208.121094 258.445312 207.917969 C 258.929688 207.714844 259.433594 207.5625 259.949219 207.460938 C 260.46875 207.359375 260.988281 207.308594 261.515625 207.308594 L 422.140625 207.308594 C 422.667969 207.308594 423.191406 207.359375 423.710938 207.460938 C 424.226562 207.5625 424.730469 207.714844 425.214844 207.917969 C 425.703125 208.121094 426.164062 208.367188 426.605469 208.660156 C 427.042969 208.953125 427.449219 209.285156 427.820312 209.660156 C 428.195312 210.03125 428.527344 210.4375 428.820312 210.875 C 429.113281 211.316406 429.359375 211.777344 429.5625 212.265625 C 429.765625 212.75 429.917969 213.253906 430.019531 213.769531 C 430.121094 214.289062 430.171875 214.8125 430.171875 215.339844 L 430.171875 260.199219 L 395.695312 225.722656 C 395.324219 225.351562 394.917969 225.015625 394.480469 224.722656 C 394.039062 224.429688 393.578125 224.183594 393.089844 223.980469 C 392.601562 223.78125 392.101562 223.628906 391.585938 223.523438 C 391.066406 223.421875 390.542969 223.371094 390.015625 223.371094 C 389.492188 223.371094 388.96875 223.421875 388.449219 223.523438 C 387.933594 223.628906 387.433594 223.78125 386.945312 223.980469 C 386.457031 224.183594 385.996094 224.429688 385.554688 224.722656 C 385.117188 225.015625 384.710938 225.351562 384.339844 225.722656 L 333.796875 276.261719 L 315.382812 257.847656 C 315.011719 257.476562 314.605469 257.140625 314.167969 256.847656 C 313.726562 256.554688 313.265625 256.308594 312.777344 256.105469 C 312.289062 255.90625 311.789062 255.753906 311.273438 255.648438 C 310.753906 255.546875 310.230469 255.496094 309.703125 255.496094 C 309.179688 255.496094 308.65625 255.546875 308.136719 255.648438 C 307.621094 255.753906 307.121094 255.90625 306.632812 256.105469 C 306.144531 256.308594 305.683594 256.554688 305.242188 256.847656 C 304.804688 257.140625 304.398438 257.476562 304.027344 257.847656 L 253.484375 308.386719 Z M 253.484375 215.339844 " fill-opacity="1" fill-rule="nonzero"/></g></svg>