<svg xmlns="http://www.w3.org/2000/svg" xmlns:xlink="http://www.w3.org/1999/xlink" width="1024" zoomAndPan="magnify" viewBox="0 0 768 767.999994" height="1024" preserveAspectRatio="xMidYMid meet" version="1.0"><defs><clipPath id="45a4d29ac6"><path d="M 194.164062 194 L 399 194 L 399 548 L 194.164062 548 Z M 194.164062 194 " clip-rule="nonzero"/></clipPath><clipPath id="e11e68673c"><path d="M 369 220 L 573.664062 220 L 573.664062 574 L 369 574 Z M 369 220 " clip-rule="nonzero"/></clipPath><clipPath id="a96bf9750e"><path d="M 257 162.617188 L 511 162.617188 L 511 605.117188 L 257 605.117188 Z M 257 162.617188 " clip-rule="nonzero"/></clipPath></defs><rect x="-76.8" width="921.6" fill="#ffffff" y="-76.799999" height="921.599993" fill-opacity="1"/><rect x="-76.8" width="921.6" fill="#ca530e" y="-76.799999" height="921.599993" fill-opacity="1"/><g clip-path="url(#45a4d29ac6)"><path fill="#ffffff" d="M 225.867188 383.996094 C 225.867188 300.015625 291.742188 231.308594 374.507812 226.328125 L 398.496094 194.984375 C 393.6875 194.605469 388.898438 194.242188 383.996094 194.242188 C 279.203125 194.242188 194.242188 279.203125 194.242188 383.996094 C 194.242188 453.429688 231.640625 513.960938 287.285156 547.023438 L 295.523438 514.972656 C 253.523438 486.527344 225.867188 438.40625 225.867188 383.996094 Z M 225.867188 383.996094 " fill-opacity="1" fill-rule="nonzero"/></g><g clip-path="url(#e11e68673c)"><path fill="#ffffff" d="M 480.042969 220.554688 L 471.363281 252.304688 C 513.976562 280.691406 542.125 329.078125 542.125 383.996094 C 542.125 467.960938 476.246094 536.683594 393.484375 541.632812 L 369.480469 573.003906 C 374.300781 573.386719 379.09375 573.75 383.996094 573.75 C 488.785156 573.75 573.75 488.785156 573.75 383.996094 C 573.75 314.292969 536.050781 253.539062 480.042969 220.554688 Z M 480.042969 220.554688 " fill-opacity="1" fill-rule="nonzero"/></g><g clip-path="url(#a96bf9750e)"><path fill="#ffffff" d="M 510.496094 336.558594 L 415.621094 336.558594 L 424.917969 302.433594 L 442.691406 237.300781 L 451.042969 206.65625 L 463.058594 162.617188 L 433.679688 201.042969 L 412.617188 228.585938 L 359.992188 297.390625 L 257.492188 431.433594 L 352.371094 431.433594 L 343.121094 465.351562 L 325.296875 530.691406 L 316.949219 561.335938 L 304.933594 605.375 L 334.3125 566.949219 L 355.375 539.402344 L 408.664062 469.699219 Z M 510.496094 336.558594 " fill-opacity="1" fill-rule="nonzero"/></g></svg>