<svg xmlns="http://www.w3.org/2000/svg" xmlns:xlink="http://www.w3.org/1999/xlink" width="1024" zoomAndPan="magnify" viewBox="0 0 768 767.999994" height="1024" preserveAspectRatio="xMidYMid meet" version="1.0"><defs><clipPath id="099467a7b2"><path d="M 153.601562 153.601562 L 614.101562 153.601562 L 614.101562 548 L 153.601562 548 Z M 153.601562 153.601562 " clip-rule="nonzero"/></clipPath><clipPath id="e402c20549"><path d="M 153.601562 569 L 199 569 L 199 614.101562 L 153.601562 614.101562 Z M 153.601562 569 " clip-rule="nonzero"/></clipPath></defs><rect x="-76.8" width="921.6" fill="#ffffff" y="-76.799999" height="921.599993" fill-opacity="1"/><rect x="-76.8" width="921.6" fill="#ca530e" y="-76.799999" height="921.599993" fill-opacity="1"/><g clip-path="url(#099467a7b2)"><path fill="#ffffff" d="M 614.394531 354.269531 C 614.394531 319.335938 590.609375 290.351562 557.910156 282.175781 C 560.882812 274.742188 562.367188 266.570312 562.367188 257.648438 C 562.367188 216.773438 528.921875 183.328125 488.046875 183.328125 C 473.925781 183.328125 461.289062 187.042969 450.140625 193.734375 C 437.507812 169.949219 412.980469 153.601562 383.996094 153.601562 C 355.011719 153.601562 330.484375 169.949219 317.851562 193.734375 C 306.703125 187.042969 294.066406 183.328125 279.945312 183.328125 C 239.070312 183.328125 205.625 216.773438 205.625 257.648438 C 205.625 266.570312 207.113281 274.742188 210.085938 282.175781 C 177.382812 290.351562 153.601562 319.335938 153.601562 354.269531 C 153.601562 387.710938 175.894531 415.953125 206.367188 425.617188 C 205.625 428.589844 205.625 432.304688 205.625 436.023438 C 205.625 476.898438 239.070312 510.34375 279.945312 510.34375 C 292.582031 510.34375 304.472656 507.371094 315.621094 501.425781 C 326.769531 528.179688 353.523438 547.503906 383.996094 547.503906 C 414.46875 547.503906 441.96875 528.179688 452.371094 501.425781 C 462.777344 507.371094 474.667969 510.34375 488.046875 510.34375 C 528.921875 510.34375 562.367188 476.898438 562.367188 436.023438 C 562.367188 432.304688 562.367188 428.589844 561.625 425.617188 C 592.097656 415.953125 614.394531 387.710938 614.394531 354.269531 Z M 614.394531 354.269531 " fill-opacity="1" fill-rule="nonzero"/></g><g clip-path="url(#e402c20549)"><path fill="#ffffff" d="M 198.191406 592.097656 C 198.191406 592.828125 198.15625 593.554688 198.085938 594.28125 C 198.015625 595.007812 197.90625 595.730469 197.765625 596.445312 C 197.621094 597.164062 197.445312 597.871094 197.234375 598.570312 C 197.019531 599.269531 196.773438 599.953125 196.496094 600.628906 C 196.214844 601.304688 195.90625 601.964844 195.558594 602.605469 C 195.214844 603.25 194.839844 603.875 194.433594 604.484375 C 194.03125 605.089844 193.59375 605.675781 193.132812 606.242188 C 192.667969 606.804688 192.179688 607.347656 191.664062 607.863281 C 191.144531 608.378906 190.605469 608.867188 190.042969 609.332031 C 189.476562 609.796875 188.890625 610.230469 188.285156 610.636719 C 187.675781 611.042969 187.050781 611.417969 186.40625 611.761719 C 185.761719 612.105469 185.105469 612.417969 184.429688 612.695312 C 183.753906 612.976562 183.066406 613.222656 182.367188 613.433594 C 181.671875 613.644531 180.960938 613.820312 180.246094 613.964844 C 179.53125 614.105469 178.808594 614.214844 178.082031 614.285156 C 177.355469 614.355469 176.625 614.394531 175.894531 614.394531 C 175.167969 614.394531 174.4375 614.355469 173.710938 614.285156 C 172.984375 614.214844 172.261719 614.105469 171.546875 613.964844 C 170.832031 613.820312 170.121094 613.644531 169.425781 613.433594 C 168.726562 613.222656 168.039062 612.976562 167.363281 612.695312 C 166.6875 612.417969 166.03125 612.105469 165.386719 611.761719 C 164.742188 611.417969 164.117188 611.042969 163.507812 610.636719 C 162.902344 610.230469 162.316406 609.796875 161.75 609.332031 C 161.1875 608.867188 160.648438 608.378906 160.128906 607.863281 C 159.613281 607.347656 159.125 606.804688 158.660156 606.242188 C 158.199219 605.675781 157.761719 605.089844 157.359375 604.484375 C 156.953125 603.875 156.578125 603.25 156.234375 602.605469 C 155.886719 601.964844 155.578125 601.304688 155.296875 600.628906 C 155.019531 599.953125 154.773438 599.269531 154.558594 598.570312 C 154.347656 597.871094 154.171875 597.164062 154.027344 596.445312 C 153.886719 595.730469 153.777344 595.007812 153.707031 594.28125 C 153.636719 593.554688 153.601562 592.828125 153.601562 592.097656 C 153.601562 591.367188 153.636719 590.636719 153.707031 589.910156 C 153.777344 589.183594 153.886719 588.464844 154.027344 587.746094 C 154.171875 587.03125 154.347656 586.324219 154.558594 585.625 C 154.773438 584.925781 155.019531 584.238281 155.296875 583.5625 C 155.578125 582.890625 155.886719 582.230469 156.234375 581.585938 C 156.578125 580.941406 156.953125 580.316406 157.359375 579.710938 C 157.761719 579.101562 158.199219 578.515625 158.660156 577.953125 C 159.125 577.386719 159.613281 576.847656 160.128906 576.332031 C 160.648438 575.8125 161.1875 575.324219 161.75 574.859375 C 162.316406 574.398438 162.902344 573.964844 163.507812 573.558594 C 164.117188 573.152344 164.742188 572.777344 165.386719 572.433594 C 166.03125 572.089844 166.6875 571.777344 167.363281 571.496094 C 168.039062 571.21875 168.726562 570.972656 169.425781 570.761719 C 170.121094 570.546875 170.832031 570.371094 171.546875 570.230469 C 172.261719 570.085938 172.984375 569.980469 173.710938 569.90625 C 174.4375 569.835938 175.167969 569.800781 175.894531 569.800781 C 176.625 569.800781 177.355469 569.835938 178.082031 569.90625 C 178.808594 569.980469 179.53125 570.085938 180.246094 570.230469 C 180.960938 570.371094 181.671875 570.546875 182.367188 570.761719 C 183.066406 570.972656 183.753906 571.21875 184.429688 571.496094 C 185.105469 571.777344 185.761719 572.089844 186.40625 572.433594 C 187.050781 572.777344 187.675781 573.152344 188.285156 573.558594 C 188.890625 573.964844 189.476562 574.398438 190.042969 574.859375 C 190.605469 575.324219 191.144531 575.8125 191.664062 576.332031 C 192.179688 576.847656 192.667969 577.386719 193.132812 577.953125 C 193.59375 578.515625 194.03125 579.101562 194.433594 579.710938 C 194.839844 580.316406 195.214844 580.941406 195.558594 581.585938 C 195.90625 582.230469 196.214844 582.890625 196.496094 583.5625 C 196.773438 584.238281 197.019531 584.925781 197.234375 585.625 C 197.445312 586.324219 197.621094 587.03125 197.765625 587.746094 C 197.90625 588.464844 198.015625 589.183594 198.085938 589.910156 C 198.15625 590.636719 198.191406 591.367188 198.191406 592.097656 Z M 198.191406 592.097656 " fill-opacity="1" fill-rule="nonzero"/></g><path fill="#ffffff" d="M 272.515625 562.367188 C 272.515625 563.097656 272.476562 563.828125 272.40625 564.554688 C 272.335938 565.28125 272.226562 566 272.085938 566.71875 C 271.945312 567.433594 271.765625 568.140625 271.554688 568.839844 C 271.34375 569.539062 271.097656 570.226562 270.816406 570.898438 C 270.539062 571.574219 270.226562 572.234375 269.882812 572.878906 C 269.539062 573.523438 269.164062 574.148438 268.757812 574.753906 C 268.351562 575.363281 267.917969 575.949219 267.453125 576.511719 C 266.988281 577.078125 266.5 577.617188 265.984375 578.132812 C 265.46875 578.648438 264.925781 579.140625 264.363281 579.601562 C 263.796875 580.066406 263.210938 580.5 262.605469 580.90625 C 261.996094 581.3125 261.371094 581.6875 260.726562 582.03125 C 260.085938 582.375 259.425781 582.6875 258.75 582.96875 C 258.074219 583.246094 257.390625 583.492188 256.691406 583.703125 C 255.992188 583.917969 255.285156 584.09375 254.566406 584.234375 C 253.851562 584.378906 253.128906 584.484375 252.402344 584.558594 C 251.675781 584.628906 250.949219 584.664062 250.21875 584.664062 C 249.488281 584.664062 248.757812 584.628906 248.03125 584.558594 C 247.304688 584.484375 246.585938 584.378906 245.867188 584.234375 C 245.152344 584.09375 244.445312 583.917969 243.746094 583.703125 C 243.046875 583.492188 242.359375 583.246094 241.683594 582.96875 C 241.011719 582.6875 240.351562 582.375 239.707031 582.03125 C 239.0625 581.6875 238.4375 581.3125 237.832031 580.90625 C 237.222656 580.5 236.636719 580.066406 236.074219 579.601562 C 235.507812 579.140625 234.96875 578.648438 234.453125 578.132812 C 233.933594 577.617188 233.445312 577.078125 232.984375 576.511719 C 232.519531 575.949219 232.085938 575.363281 231.679688 574.753906 C 231.273438 574.148438 230.898438 573.523438 230.554688 572.878906 C 230.210938 572.234375 229.898438 571.574219 229.617188 570.902344 C 229.339844 570.226562 229.09375 569.539062 228.882812 568.839844 C 228.667969 568.140625 228.492188 567.433594 228.351562 566.71875 C 228.207031 566 228.101562 565.28125 228.027344 564.554688 C 227.957031 563.828125 227.921875 563.097656 227.921875 562.367188 C 227.921875 561.636719 227.957031 560.910156 228.027344 560.183594 C 228.101562 559.457031 228.207031 558.734375 228.351562 558.019531 C 228.492188 557.300781 228.667969 556.59375 228.882812 555.894531 C 229.09375 555.195312 229.339844 554.511719 229.617188 553.835938 C 229.898438 553.160156 230.210938 552.5 230.554688 551.859375 C 230.898438 551.214844 231.273438 550.589844 231.679688 549.980469 C 232.085938 549.375 232.519531 548.789062 232.984375 548.222656 C 233.445312 547.660156 233.933594 547.117188 234.453125 546.601562 C 234.96875 546.085938 235.507812 545.597656 236.074219 545.132812 C 236.636719 544.667969 237.222656 544.234375 237.832031 543.828125 C 238.4375 543.421875 239.0625 543.046875 239.707031 542.703125 C 240.351562 542.359375 241.011719 542.046875 241.683594 541.769531 C 242.359375 541.488281 243.046875 541.242188 243.746094 541.03125 C 244.445312 540.820312 245.152344 540.640625 245.867188 540.5 C 246.585938 540.359375 247.304688 540.25 248.03125 540.179688 C 248.757812 540.105469 249.488281 540.070312 250.21875 540.070312 C 250.949219 540.070312 251.675781 540.105469 252.402344 540.179688 C 253.128906 540.25 253.851562 540.359375 254.566406 540.5 C 255.285156 540.640625 255.992188 540.820312 256.691406 541.03125 C 257.390625 541.242188 258.074219 541.488281 258.75 541.769531 C 259.425781 542.046875 260.085938 542.359375 260.726562 542.703125 C 261.371094 543.046875 261.996094 543.421875 262.605469 543.828125 C 263.210938 544.234375 263.796875 544.667969 264.363281 545.132812 C 264.925781 545.597656 265.46875 546.085938 265.984375 546.601562 C 266.5 547.117188 266.988281 547.660156 267.453125 548.222656 C 267.917969 548.789062 268.351562 549.375 268.757812 549.980469 C 269.164062 550.589844 269.539062 551.214844 269.882812 551.859375 C 270.226562 552.5 270.539062 553.160156 270.816406 553.835938 C 271.097656 554.511719 271.34375 555.195312 271.554688 555.894531 C 271.765625 556.59375 271.945312 557.300781 272.085938 558.019531 C 272.226562 558.734375 272.335938 559.457031 272.40625 560.183594 C 272.476562 560.910156 272.515625 561.636719 272.515625 562.367188 Z M 272.515625 562.367188 " fill-opacity="1" fill-rule="nonzero"/><path fill="#ea4505" d="M 355.011719 375.078125 L 299.269531 430.820312 C 291.835938 438.25 291.835938 450.144531 299.269531 457.574219 C 306.703125 465.007812 318.59375 465.007812 326.027344 457.574219 L 381.765625 401.832031 Z M 355.011719 375.078125 " fill-opacity="1" fill-rule="nonzero"/><path fill="#ea4505" d="M 519.261719 294.8125 L 473.183594 310.417969 L 495.480469 266.570312 C 496.964844 263.597656 493.992188 260.621094 491.019531 262.109375 L 447.167969 284.40625 L 462.777344 238.328125 C 464.261719 234.609375 459.804688 232.378906 456.832031 234.609375 L 413.726562 276.230469 C 404.804688 285.148438 399.605469 297.785156 399.605469 310.417969 C 399.605469 323.054688 394.402344 335.6875 385.484375 344.605469 L 381.765625 348.320312 L 408.523438 375.078125 L 412.238281 371.363281 C 421.15625 362.441406 433.792969 357.242188 446.425781 357.242188 C 459.0625 357.242188 471.695312 352.039062 480.613281 343.121094 L 522.976562 300.757812 C 525.207031 298.527344 522.234375 294.066406 519.261719 294.8125 Z M 519.261719 294.8125 " fill-opacity="1" fill-rule="nonzero"/><path fill="#ff7745" d="M 343.863281 270.285156 C 317.851562 244.273438 282.175781 238.328125 263.597656 256.90625 C 245.015625 275.488281 250.960938 311.160156 276.972656 337.175781 C 296.296875 356.496094 320.824219 364.671875 339.402344 360.214844 L 436.765625 457.574219 C 444.195312 465.007812 456.089844 465.007812 463.519531 457.574219 C 470.953125 450.144531 470.953125 438.25 463.519531 430.820312 L 366.160156 333.457031 C 371.363281 314.132812 363.1875 289.609375 343.863281 270.285156 Z M 343.863281 270.285156 " fill-opacity="1" fill-rule="nonzero"/><path fill="#ea4505" d="M 331.972656 346.835938 C 317.105469 346.835938 287.378906 339.402344 279.945312 311.160156 C 279.203125 307.445312 281.433594 302.984375 285.148438 302.242188 C 288.863281 301.5 293.324219 303.730469 294.066406 307.445312 C 300.011719 331.226562 330.484375 331.226562 331.226562 331.226562 C 335.6875 331.226562 338.660156 334.945312 338.660156 338.660156 C 339.402344 343.863281 336.429688 346.835938 331.972656 346.835938 Z M 331.972656 346.835938 " fill-opacity="1" fill-rule="nonzero"/></svg>