<svg xmlns="http://www.w3.org/2000/svg" xmlns:xlink="http://www.w3.org/1999/xlink" width="1024" zoomAndPan="magnify" viewBox="0 0 768 767.999994" height="1024" preserveAspectRatio="xMidYMid meet" version="1.0"><defs><clipPath id="7c76a8164a"><path d="M 782.816406 819.335938 L 28.070312 819.335938 C -3.015625 819.335938 -28.347656 794.003906 -28.347656 762.917969 L -28.347656 8.167969 C -28.347656 -22.917969 -3.015625 -48.25 28.070312 -48.25 L 782.816406 -48.25 C 813.90625 -48.25 839.238281 -22.917969 839.238281 8.167969 L 839.238281 762.917969 C 839.238281 794.003906 813.90625 819.335938 782.816406 819.335938 Z M 782.816406 819.335938 " clip-rule="nonzero"/></clipPath><clipPath id="321e5d91ea"><path d="M 179.09375 120.070312 L 588.59375 120.070312 L 588.59375 648 L 179.09375 648 Z M 179.09375 120.070312 " clip-rule="nonzero"/></clipPath></defs><rect x="-76.8" width="921.6" fill="#ffffff" y="-76.799999" height="921.599993" fill-opacity="1"/><rect x="-76.8" width="921.6" fill="#fff5e6" y="-76.799999" height="921.599993" fill-opacity="1"/><g clip-path="url(#7c76a8164a)"><rect x="-76.8" width="921.6" fill="#ca530e" y="-76.799999" height="921.599993" fill-opacity="1"/></g><g clip-path="url(#321e5d91ea)"><path fill="#ffffff" d="M 384.050781 240.183594 L 330.984375 124.066406 C 329.867188 121.621094 327.425781 120.054688 324.738281 120.054688 L 186.34375 120.054688 C 184.007812 120.054688 181.832031 121.242188 180.570312 123.210938 C 179.304688 125.175781 179.128906 127.648438 180.101562 129.773438 L 308.613281 410.957031 C 309.726562 413.402344 312.167969 414.96875 314.855469 414.96875 L 346.980469 414.96875 L 346.980469 434.007812 C 304.421875 449.242188 273.941406 489.945312 273.941406 537.710938 C 273.941406 598.484375 323.28125 647.824219 384.050781 647.824219 C 444.824219 647.824219 494.164062 598.484375 494.164062 537.710938 C 494.164062 489.945312 463.683594 449.242188 421.121094 434.007812 L 421.121094 414.96875 L 453.136719 414.96875 C 455.78125 415.011719 458.324219 413.515625 459.492188 410.957031 L 588.003906 129.773438 C 588.976562 127.648438 588.796875 125.175781 587.535156 123.210938 C 586.273438 121.242188 584.097656 120.054688 581.761719 120.054688 L 443.363281 120.054688 C 440.679688 120.054688 438.238281 121.621094 437.121094 124.066406 Z M 384.050781 441.332031 C 437.246094 441.332031 480.433594 484.515625 480.433594 537.710938 C 480.433594 590.910156 437.246094 634.09375 384.050781 634.09375 C 330.855469 634.09375 287.667969 590.910156 287.667969 537.710938 C 287.667969 484.515625 330.855469 441.332031 384.050781 441.332031 Z M 384.050781 453.960938 C 337.828125 453.960938 300.300781 491.488281 300.300781 537.710938 C 300.300781 583.9375 337.828125 621.464844 384.050781 621.464844 C 430.277344 621.464844 467.804688 583.9375 467.804688 537.710938 C 467.804688 491.488281 430.277344 453.960938 384.050781 453.960938 Z M 384.050781 467.691406 C 422.699219 467.691406 454.074219 499.066406 454.074219 537.710938 C 454.074219 576.359375 422.699219 607.734375 384.050781 607.734375 C 345.40625 607.734375 314.03125 576.359375 314.03125 537.710938 C 314.03125 499.066406 345.40625 467.691406 384.050781 467.691406 Z M 380.476562 490.117188 C 380.46875 490.121094 380.460938 490.125 380.453125 490.128906 L 366.175781 498.914062 C 362.949219 500.902344 361.941406 505.132812 363.925781 508.359375 C 365.914062 511.585938 370.144531 512.59375 373.371094 510.609375 L 377.1875 508.261719 L 377.1875 567.09375 L 367.027344 567.09375 C 363.238281 567.09375 360.164062 570.171875 360.164062 573.960938 C 360.164062 577.746094 363.238281 580.824219 367.027344 580.824219 L 401.078125 580.824219 C 404.867188 580.824219 407.941406 577.746094 407.941406 573.960938 C 407.941406 570.171875 404.867188 567.09375 401.078125 567.09375 L 390.917969 567.09375 L 390.917969 495.972656 C 390.917969 492.1875 387.839844 489.109375 384.050781 489.109375 C 382.742188 489.109375 381.515625 489.476562 380.476562 490.117188 Z M 407.394531 430.082031 L 407.394531 414.96875 L 360.710938 414.96875 L 360.710938 430.082031 C 368.230469 428.457031 376.042969 427.601562 384.050781 427.601562 C 392.0625 427.601562 399.875 428.457031 407.394531 430.082031 Z M 255.679688 133.785156 L 373.527344 401.238281 L 319.265625 401.238281 C 319.265625 401.238281 219.464844 182.875 197.03125 133.785156 Z M 270.683594 133.785156 L 320.328125 133.785156 L 442.566406 401.238281 L 388.53125 401.238281 Z M 512.425781 133.785156 L 425.542969 330.964844 L 453.25 391.589844 L 571.074219 133.785156 Z M 447.773438 133.785156 L 391.601562 256.699219 L 417.90625 314.25 L 497.421875 133.785156 Z M 447.773438 133.785156 " fill-opacity="1" fill-rule="evenodd"/></g></svg>