<svg xmlns="http://www.w3.org/2000/svg" xmlns:xlink="http://www.w3.org/1999/xlink" width="500" zoomAndPan="magnify" viewBox="0 0 375 374.999991" height="500" preserveAspectRatio="xMidYMid meet" version="1.0"><path fill="#ffffff" d="M 229.199219 257.230469 L 278.296875 180.796875 C 299.957031 147.09375 301.417969 105.988281 282.1875 70.824219 C 262.957031 35.660156 227.578125 14.648438 187.5 14.648438 C 147.421875 14.648438 112.042969 35.660156 92.8125 70.824219 C 73.582031 105.933594 75.042969 147.039062 96.703125 180.796875 L 145.746094 257.175781 C 102.75 264.789062 75.367188 283.910156 75.367188 306.976562 C 75.417969 337.871094 122.519531 360.34375 187.5 360.34375 C 252.480469 360.34375 299.578125 337.871094 299.578125 306.976562 C 299.578125 283.804688 272.25 264.738281 229.199219 257.230469 Z M 234.058594 116.46875 C 234.058594 142.070312 213.15625 162.917969 187.5 162.917969 C 161.84375 162.917969 140.9375 142.070312 140.9375 116.46875 C 140.9375 90.808594 161.84375 69.90625 187.5 69.90625 C 213.15625 69.90625 234.058594 90.757812 234.058594 116.46875 Z M 179.828125 310.21875 C 181.503906 312.863281 184.367188 314.429688 187.5 314.429688 C 190.6875 314.429688 193.550781 312.863281 195.167969 310.269531 L 213.644531 281.480469 C 253.398438 286.179688 273.328125 300.332031 273.328125 306.976562 C 273.328125 315.078125 244.105469 334.089844 187.5 334.089844 C 130.890625 334.089844 101.671875 315.078125 101.671875 306.976562 C 101.671875 300.332031 121.601562 286.234375 161.355469 281.480469 Z M 179.828125 310.21875 " fill-opacity="1" fill-rule="nonzero"/></svg>