<svg xmlns="http://www.w3.org/2000/svg" xmlns:xlink="http://www.w3.org/1999/xlink" width="1024" zoomAndPan="magnify" viewBox="0 0 768 767.999994" height="1024" preserveAspectRatio="xMidYMid meet" version="1.0"><defs><clipPath id="f75aba5dd4"><path d="M 757.679688 840.699219 L 26.320312 840.699219 C -3.800781 840.699219 -28.347656 816.152344 -28.347656 786.027344 L -28.347656 54.671875 C -28.347656 24.546875 -3.800781 0 26.320312 0 L 757.679688 0 C 787.804688 0 812.351562 24.546875 812.351562 54.671875 L 812.351562 786.027344 C 812.351562 816.152344 787.804688 840.699219 757.679688 840.699219 Z M 757.679688 840.699219 " clip-rule="nonzero"/></clipPath><clipPath id="6685d2269d"><path d="M 167.855469 167.855469 L 599.855469 167.855469 L 599.855469 599.855469 L 167.855469 599.855469 Z M 167.855469 167.855469 " clip-rule="nonzero"/></clipPath></defs><rect x="-76.8" width="921.6" fill="#ffffff" y="-76.799999" height="921.599993" fill-opacity="1"/><rect x="-76.8" width="921.6" fill="#fff5e6" y="-76.799999" height="921.599993" fill-opacity="1"/><g clip-path="url(#f75aba5dd4)"><rect x="-76.8" width="921.6" fill="#ca530e" y="-76.799999" height="921.599993" fill-opacity="1"/></g><path fill="#ffffff" d="M 246.621094 351.84375 C 254.484375 359.707031 266.550781 347.796875 258.609375 339.859375 L 230.699219 311.949219 L 258.609375 284.035156 C 261.917969 280.726562 261.917969 275.359375 258.609375 272.046875 C 255.296875 268.738281 249.933594 268.738281 246.621094 272.046875 L 212.71875 305.953125 C 209.40625 309.261719 209.40625 314.628906 212.71875 317.941406 Z M 246.621094 351.84375 " fill-opacity="1" fill-rule="nonzero"/><path fill="#ffffff" d="M 343.371094 351.84375 L 377.273438 317.941406 C 380.582031 314.632812 380.582031 309.265625 377.273438 305.953125 L 343.371094 272.046875 C 340.058594 268.738281 334.691406 268.738281 331.382812 272.046875 C 328.070312 275.359375 328.070312 280.726562 331.382812 284.035156 L 359.292969 311.949219 L 331.382812 339.859375 C 323.4375 347.804688 335.527344 359.683594 343.371094 351.84375 Z M 343.371094 351.84375 " fill-opacity="1" fill-rule="nonzero"/><path fill="#ffffff" d="M 286.527344 354.328125 C 290.324219 354.328125 293.78125 351.757812 294.742188 347.90625 L 311.695312 280.097656 C 312.828125 275.558594 310.066406 270.957031 305.527344 269.820312 C 300.984375 268.683594 296.382812 271.445312 295.25 275.988281 L 278.296875 343.796875 C 276.960938 349.136719 281.003906 354.328125 286.527344 354.328125 Z M 286.527344 354.328125 " fill-opacity="1" fill-rule="nonzero"/><path fill="#ffffff" d="M 379.757812 405.183594 C 375.074219 405.183594 371.28125 408.980469 371.28125 413.660156 C 371.28125 418.339844 375.074219 422.136719 379.757812 422.136719 L 549.277344 422.136719 C 553.957031 422.136719 557.753906 418.339844 557.753906 413.660156 C 557.753906 408.980469 553.957031 405.183594 549.277344 405.183594 L 540.800781 405.183594 L 540.800781 337.375 C 540.800781 332.695312 537.007812 328.898438 532.324219 328.898438 C 527.644531 328.898438 523.851562 332.695312 523.851562 337.375 L 523.851562 405.183594 L 506.898438 405.183594 L 506.898438 320.421875 C 506.898438 315.742188 503.101562 311.949219 498.421875 311.949219 C 493.742188 311.949219 489.945312 315.742188 489.945312 320.421875 L 489.945312 405.183594 L 472.992188 405.183594 L 472.992188 371.28125 C 472.992188 366.597656 469.199219 362.804688 464.515625 362.804688 C 459.835938 362.804688 456.042969 366.597656 456.042969 371.28125 L 456.042969 405.183594 L 439.089844 405.183594 L 439.089844 354.328125 C 439.089844 349.648438 435.292969 345.851562 430.613281 345.851562 C 425.933594 345.851562 422.136719 349.648438 422.136719 354.328125 L 422.136719 405.183594 L 405.183594 405.183594 L 405.183594 379.757812 C 405.183594 375.074219 401.390625 371.28125 396.707031 371.28125 C 392.027344 371.28125 388.230469 375.074219 388.230469 379.757812 L 388.230469 405.183594 Z M 379.757812 405.183594 " fill-opacity="1" fill-rule="nonzero"/><path fill="#ffffff" d="M 396.707031 227.1875 L 549.277344 227.1875 C 553.957031 227.1875 557.753906 223.390625 557.753906 218.710938 C 557.753906 214.03125 553.957031 210.234375 549.277344 210.234375 L 396.707031 210.234375 C 392.027344 210.234375 388.230469 214.03125 388.230469 218.710938 C 388.230469 223.390625 392.027344 227.1875 396.707031 227.1875 Z M 396.707031 227.1875 " fill-opacity="1" fill-rule="nonzero"/><path fill="#ffffff" d="M 396.707031 261.089844 L 498.421875 261.089844 C 503.101562 261.089844 506.898438 257.296875 506.898438 252.613281 C 506.898438 247.933594 503.101562 244.136719 498.421875 244.136719 L 396.707031 244.136719 C 392.027344 244.136719 388.230469 247.933594 388.230469 252.613281 C 388.230469 257.296875 392.027344 261.089844 396.707031 261.089844 Z M 396.707031 261.089844 " fill-opacity="1" fill-rule="nonzero"/><path fill="#ffffff" d="M 557.753906 489.945312 C 557.753906 490.503906 557.699219 491.054688 557.589844 491.597656 C 557.484375 492.144531 557.320312 492.675781 557.109375 493.1875 C 556.894531 493.703125 556.636719 494.191406 556.324219 494.65625 C 556.015625 495.117188 555.664062 495.546875 555.273438 495.9375 C 554.878906 496.332031 554.449219 496.683594 553.988281 496.992188 C 553.523438 497.300781 553.035156 497.5625 552.523438 497.777344 C 552.007812 497.988281 551.476562 498.148438 550.933594 498.257812 C 550.386719 498.367188 549.835938 498.421875 549.277344 498.421875 C 548.722656 498.421875 548.171875 498.367188 547.625 498.257812 C 547.078125 498.148438 546.546875 497.988281 546.035156 497.777344 C 545.519531 497.5625 545.03125 497.300781 544.570312 496.992188 C 544.105469 496.683594 543.679688 496.332031 543.285156 495.9375 C 542.890625 495.546875 542.539062 495.117188 542.230469 494.65625 C 541.921875 494.191406 541.660156 493.703125 541.449219 493.1875 C 541.234375 492.675781 541.074219 492.144531 540.964844 491.597656 C 540.855469 491.054688 540.800781 490.503906 540.800781 489.945312 C 540.800781 489.390625 540.855469 488.835938 540.964844 488.292969 C 541.074219 487.746094 541.234375 487.214844 541.449219 486.703125 C 541.660156 486.1875 541.921875 485.699219 542.230469 485.238281 C 542.539062 484.773438 542.890625 484.34375 543.285156 483.953125 C 543.679688 483.558594 544.105469 483.207031 544.570312 482.898438 C 545.03125 482.589844 545.519531 482.328125 546.035156 482.113281 C 546.546875 481.902344 547.078125 481.742188 547.625 481.632812 C 548.171875 481.523438 548.722656 481.46875 549.277344 481.46875 C 549.835938 481.46875 550.386719 481.523438 550.933594 481.632812 C 551.476562 481.742188 552.007812 481.902344 552.523438 482.113281 C 553.035156 482.328125 553.523438 482.589844 553.988281 482.898438 C 554.449219 483.207031 554.878906 483.558594 555.273438 483.953125 C 555.664062 484.34375 556.015625 484.773438 556.324219 485.238281 C 556.636719 485.699219 556.894531 486.1875 557.109375 486.703125 C 557.320312 487.214844 557.484375 487.746094 557.589844 488.292969 C 557.699219 488.835938 557.753906 489.390625 557.753906 489.945312 Z M 557.753906 489.945312 " fill-opacity="1" fill-rule="nonzero"/><path fill="#ffffff" d="M 515.375 481.46875 L 506.898438 481.46875 C 502.21875 481.46875 498.421875 485.265625 498.421875 489.945312 C 498.421875 494.625 502.21875 498.421875 506.898438 498.421875 L 515.375 498.421875 C 520.054688 498.421875 523.851562 494.625 523.851562 489.945312 C 523.851562 485.265625 520.054688 481.46875 515.375 481.46875 Z M 515.375 481.46875 " fill-opacity="1" fill-rule="nonzero"/><path fill="#ffffff" d="M 472.992188 481.46875 L 464.515625 481.46875 C 459.835938 481.46875 456.042969 485.265625 456.042969 489.945312 C 456.042969 494.625 459.835938 498.421875 464.515625 498.421875 L 472.992188 498.421875 C 477.675781 498.421875 481.46875 494.625 481.46875 489.945312 C 481.46875 485.265625 477.675781 481.46875 472.992188 481.46875 Z M 472.992188 481.46875 " fill-opacity="1" fill-rule="nonzero"/><g clip-path="url(#6685d2269d)"><path fill="#ffffff" d="M 553.585938 167.855469 L 214.40625 167.855469 C 188.734375 167.855469 167.855469 188.734375 167.855469 214.40625 L 167.855469 485.773438 C 167.855469 511.445312 188.734375 532.324219 214.40625 532.324219 L 341.613281 532.324219 L 341.613281 549.277344 L 333.136719 549.277344 C 309.769531 549.277344 290.757812 568.289062 290.757812 591.660156 C 290.757812 596.339844 294.550781 600.136719 299.234375 600.136719 L 468.753906 600.136719 C 473.4375 600.136719 477.230469 596.339844 477.230469 591.660156 C 477.230469 568.289062 458.21875 549.277344 434.851562 549.277344 L 426.375 549.277344 L 426.375 532.324219 L 553.585938 532.324219 C 579.253906 532.324219 600.136719 511.445312 600.136719 485.773438 L 600.136719 214.40625 C 600.136719 188.734375 579.253906 167.855469 553.585938 167.855469 Z M 214.40625 184.804688 L 553.585938 184.804688 C 569.90625 184.804688 583.183594 198.082031 583.183594 214.40625 L 583.183594 447.566406 L 184.804688 447.566406 L 184.804688 214.40625 C 184.804688 198.082031 198.082031 184.804688 214.40625 184.804688 Z M 458.828125 583.183594 L 309.164062 583.183594 C 312.660156 573.316406 322.085938 566.230469 333.136719 566.230469 L 434.851562 566.230469 C 445.902344 566.230469 455.328125 573.316406 458.828125 583.183594 Z M 409.421875 549.277344 L 358.566406 549.277344 L 358.566406 532.324219 L 409.421875 532.324219 Z M 553.585938 515.375 L 214.40625 515.375 C 198.082031 515.375 184.804688 502.097656 184.804688 485.773438 L 184.804688 464.515625 L 583.183594 464.515625 L 583.183594 485.773438 C 583.183594 502.097656 569.90625 515.375 553.585938 515.375 Z M 553.585938 515.375 " fill-opacity="1" fill-rule="nonzero"/></g></svg>