<svg xmlns="http://www.w3.org/2000/svg" xmlns:xlink="http://www.w3.org/1999/xlink" width="1024" zoomAndPan="magnify" viewBox="0 0 768 767.999994" height="1024" preserveAspectRatio="xMidYMid meet" version="1.0"><defs><clipPath id="45cb4a447d"><path d="M 738.464844 796.097656 L 24.984375 796.097656 C -4.402344 796.097656 -28.347656 772.152344 -28.347656 742.765625 L -28.347656 29.285156 C -28.347656 -0.105469 -4.402344 -24.050781 24.984375 -24.050781 L 738.464844 -24.050781 C 767.855469 -24.050781 791.800781 -0.105469 791.800781 29.285156 L 791.800781 742.765625 C 791.800781 772.152344 767.855469 796.097656 738.464844 796.097656 Z M 738.464844 796.097656 " clip-rule="nonzero"/></clipPath><clipPath id="0f60265f06"><path d="M 267.628906 155.808594 L 349 155.808594 L 349 369 L 267.628906 369 Z M 267.628906 155.808594 " clip-rule="nonzero"/></clipPath><clipPath id="6af7dc2edc"><path d="M 354 160 L 495.628906 160 L 495.628906 302 L 354 302 Z M 354 160 " clip-rule="nonzero"/></clipPath><clipPath id="2af12039fe"><path d="M 322 577 L 432 577 L 432 612.558594 L 322 612.558594 Z M 322 577 " clip-rule="nonzero"/></clipPath></defs><rect x="-76.8" width="921.6" fill="#ffffff" y="-76.799999" height="921.599993" fill-opacity="1"/><rect x="-76.8" width="921.6" fill="#fff5e6" y="-76.799999" height="921.599993" fill-opacity="1"/><g clip-path="url(#45cb4a447d)"><rect x="-76.8" width="921.6" fill="#ca530e" y="-76.799999" height="921.599993" fill-opacity="1"/></g><g clip-path="url(#0f60265f06)"><path stroke-linecap="round" transform="matrix(0.18582, 0, 0, -0.18582, -13.237379, 779.049989)" fill="none" stroke-linejoin="round" d="M 1537.307626 3328.751297 L 1722.298052 3328.751297 L 1922.529166 2236.71918 " stroke="#0f1d2d" stroke-width="50" stroke-opacity="1" stroke-miterlimit="10"/></g><path fill="#ffffff" d="M 491.207031 230.726562 C 491.207031 267.164062 461.664062 296.691406 425.234375 296.691406 C 388.796875 296.691406 359.261719 267.164062 359.261719 230.726562 C 359.261719 194.289062 388.796875 164.753906 425.234375 164.753906 C 461.664062 164.753906 491.207031 194.289062 491.207031 230.726562 " fill-opacity="1" fill-rule="nonzero"/><g clip-path="url(#6af7dc2edc)"><path stroke-linecap="round" transform="matrix(0.18582, 0, 0, -0.18582, -13.237379, 779.049989)" fill="none" stroke-linejoin="round" d="M 2714.687599 2950.824266 C 2714.687599 2754.734415 2555.700941 2595.831844 2359.653133 2595.831844 C 2163.563282 2595.831844 2004.618667 2754.734415 2004.618667 2950.824266 C 2004.618667 3146.914118 2163.563282 3305.858732 2359.653133 3305.858732 C 2555.700941 3305.858732 2714.687599 3146.914118 2714.687599 2950.824266 Z M 2714.687599 2950.824266 " stroke="#0f1d2d" stroke-width="50" stroke-opacity="1" stroke-miterlimit="10"/></g><path fill="#f26119" d="M 462.617188 264.8125 C 462.667969 264.863281 462.679688 264.921875 462.722656 264.972656 C 476.785156 256.523438 476.132812 238.296875 475.519531 232.476562 L 430.125 232.691406 L 462.617188 264.8125 " fill-opacity="1" fill-rule="nonzero"/><path fill="#f26119" d="M 421.125 229.019531 L 388.628906 196.902344 C 388.351562 196.625 388.214844 196.285156 388.148438 195.933594 C 384.140625 198.316406 373.414062 206.882812 374.835938 229.359375 C 375.027344 229.289062 375.222656 229.238281 375.433594 229.230469 L 421.125 229.019531 " fill-opacity="1" fill-rule="nonzero"/><path fill="#f26119" d="M 430.066406 228.976562 L 475.667969 228.757812 C 476.863281 206.757812 466.316406 198.324219 462.332031 195.941406 C 462.257812 196.074219 462.195312 196.210938 462.085938 196.328125 L 430.066406 228.976562 " fill-opacity="1" fill-rule="nonzero"/><path fill="#f26119" d="M 421.175781 232.738281 L 375.453125 232.945312 C 375.445312 232.945312 375.445312 232.945312 375.445312 232.945312 C 375.257812 232.945312 375.082031 232.894531 374.910156 232.84375 C 374.300781 239.1875 373.9375 257.71875 388.984375 265.660156 C 389.042969 265.566406 389.085938 265.464844 389.164062 265.386719 L 421.175781 232.738281 " fill-opacity="1" fill-rule="nonzero"/><path fill="#f26119" d="M 427.484375 235.304688 L 427.484375 281.035156 C 427.484375 281.078125 427.460938 281.109375 427.460938 281.144531 C 449.535156 282.246094 457.925781 271.613281 460.269531 267.628906 C 460.183594 267.570312 460.082031 267.535156 460.003906 267.453125 L 427.484375 235.304688 " fill-opacity="1" fill-rule="nonzero"/><path fill="#f26119" d="M 423.765625 226.40625 L 423.765625 180.679688 C 423.765625 180.613281 423.796875 180.5625 423.804688 180.496094 C 418.59375 179.910156 399.109375 178.8125 390.589844 193.84375 C 390.828125 193.933594 391.050781 194.0625 391.242188 194.257812 L 423.765625 226.40625 " fill-opacity="1" fill-rule="nonzero"/><path fill="#f26119" d="M 423.765625 235.40625 L 391.816406 267.984375 C 391.574219 268.230469 391.285156 268.363281 390.980469 268.449219 C 393.933594 272.925781 402.71875 282.328125 423.78125 281.113281 C 423.78125 281.085938 423.765625 281.0625 423.765625 281.035156 L 423.765625 235.40625 " fill-opacity="1" fill-rule="nonzero"/><path fill="#f26119" d="M 427.484375 226.304688 L 459.429688 193.730469 C 459.566406 193.589844 459.726562 193.503906 459.886719 193.417969 C 451.503906 179.285156 433.238281 179.863281 427.433594 180.445312 C 427.449219 180.523438 427.484375 180.589844 427.484375 180.679688 L 427.484375 226.304688 " fill-opacity="1" fill-rule="nonzero"/><path fill="#ffd230" d="M 475.519531 232.476562 L 450.972656 232.589844 C 450.761719 238.484375 449.511719 244.277344 447.328125 249.699219 L 462.617188 264.8125 C 462.667969 264.863281 462.679688 264.921875 462.722656 264.972656 C 476.785156 256.523438 476.132812 238.296875 475.519531 232.476562 " fill-opacity="1" fill-rule="nonzero"/><path fill="#ffd230" d="M 462.332031 195.941406 C 462.257812 196.074219 462.195312 196.210938 462.085938 196.328125 L 447.167969 211.542969 C 449.441406 217.015625 450.742188 222.894531 450.972656 228.875 L 475.667969 228.757812 C 476.863281 206.757812 466.316406 198.324219 462.332031 195.941406 " fill-opacity="1" fill-rule="nonzero"/><path fill="#ffd230" d="M 460.003906 267.453125 L 445.695312 253.308594 C 443.292969 258.148438 440.121094 262.613281 436.253906 266.46875 C 433.574219 269.136719 430.683594 271.773438 427.484375 273.804688 L 427.484375 281.035156 C 427.484375 281.078125 427.460938 281.109375 427.460938 281.144531 C 449.535156 282.246094 457.925781 271.613281 460.269531 267.628906 C 460.183594 267.570312 460.082031 267.535156 460.003906 267.453125 " fill-opacity="1" fill-rule="nonzero"/><path fill="#ffd230" d="M 423.765625 186.070312 L 423.765625 180.679688 C 423.765625 180.613281 423.796875 180.5625 423.804688 180.496094 C 421.300781 180.214844 415.484375 179.835938 409.191406 181.164062 C 414.28125 182.050781 419.195312 183.703125 423.765625 186.070312 " fill-opacity="1" fill-rule="nonzero"/><path fill="#ffd230" d="M 423.765625 275.832031 C 419.449219 277.949219 415.753906 279.519531 411.890625 280.5625 C 415.339844 281.121094 419.257812 281.375 423.78125 281.113281 C 423.78125 281.085938 423.765625 281.0625 423.765625 281.035156 L 423.765625 275.832031 " fill-opacity="1" fill-rule="nonzero"/><path fill="#ffd230" d="M 427.433594 180.445312 C 427.449219 180.523438 427.484375 180.589844 427.484375 180.679688 L 427.484375 188.199219 C 430.640625 190.179688 433.589844 192.507812 436.253906 195.171875 C 440.011719 198.933594 443.113281 203.257812 445.5 207.933594 L 459.429688 193.730469 C 459.566406 193.589844 459.726562 193.503906 459.886719 193.417969 C 451.503906 179.285156 433.238281 179.863281 427.433594 180.445312 " fill-opacity="1" fill-rule="nonzero"/><path fill="#ffffff" d="M 362.75 450.066406 L 362.75 587.027344 L 390.835938 587.027344 L 390.835938 450.066406 C 435.765625 440.644531 470.207031 386.71875 470.207031 321.609375 C 470.207031 297.140625 465.34375 274.253906 456.894531 254.722656 L 296.707031 254.722656 C 288.257812 274.253906 283.386719 297.140625 283.386719 321.609375 C 283.386719 386.71875 317.828125 440.644531 362.75 450.066406 " fill-opacity="1" fill-rule="nonzero"/><path stroke-linecap="round" transform="matrix(0.18582, 0, 0, -0.18582, -13.237379, 779.049989)" fill="none" stroke-linejoin="round" d="M 2023.390991 1770.438199 L 2023.390991 1033.377483 L 2174.536578 1033.377483 L 2174.536578 1770.438199 C 2416.327473 1821.142393 2601.675266 2111.346123 2601.675266 2461.734807 C 2601.675266 2593.414355 2575.503325 2716.58014 2530.03352 2821.688336 L 1667.978136 2821.688336 C 1622.50833 2716.58014 1596.294346 2593.414355 1596.294346 2461.734807 C 1596.294346 2111.346123 1781.64214 1821.142393 2023.390991 1770.438199 Z M 2023.390991 1770.438199 " stroke="#0f1d2d" stroke-width="50" stroke-opacity="1" stroke-miterlimit="10"/><path fill="#ffffff" d="M 362.75 450.066406 L 362.75 587.027344 L 390.835938 587.027344 L 390.835938 450.066406 C 435.765625 440.644531 470.207031 386.71875 470.207031 321.609375 C 470.207031 297.140625 465.34375 274.253906 456.894531 254.722656 L 296.707031 254.722656 C 288.257812 274.253906 283.386719 297.140625 283.386719 321.609375 C 283.386719 386.71875 317.828125 440.644531 362.75 450.066406 " fill-opacity="1" fill-rule="nonzero"/><path stroke-linecap="round" transform="matrix(0.18582, 0, 0, -0.18582, -13.237379, 779.049989)" fill="none" stroke-linejoin="round" d="M 2023.390991 1770.438199 L 2023.390991 1033.377483 L 2174.536578 1033.377483 L 2174.536578 1770.438199 C 2416.327473 1821.142393 2601.675266 2111.346123 2601.675266 2461.734807 C 2601.675266 2593.414355 2575.503325 2716.58014 2530.03352 2821.688336 L 1667.978136 2821.688336 C 1622.50833 2716.58014 1596.294346 2593.414355 1596.294346 2461.734807 C 1596.294346 2111.346123 1781.64214 1821.142393 2023.390991 1770.438199 Z M 2023.390991 1770.438199 " stroke="#0f1d2d" stroke-width="50" stroke-opacity="1" stroke-miterlimit="10"/><path fill="#f26119" d="M 439.597656 282.9375 C 446.226562 297.554688 450.042969 314.679688 450.042969 332.992188 C 450.042969 381.726562 423.609375 425.582031 387.800781 429.125 C 382.328125 429.667969 371.25 429.757812 365.785156 429.125 C 330.058594 424.996094 303.558594 381.726562 303.558594 332.992188 C 303.558594 314.679688 307.375 297.554688 313.996094 282.9375 C 313.996094 282.9375 369.777344 294.898438 439.597656 282.9375 " fill-opacity="1" fill-rule="nonzero"/><path fill="#ffd230" d="M 439.597656 282.9375 C 426.628906 285.164062 414.136719 286.550781 402.398438 287.359375 C 403.058594 293.347656 403.488281 299.355469 403.753906 305.34375 C 404.859375 330.429688 406.671875 357.664062 397.855469 381.640625 C 390.492188 401.628906 377.703125 418.78125 357.867188 427.515625 C 360.449219 428.253906 363.085938 428.8125 365.785156 429.125 C 371.25 429.757812 382.328125 429.667969 387.800781 429.125 C 423.609375 425.582031 450.042969 381.726562 450.042969 332.992188 C 450.042969 314.679688 446.226562 297.554688 439.597656 282.9375 " fill-opacity="1" fill-rule="nonzero"/><path fill="#ffffff" d="M 426.582031 607.492188 L 327.015625 607.492188 L 335 586.253906 C 335.015625 586.214844 335.015625 586.179688 335.03125 586.144531 L 335.472656 584.988281 C 336.308594 583.261719 337.839844 582.109375 339.605469 582.109375 L 414.847656 582.109375 C 416.820312 582.109375 418.519531 583.582031 419.246094 585.679688 C 419.257812 585.714844 419.273438 585.773438 419.296875 585.824219 L 426.582031 607.492188 " fill-opacity="1" fill-rule="nonzero"/><g clip-path="url(#2af12039fe)"><path stroke-linecap="round" transform="matrix(0.18582, 0, 0, -0.18582, -13.237379, 779.049989)" fill="none" stroke-linejoin="round" d="M 2366.905599 923.245114 L 1831.085035 923.245114 L 1874.053266 1037.539767 C 1874.137352 1037.749984 1874.137352 1037.939178 1874.221439 1038.128373 L 1876.596884 1044.350778 C 1881.095515 1053.642343 1889.335998 1059.843726 1898.837779 1059.843726 L 2303.756594 1059.843726 C 2314.372522 1059.843726 2323.516935 1051.918568 2327.42696 1040.629948 C 2327.490025 1040.440753 2327.574112 1040.125429 2327.700242 1039.852148 Z M 2366.905599 923.245114 " stroke="#0f1d2d" stroke-width="50" stroke-opacity="1" stroke-miterlimit="10"/></g><path fill="#ffffff" d="M 457.257812 256.464844 C 457.257812 265.261719 421.234375 272.40625 376.804688 272.40625 C 332.359375 272.40625 296.34375 265.261719 296.34375 256.464844 C 296.34375 247.652344 332.359375 240.519531 376.804688 240.519531 C 421.234375 240.519531 457.257812 247.652344 457.257812 256.464844 " fill-opacity="1" fill-rule="nonzero"/><path stroke-linecap="round" transform="matrix(0.18582, 0, 0, -0.18582, -13.237379, 779.049989)" fill="none" stroke-linejoin="round" d="M 2531.988532 2812.312685 C 2531.988532 2764.971953 2338.126975 2726.523375 2099.026849 2726.523375 C 1859.842638 2726.523375 1666.023124 2764.971953 1666.023124 2812.312685 C 1666.023124 2859.737503 1859.842638 2898.123017 2099.026849 2898.123017 C 2338.126975 2898.123017 2531.988532 2859.737503 2531.988532 2812.312685 Z M 2531.988532 2812.312685 " stroke="#0f1d2d" stroke-width="50" stroke-opacity="1" stroke-miterlimit="10"/><path stroke-linecap="round" transform="matrix(0.18582, 0, 0, -0.18582, -13.237379, 779.049989)" fill="none" stroke-linejoin="round" d="M 1810.084418 2522.087933 C 1810.084418 2522.087933 1765.077088 2279.582302 1872.581751 2107.078731 " stroke="#ffffff" stroke-width="50" stroke-opacity="1" stroke-miterlimit="10"/><path fill="#ffffff" d="M 411.796875 365.671875 C 411.796875 372.167969 406.535156 377.4375 400.03125 377.4375 C 393.535156 377.4375 388.265625 372.167969 388.265625 365.671875 C 388.265625 359.175781 393.535156 353.90625 400.03125 353.90625 C 406.535156 353.90625 411.796875 359.175781 411.796875 365.671875 " fill-opacity="1" fill-rule="nonzero"/><path stroke-linecap="round" transform="matrix(0.18582, 0, 0, -0.18582, -13.237379, 779.049989)" fill="none" stroke-linejoin="round" d="M 2287.338694 2224.610716 C 2287.338694 2189.65173 2259.022546 2161.293538 2224.021517 2161.293538 C 2189.062531 2161.293538 2160.704339 2189.65173 2160.704339 2224.610716 C 2160.704339 2259.569702 2189.062531 2287.927893 2224.021517 2287.927893 C 2259.022546 2287.927893 2287.338694 2259.569702 2287.338694 2224.610716 Z M 2287.338694 2224.610716 " stroke="#0f1d2d" stroke-width="40" stroke-opacity="1" stroke-miterlimit="10"/><path fill="#ffffff" d="M 385.476562 395.867188 C 385.476562 400.140625 382.007812 403.613281 377.734375 403.613281 C 373.457031 403.613281 369.996094 400.140625 369.996094 395.867188 C 369.996094 391.589844 373.457031 388.121094 377.734375 388.121094 C 382.007812 388.121094 385.476562 391.589844 385.476562 395.867188 " fill-opacity="1" fill-rule="nonzero"/><path stroke-linecap="round" transform="matrix(0.18582, 0, 0, -0.18582, -13.237379, 779.049989)" fill="none" stroke-linejoin="round" d="M 2145.694889 2062.113444 C 2145.694889 2039.115771 2127.027673 2020.427533 2104.03 2020.427533 C 2081.011305 2020.427533 2062.386132 2039.115771 2062.386132 2062.113444 C 2062.386132 2085.132139 2081.011305 2103.799355 2104.03 2103.799355 C 2127.027673 2103.799355 2145.694889 2085.132139 2145.694889 2062.113444 Z M 2145.694889 2062.113444 " stroke="#0f1d2d" stroke-width="40" stroke-opacity="1" stroke-miterlimit="10"/><path fill="#ffffff" d="M 412.109375 398.652344 C 412.109375 401.730469 409.613281 404.226562 406.535156 404.226562 C 403.457031 404.226562 400.960938 401.730469 400.960938 398.652344 C 400.960938 395.574219 403.457031 393.078125 406.535156 393.078125 C 409.613281 393.078125 412.109375 395.574219 412.109375 398.652344 " fill-opacity="1" fill-rule="nonzero"/><path stroke-linecap="round" transform="matrix(0.18582, 0, 0, -0.18582, -13.237379, 779.049989)" fill="none" stroke-linejoin="round" d="M 2289.020425 2047.125015 C 2289.020425 2030.559964 2275.587598 2017.127136 2259.022546 2017.127136 C 2242.457494 2017.127136 2229.024667 2030.559964 2229.024667 2047.125015 C 2229.024667 2063.690067 2242.457494 2077.122895 2259.022546 2077.122895 C 2275.587598 2077.122895 2289.020425 2063.690067 2289.020425 2047.125015 Z M 2289.020425 2047.125015 " stroke="#0f1d2d" stroke-width="40" stroke-opacity="1" stroke-miterlimit="10"/></svg>