<svg xmlns="http://www.w3.org/2000/svg" xmlns:xlink="http://www.w3.org/1999/xlink" width="1024" zoomAndPan="magnify" viewBox="0 0 768 767.999994" height="1024" preserveAspectRatio="xMidYMid meet" version="1.0"><defs><clipPath id="e0a0f6276d"><path d="M 153 255.261719 L 637 255.261719 L 637 420 L 153 420 Z M 153 255.261719 " clip-rule="nonzero"/></clipPath><clipPath id="836596d584"><path d="M 93.070312 372 L 675 372 L 675 512 L 93.070312 512 Z M 93.070312 372 " clip-rule="nonzero"/></clipPath></defs><rect x="-76.8" width="921.6" fill="#ffffff" y="-76.799999" height="921.599993" fill-opacity="1"/><rect x="-76.8" width="921.6" fill="#ca530e" y="-76.799999" height="921.599993" fill-opacity="1"/><g clip-path="url(#e0a0f6276d)"><path fill="#ffffff" d="M 291.921875 306.035156 C 296.859375 312.382812 294.625 322.144531 288.042969 326.496094 C 283.335938 329.554688 277.929688 328.496094 272.636719 328.140625 C 265.464844 327.671875 258.289062 327.90625 251.234375 328.257812 C 237.003906 328.847656 222.539062 331.667969 208.898438 335.667969 C 201.960938 337.550781 194.90625 339.902344 188.4375 342.839844 C 183.617188 344.957031 178.679688 348.015625 173.152344 346.722656 C 165.390625 344.957031 160.804688 336.375 163.625 328.847656 C 165.859375 323.085938 171.269531 321.203125 176.445312 318.851562 C 179.382812 317.558594 182.441406 316.265625 185.5 315.089844 C 192.203125 312.621094 198.902344 310.386719 205.84375 308.503906 C 219.484375 304.742188 233.359375 302.625 247.472656 301.449219 C 236.300781 294.390625 224.421875 288.511719 211.488281 285.453125 C 204.195312 283.691406 197.023438 282.632812 189.613281 282.164062 C 182.558594 281.691406 175.503906 282.28125 168.566406 282.984375 C 160.921875 283.808594 154.101562 277.8125 153.746094 270.167969 C 153.394531 263.230469 158.921875 257.351562 165.859375 256.527344 C 173.386719 255.703125 180.914062 255.351562 188.554688 255.46875 C 198.199219 255.703125 207.722656 257.230469 217.132812 259.464844 C 231.242188 262.757812 245.238281 268.519531 257.585938 276.28125 C 263.816406 280.28125 270.050781 284.515625 275.574219 289.453125 C 281.339844 294.628906 287.21875 299.917969 291.921875 306.035156 Z M 453.730469 358.246094 C 446.207031 358.128906 440.679688 364.125 440.089844 371.300781 C 439.855469 374.589844 439.03125 377.765625 437.269531 380.589844 C 433.859375 386.351562 427.625 390.113281 420.921875 390.46875 C 413.515625 390.820312 406.578125 387.058594 402.695312 380.707031 C 400.816406 377.648438 398.226562 375.179688 394.699219 374.121094 C 390.347656 372.828125 386.585938 374.238281 382.585938 375.886719 C 377.53125 378.003906 375.648438 383.175781 372.003906 386.820312 C 367.183594 391.644531 359.539062 393.523438 352.953125 392.113281 C 345.78125 390.46875 340.488281 385.644531 337.546875 378.941406 C 336.84375 377.414062 336.492188 375.648438 336.253906 374.003906 C 335.902344 371.652344 336.253906 369.300781 335.667969 367.066406 C 333.785156 359.65625 325.789062 355.304688 318.5 357.65625 C 315.089844 358.835938 312.148438 361.304688 310.621094 364.597656 C 309.324219 367.300781 309.324219 370.125 309.324219 373.179688 C 309.324219 377.296875 310.148438 381.648438 311.441406 385.527344 C 314.148438 393.640625 318.5 400.582031 324.613281 406.578125 C 330.492188 412.339844 338.371094 416.339844 346.367188 418.21875 C 354.363281 420.101562 363.300781 420.101562 371.179688 417.515625 C 375.0625 416.339844 378.824219 414.691406 382.234375 412.574219 C 384.117188 411.398438 385.996094 410.222656 387.644531 408.8125 C 388.347656 408.222656 388.9375 407.636719 389.644531 407.046875 C 390.230469 406.460938 391.523438 407.871094 392.113281 408.339844 C 406.105469 418.691406 424.453125 419.984375 440.089844 412.808594 C 455.613281 405.871094 466.550781 388.9375 466.785156 371.886719 C 466.902344 364.480469 460.90625 358.363281 453.730469 358.246094 Z M 636.238281 269.695312 C 635.417969 266.523438 633.300781 263.699219 630.59375 261.816406 C 628.359375 260.40625 625.890625 259.9375 623.421875 259.582031 C 616.367188 258.527344 609.429688 257.9375 602.371094 257.820312 C 587.085938 257.46875 571.914062 260.40625 557.332031 264.992188 C 543.457031 269.34375 530.167969 276.398438 518.527344 285.101562 C 512.648438 289.453125 506.886719 294.15625 501.828125 299.449219 C 500.417969 300.976562 498.890625 302.386719 497.476562 304.035156 C 494.773438 307.09375 493.597656 311.324219 494.300781 315.324219 C 495.597656 322.378906 501.476562 327.671875 508.765625 327.4375 C 523.113281 326.964844 537.578125 327.4375 551.6875 330.140625 C 566.035156 332.964844 580.148438 336.726562 593.433594 342.722656 C 597.199219 344.371094 600.84375 346.132812 604.488281 347.898438 C 607.429688 349.308594 610.484375 350.25 613.777344 349.777344 C 617.660156 349.191406 621.1875 346.722656 623.1875 343.3125 C 627.066406 336.726562 624.480469 327.90625 617.542969 324.496094 C 614.601562 322.96875 611.542969 321.554688 608.605469 320.144531 C 595.550781 314.265625 582.144531 309.5625 568.269531 306.269531 C 559.449219 304.152344 550.628906 302.742188 541.691406 301.683594 C 547.925781 298.039062 554.277344 294.746094 560.980469 292.15625 C 567.917969 289.570312 574.972656 287.6875 582.261719 286.277344 C 588.730469 284.984375 595.667969 284.394531 602.253906 284.632812 C 606.253906 284.75 610.015625 284.984375 614.015625 285.335938 C 618.484375 285.691406 622.953125 287.335938 627.417969 285.808594 C 634.003906 283.691406 638.003906 276.519531 636.238281 269.695312 Z M 636.238281 269.695312 " fill-opacity="1" fill-rule="nonzero"/></g><g clip-path="url(#836596d584)"><path fill="#ff9ab2" d="M 183.027344 372.710938 C 132.933594 371.769531 94.480469 403.050781 93.773438 439.503906 C 93.070312 475.957031 130.347656 508.648438 180.324219 509.589844 C 230.417969 510.53125 268.875 479.25 269.578125 442.914062 C 270.285156 406.460938 233.125 373.652344 183.027344 372.710938 Z M 587.671875 374.828125 C 637.769531 375.769531 674.929688 408.460938 674.222656 444.914062 C 673.515625 481.367188 635.0625 512.648438 584.96875 511.589844 C 534.871094 510.648438 497.710938 477.957031 498.417969 441.503906 C 499.242188 405.046875 537.695312 373.886719 587.671875 374.828125 Z M 587.671875 374.828125 " fill-opacity="1" fill-rule="nonzero"/></g><path fill="#ffebcd" d="M 151.394531 426.449219 C 151.042969 427.15625 150.574219 427.863281 150.21875 428.683594 C 150.21875 428.566406 150.335938 428.566406 150.335938 428.449219 C 149.984375 429.15625 149.632812 429.980469 149.160156 430.683594 C 149.160156 430.566406 149.277344 430.566406 149.277344 430.449219 C 148.925781 431.15625 148.574219 431.976562 148.222656 432.683594 C 148.222656 432.566406 148.339844 432.566406 148.339844 432.449219 C 147.984375 433.273438 147.75 433.976562 147.398438 434.800781 C 147.398438 434.683594 147.515625 434.683594 147.515625 434.566406 C 147.28125 435.386719 146.925781 436.09375 146.691406 436.917969 C 146.691406 436.800781 146.808594 436.800781 146.808594 436.683594 C 146.574219 437.503906 146.339844 438.210938 145.988281 439.035156 C 145.988281 438.917969 145.988281 438.917969 146.105469 438.796875 C 145.867188 439.621094 145.632812 440.445312 145.398438 441.152344 C 145.398438 441.03125 145.398438 440.914062 145.515625 440.914062 C 145.28125 441.855469 145.046875 442.679688 144.8125 443.621094 C 144.8125 443.503906 144.8125 443.382812 144.929688 443.265625 C 144.691406 444.207031 144.574219 445.148438 144.339844 445.972656 C 144.339844 445.855469 144.339844 445.738281 144.339844 445.617188 C 144.222656 446.558594 144.105469 447.5 143.871094 448.441406 C 143.871094 448.324219 143.871094 448.207031 143.871094 448.089844 C 143.753906 449.027344 143.632812 449.96875 143.515625 450.910156 C 143.515625 450.792969 143.515625 450.675781 143.515625 450.558594 C 143.398438 451.5 143.398438 452.441406 143.28125 453.378906 C 143.28125 453.261719 143.28125 453.144531 143.28125 453.027344 C 143.28125 453.96875 143.28125 454.910156 143.164062 455.851562 C 143.164062 455.730469 143.164062 455.613281 143.164062 455.496094 C 143.164062 458.203125 143.398438 460.90625 141.519531 463.023438 C 139.046875 465.84375 134.816406 466.316406 131.757812 464.082031 C 127.996094 461.257812 128.699219 455.613281 129.054688 451.382812 C 129.523438 444.679688 130.699219 437.859375 133.167969 431.507812 C 134.578125 427.863281 136.109375 424.214844 137.988281 420.804688 C 139.871094 417.515625 142.695312 414.925781 146.808594 415.984375 C 151.394531 417.277344 153.628906 422.453125 151.394531 426.449219 C 151.394531 426.449219 153.277344 423.039062 151.394531 426.449219 Z M 186.558594 426.570312 C 186.203125 427.273438 185.734375 427.980469 185.378906 428.804688 C 185.378906 428.683594 185.5 428.683594 185.5 428.566406 C 185.144531 429.273438 184.792969 430.097656 184.324219 430.800781 C 184.324219 430.683594 184.441406 430.683594 184.441406 430.566406 C 184.085938 431.273438 183.734375 432.09375 183.382812 432.800781 C 183.382812 432.683594 183.5 432.683594 183.5 432.566406 C 183.148438 433.390625 182.910156 434.09375 182.558594 434.917969 C 182.558594 434.800781 182.675781 434.800781 182.675781 434.683594 C 182.441406 435.503906 182.089844 436.210938 181.851562 437.035156 C 181.851562 436.917969 181.96875 436.917969 181.96875 436.800781 C 181.734375 437.621094 181.5 438.328125 181.148438 439.152344 C 181.148438 439.035156 181.148438 439.035156 181.265625 438.917969 C 181.03125 439.738281 180.792969 440.5625 180.558594 441.269531 C 180.558594 441.152344 180.558594 441.03125 180.675781 441.03125 C 180.441406 441.972656 180.207031 442.796875 179.972656 443.738281 C 179.972656 443.621094 179.972656 443.503906 180.089844 443.382812 C 179.855469 444.324219 179.734375 445.265625 179.5 446.089844 C 179.5 445.972656 179.5 445.855469 179.5 445.738281 C 179.382812 446.675781 179.265625 447.617188 179.03125 448.558594 C 179.03125 448.441406 179.03125 448.324219 179.03125 448.207031 C 178.914062 449.148438 178.796875 450.085938 178.679688 451.027344 C 178.679688 450.910156 178.679688 450.792969 178.679688 450.675781 C 178.558594 451.617188 178.558594 452.558594 178.441406 453.496094 C 178.441406 453.378906 178.441406 453.261719 178.441406 453.144531 C 178.441406 454.085938 178.441406 455.027344 178.324219 455.96875 C 178.324219 455.851562 178.324219 455.730469 178.324219 455.613281 C 178.324219 458.320312 178.558594 461.023438 176.679688 463.140625 C 174.210938 465.960938 169.976562 466.433594 166.917969 464.199219 C 163.15625 461.375 163.859375 455.730469 164.214844 451.5 C 164.683594 444.796875 165.859375 437.976562 168.328125 431.625 C 169.742188 427.980469 171.269531 424.335938 173.152344 420.925781 C 175.03125 417.632812 177.855469 415.042969 181.96875 416.21875 C 186.558594 417.394531 188.792969 422.570312 186.558594 426.570312 C 186.558594 426.570312 188.4375 423.160156 186.558594 426.570312 Z M 223.480469 425.746094 C 223.128906 426.449219 222.660156 427.15625 222.304688 427.863281 C 222.304688 427.746094 222.421875 427.746094 222.421875 427.628906 C 222.070312 428.332031 221.71875 429.15625 221.246094 429.859375 C 221.246094 429.742188 221.363281 429.742188 221.363281 429.625 C 221.011719 430.332031 220.660156 431.15625 220.304688 431.859375 C 220.304688 431.742188 220.425781 431.742188 220.425781 431.625 C 220.070312 432.449219 219.835938 433.152344 219.484375 433.976562 C 219.484375 433.859375 219.601562 433.859375 219.601562 433.742188 C 219.367188 434.566406 219.011719 435.269531 218.777344 436.09375 C 218.777344 435.976562 218.894531 435.976562 218.894531 435.859375 C 218.660156 436.683594 218.425781 437.386719 218.070312 438.210938 C 218.070312 438.09375 218.070312 438.09375 218.191406 437.976562 C 217.953125 438.796875 217.71875 439.621094 217.484375 440.328125 C 217.484375 440.210938 217.484375 440.09375 217.601562 440.09375 C 217.367188 441.03125 217.132812 441.855469 216.894531 442.796875 C 216.894531 442.679688 216.894531 442.5625 217.015625 442.445312 C 216.777344 443.382812 216.660156 444.324219 216.425781 445.148438 C 216.425781 445.03125 216.425781 444.914062 216.425781 444.796875 C 216.308594 445.738281 216.191406 446.675781 215.957031 447.617188 C 215.957031 447.5 215.957031 447.382812 215.957031 447.265625 C 215.839844 448.207031 215.71875 449.148438 215.601562 450.085938 C 215.601562 449.96875 215.601562 449.851562 215.601562 449.734375 C 215.484375 450.675781 215.484375 451.617188 215.367188 452.558594 C 215.367188 452.441406 215.367188 452.320312 215.367188 452.203125 C 215.367188 453.144531 215.367188 454.085938 215.25 455.027344 C 215.25 454.910156 215.25 454.792969 215.25 454.671875 C 215.25 457.378906 215.484375 459.964844 213.605469 462.199219 C 211.132812 465.023438 206.902344 465.492188 203.84375 463.257812 C 200.082031 460.4375 200.902344 454.792969 201.136719 450.558594 C 201.609375 443.855469 202.785156 437.035156 205.253906 430.683594 C 206.664062 427.039062 208.195312 423.394531 210.074219 419.984375 C 211.957031 416.691406 214.78125 414.105469 218.894531 415.28125 C 223.597656 416.574219 225.714844 421.746094 223.480469 425.746094 C 223.480469 425.746094 225.363281 422.335938 223.480469 425.746094 Z M 621.65625 416.925781 C 630.359375 427.746094 635.886719 440.09375 638.003906 453.851562 C 638.710938 458.789062 634.242188 463.023438 629.300781 461.964844 C 624.949219 460.90625 624.007812 457.144531 623.421875 453.378906 C 623.421875 453.496094 623.421875 453.617188 623.421875 453.734375 C 623.1875 452.792969 623.070312 451.851562 622.832031 451.027344 C 622.832031 451.144531 622.832031 451.261719 622.953125 451.382812 C 622.714844 450.441406 622.480469 449.617188 622.246094 448.675781 C 622.246094 448.792969 622.246094 448.910156 622.363281 449.027344 C 622.128906 448.089844 621.894531 447.265625 621.539062 446.324219 C 621.539062 446.441406 621.65625 446.558594 621.65625 446.558594 C 621.304688 445.617188 621.070312 444.796875 620.71875 443.855469 C 620.71875 443.972656 620.835938 444.089844 620.835938 444.089844 C 620.480469 443.265625 620.128906 442.328125 619.777344 441.503906 C 619.777344 441.621094 619.894531 441.738281 619.894531 441.738281 C 619.542969 440.914062 619.1875 439.972656 618.71875 439.152344 C 618.71875 439.269531 618.835938 439.269531 618.835938 439.386719 C 618.484375 438.679688 618.128906 437.859375 617.777344 437.152344 C 617.777344 437.269531 617.894531 437.269531 617.894531 437.386719 C 617.542969 436.683594 617.070312 435.976562 616.71875 435.152344 C 616.71875 435.269531 616.835938 435.269531 616.835938 435.386719 C 616.367188 434.683594 616.011719 433.976562 615.542969 433.273438 C 615.542969 433.390625 615.660156 433.390625 615.660156 433.507812 C 615.191406 432.800781 614.71875 432.09375 614.367188 431.390625 C 614.367188 431.507812 614.484375 431.507812 614.484375 431.625 C 614.015625 430.917969 613.542969 430.214844 613.074219 429.625 C 613.074219 429.742188 613.191406 429.742188 613.191406 429.859375 C 612.71875 429.15625 612.25 428.566406 611.664062 427.863281 C 611.664062 427.980469 611.78125 427.980469 611.78125 428.097656 C 609.429688 425.15625 607.429688 421.984375 609.546875 418.21875 C 612.367188 413.632812 618.601562 413.164062 621.65625 416.925781 C 621.65625 416.925781 619.1875 413.867188 621.65625 416.925781 Z M 586.96875 423.039062 C 595.667969 433.859375 601.195312 446.207031 603.3125 459.847656 C 604.019531 464.785156 599.550781 469.019531 594.609375 467.960938 C 590.261719 466.902344 589.320312 463.140625 588.730469 459.378906 C 588.730469 459.496094 588.730469 459.613281 588.730469 459.730469 C 588.496094 458.789062 588.378906 457.847656 588.144531 457.027344 C 588.144531 457.144531 588.144531 457.261719 588.261719 457.378906 C 588.027344 456.4375 587.789062 455.613281 587.554688 454.671875 C 587.554688 454.792969 587.554688 454.910156 587.671875 455.027344 C 587.4375 454.085938 587.203125 453.261719 586.851562 452.320312 C 586.851562 452.441406 586.851562 452.558594 586.96875 452.558594 C 586.613281 451.617188 586.378906 450.792969 586.027344 449.851562 C 586.027344 449.96875 586.144531 450.085938 586.144531 450.085938 C 585.792969 449.265625 585.4375 448.324219 585.085938 447.5 C 585.085938 447.617188 585.203125 447.734375 585.203125 447.734375 C 584.851562 446.914062 584.496094 445.972656 584.027344 445.148438 C 584.027344 445.265625 584.144531 445.265625 584.144531 445.382812 C 583.792969 444.679688 583.441406 443.855469 583.085938 443.148438 C 583.085938 443.265625 583.203125 443.265625 583.203125 443.382812 C 582.851562 442.679688 582.382812 441.972656 582.027344 441.152344 C 582.027344 441.269531 582.144531 441.269531 582.144531 441.386719 C 581.675781 440.679688 581.324219 439.972656 580.851562 439.269531 C 580.851562 439.386719 580.96875 439.386719 580.96875 439.503906 C 580.5 438.796875 580.027344 438.09375 579.675781 437.386719 C 579.675781 437.503906 579.792969 437.503906 579.792969 437.621094 C 579.324219 436.917969 578.851562 436.210938 578.382812 435.625 C 578.382812 435.742188 578.5 435.742188 578.5 435.859375 C 578.03125 435.152344 577.558594 434.566406 576.972656 433.859375 C 576.972656 433.976562 577.089844 433.976562 577.089844 434.09375 C 574.738281 431.15625 572.738281 427.980469 574.855469 424.214844 C 577.675781 419.75 583.910156 419.277344 586.96875 423.039062 C 586.96875 423.039062 584.496094 419.984375 586.96875 423.039062 Z M 550.511719 428.566406 C 559.214844 439.386719 564.742188 451.734375 566.859375 465.492188 C 567.5625 470.429688 563.09375 474.664062 558.15625 473.605469 C 553.804688 472.546875 552.863281 468.785156 552.277344 465.023438 C 552.277344 465.140625 552.277344 465.257812 552.277344 465.375 C 552.042969 464.433594 551.925781 463.492188 551.6875 462.671875 C 551.6875 462.789062 551.6875 462.90625 551.804688 463.023438 C 551.570312 462.082031 551.335938 461.140625 551.101562 460.320312 C 551.101562 460.4375 551.101562 460.554688 551.21875 460.671875 C 550.984375 459.730469 550.75 458.90625 550.394531 457.964844 C 550.394531 458.085938 550.394531 458.203125 550.511719 458.203125 C 550.160156 457.261719 549.925781 456.4375 549.570312 455.496094 C 549.570312 455.613281 549.691406 455.730469 549.691406 455.730469 C 549.335938 454.910156 548.984375 453.96875 548.632812 453.144531 C 548.632812 453.261719 548.75 453.378906 548.75 453.378906 C 548.394531 452.558594 548.042969 451.617188 547.574219 450.792969 C 547.574219 450.910156 547.691406 450.910156 547.691406 451.027344 C 547.335938 450.324219 546.984375 449.5 546.632812 448.792969 C 546.632812 448.910156 546.75 448.910156 546.75 449.027344 C 546.398438 448.324219 545.925781 447.617188 545.574219 446.796875 C 545.574219 446.914062 545.691406 446.914062 545.691406 447.03125 C 545.222656 446.324219 544.867188 445.617188 544.398438 444.914062 C 544.398438 445.03125 544.515625 445.03125 544.515625 445.148438 C 544.046875 444.441406 543.574219 443.738281 543.222656 443.03125 C 543.222656 443.148438 543.339844 443.148438 543.339844 443.265625 C 542.871094 442.5625 542.398438 441.855469 541.929688 441.269531 C 541.929688 441.386719 542.046875 441.386719 542.046875 441.503906 C 541.574219 440.796875 541.105469 440.210938 540.515625 439.503906 C 540.515625 439.621094 540.636719 439.621094 540.636719 439.738281 C 538.28125 436.800781 536.285156 433.625 538.402344 429.859375 C 541.105469 425.273438 547.335938 424.6875 550.511719 428.566406 C 550.511719 428.566406 548.042969 425.511719 550.511719 428.566406 Z M 550.511719 428.566406 " fill-opacity="1" fill-rule="nonzero"/></svg>