<svg xmlns="http://www.w3.org/2000/svg" xmlns:xlink="http://www.w3.org/1999/xlink" width="1024" zoomAndPan="magnify" viewBox="0 0 768 767.999994" height="1024" preserveAspectRatio="xMidYMid meet" version="1.0"><defs><clipPath id="54f86f5ad1"><path d="M 735.636719 817.125 L 24.789062 817.125 C -4.492188 817.125 -28.347656 793.265625 -28.347656 763.988281 L -28.347656 53.136719 C -28.347656 23.859375 -4.492188 0 24.789062 0 L 735.636719 0 C 764.917969 0 788.777344 23.859375 788.777344 53.136719 L 788.777344 763.988281 C 788.777344 793.265625 764.917969 817.125 735.636719 817.125 Z M 735.636719 817.125 " clip-rule="nonzero"/></clipPath><clipPath id="e5190f38cf"><path d="M 216 155.003906 L 551.972656 155.003906 L 551.972656 613 L 216 613 Z M 216 155.003906 " clip-rule="nonzero"/></clipPath></defs><rect x="-76.8" width="921.6" fill="#ffffff" y="-76.799999" height="921.599993" fill-opacity="1"/><rect x="-76.8" width="921.6" fill="#fff5e6" y="-76.799999" height="921.599993" fill-opacity="1"/><g clip-path="url(#54f86f5ad1)"><rect x="-76.8" width="921.6" fill="#ca530e" y="-76.799999" height="921.599993" fill-opacity="1"/></g><g clip-path="url(#e5190f38cf)"><path fill="#fff5e6" d="M 551.925781 375.847656 L 551.925781 376.882812 C 551.925781 377.617188 551.890625 378.347656 551.816406 379.078125 C 551.746094 379.804688 551.636719 380.53125 551.492188 381.25 C 551.347656 381.96875 551.171875 382.675781 550.957031 383.378906 C 550.742188 384.078125 550.496094 384.769531 550.214844 385.445312 C 549.933594 386.121094 549.621094 386.785156 549.277344 387.429688 C 548.929688 388.078125 548.554688 388.703125 548.144531 389.3125 C 547.738281 389.921875 547.300781 390.511719 546.835938 391.078125 C 546.371094 391.644531 545.882812 392.183594 545.363281 392.703125 C 544.84375 393.222656 544.300781 393.714844 543.734375 394.179688 C 543.167969 394.644531 542.582031 395.078125 541.972656 395.488281 C 541.363281 395.894531 540.734375 396.269531 540.089844 396.617188 C 539.441406 396.960938 538.78125 397.273438 538.105469 397.554688 C 537.425781 397.835938 536.738281 398.082031 536.035156 398.296875 C 535.335938 398.507812 534.625 398.6875 533.90625 398.832031 C 533.1875 398.976562 532.464844 399.082031 531.734375 399.15625 C 531.007812 399.226562 530.273438 399.265625 529.542969 399.265625 L 345.316406 399.265625 C 344.582031 399.265625 343.851562 399.226562 343.125 399.15625 C 342.394531 399.082031 341.671875 398.976562 340.953125 398.832031 C 340.234375 398.6875 339.523438 398.507812 338.820312 398.296875 C 338.121094 398.082031 337.429688 397.835938 336.753906 397.554688 C 336.078125 397.273438 335.414062 396.960938 334.769531 396.617188 C 334.125 396.269531 333.496094 395.894531 332.886719 395.488281 C 332.277344 395.078125 331.6875 394.644531 331.121094 394.179688 C 330.554688 393.714844 330.015625 393.222656 329.496094 392.703125 C 328.976562 392.183594 328.484375 391.644531 328.019531 391.078125 C 327.554688 390.511719 327.121094 389.921875 326.710938 389.3125 C 326.304688 388.703125 325.929688 388.078125 325.582031 387.429688 C 325.238281 386.785156 324.921875 386.121094 324.640625 385.445312 C 324.363281 384.769531 324.113281 384.078125 323.902344 383.378906 C 323.6875 382.675781 323.507812 381.96875 323.367188 381.25 C 323.222656 380.53125 323.113281 379.804688 323.042969 379.078125 C 322.96875 378.347656 322.933594 377.617188 322.929688 376.882812 L 322.929688 375.847656 C 322.933594 375.113281 322.96875 374.382812 323.042969 373.65625 C 323.113281 372.925781 323.222656 372.203125 323.367188 371.484375 C 323.507812 370.765625 323.6875 370.054688 323.902344 369.351562 C 324.113281 368.652344 324.363281 367.964844 324.640625 367.285156 C 324.921875 366.609375 325.238281 365.949219 325.582031 365.300781 C 325.929688 364.65625 326.304688 364.027344 326.710938 363.417969 C 327.121094 362.808594 327.554688 362.222656 328.019531 361.65625 C 328.484375 361.089844 328.976562 360.546875 329.496094 360.027344 C 330.015625 359.511719 330.554688 359.019531 331.121094 358.554688 C 331.6875 358.089844 332.277344 357.652344 332.886719 357.246094 C 333.496094 356.835938 334.125 356.460938 334.769531 356.117188 C 335.414062 355.769531 336.078125 355.457031 336.753906 355.175781 C 337.429688 354.894531 338.121094 354.648438 338.820312 354.433594 C 339.523438 354.222656 340.234375 354.042969 340.953125 353.898438 C 341.671875 353.757812 342.394531 353.648438 343.125 353.574219 C 343.851562 353.503906 344.582031 353.46875 345.316406 353.464844 L 529.542969 353.464844 C 530.273438 353.46875 531.007812 353.503906 531.734375 353.574219 C 532.464844 353.648438 533.1875 353.757812 533.90625 353.898438 C 534.625 354.042969 535.335938 354.222656 536.035156 354.433594 C 536.738281 354.648438 537.425781 354.894531 538.105469 355.175781 C 538.78125 355.457031 539.441406 355.769531 540.089844 356.117188 C 540.734375 356.460938 541.363281 356.835938 541.972656 357.246094 C 542.582031 357.652344 543.167969 358.089844 543.734375 358.554688 C 544.300781 359.019531 544.84375 359.511719 545.363281 360.027344 C 545.882812 360.546875 546.371094 361.089844 546.835938 361.65625 C 547.300781 362.222656 547.738281 362.808594 548.144531 363.417969 C 548.554688 364.027344 548.929688 364.65625 549.277344 365.300781 C 549.621094 365.949219 549.933594 366.609375 550.214844 367.285156 C 550.496094 367.964844 550.742188 368.652344 550.957031 369.351562 C 551.171875 370.054688 551.347656 370.765625 551.492188 371.484375 C 551.636719 372.203125 551.746094 372.925781 551.816406 373.65625 C 551.890625 374.382812 551.925781 375.113281 551.925781 375.847656 Z M 452.695312 277.132812 L 422.164062 277.132812 C 419.984375 277.136719 417.808594 277.234375 415.640625 277.425781 C 413.46875 277.613281 411.3125 277.898438 409.167969 278.269531 C 407.019531 278.644531 404.894531 279.109375 402.789062 279.664062 C 400.679688 280.21875 398.601562 280.863281 396.550781 281.597656 C 394.5 282.332031 392.484375 283.152344 390.503906 284.054688 C 388.519531 284.960938 386.582031 285.949219 384.683594 287.019531 C 382.789062 288.089844 380.941406 289.242188 379.140625 290.46875 C 377.34375 291.699219 375.601562 293 373.914062 294.378906 C 372.226562 295.757812 370.597656 297.203125 369.035156 298.71875 C 367.472656 300.234375 365.976562 301.816406 364.546875 303.460938 C 363.117188 305.105469 361.761719 306.804688 360.476562 308.566406 C 359.195312 310.328125 357.988281 312.136719 356.859375 314 C 355.730469 315.863281 354.683594 317.769531 353.714844 319.722656 C 352.75 321.675781 351.867188 323.667969 351.074219 325.695312 C 350.277344 327.722656 349.570312 329.78125 348.949219 331.867188 C 348.328125 333.957031 347.796875 336.066406 347.359375 338.199219 L 527.5 338.199219 C 527.0625 336.066406 526.53125 333.957031 525.910156 331.867188 C 525.289062 329.78125 524.582031 327.722656 523.785156 325.695312 C 522.988281 323.667969 522.109375 321.675781 521.144531 319.722656 C 520.175781 317.769531 519.128906 315.863281 518 314 C 516.871094 312.136719 515.664062 310.328125 514.382812 308.566406 C 513.097656 306.804688 511.742188 305.105469 510.3125 303.460938 C 508.882812 301.816406 507.386719 300.234375 505.824219 298.71875 C 504.257812 297.203125 502.632812 295.757812 500.945312 294.378906 C 499.257812 293 497.515625 291.699219 495.714844 290.46875 C 493.917969 289.242188 492.070312 288.089844 490.171875 287.019531 C 488.277344 285.949219 486.335938 284.960938 484.355469 284.054688 C 482.375 283.152344 480.359375 282.332031 478.308594 281.597656 C 476.253906 280.863281 474.175781 280.21875 472.070312 279.664062 C 469.964844 279.109375 467.839844 278.644531 465.691406 278.269531 C 463.546875 277.898438 461.386719 277.613281 459.21875 277.425781 C 457.046875 277.234375 454.875 277.136719 452.695312 277.132812 Z M 414.53125 223.703125 L 414.53125 232.105469 C 417.046875 231.59375 419.59375 231.335938 422.164062 231.335938 L 452.695312 231.335938 C 455.265625 231.335938 457.808594 231.59375 460.328125 232.105469 L 460.328125 223.703125 C 460.328125 222.578125 460.296875 221.453125 460.242188 220.332031 C 460.1875 219.210938 460.101562 218.089844 459.992188 216.96875 C 459.878906 215.851562 459.742188 214.738281 459.574219 213.625 C 459.410156 212.515625 459.214844 211.40625 458.996094 210.304688 C 458.777344 209.203125 458.527344 208.105469 458.253906 207.015625 C 457.980469 205.925781 457.679688 204.84375 457.351562 203.769531 C 457.027344 202.691406 456.671875 201.625 456.292969 200.566406 C 455.914062 199.511719 455.507812 198.460938 455.078125 197.425781 C 454.648438 196.386719 454.191406 195.359375 453.710938 194.34375 C 453.230469 193.328125 452.722656 192.324219 452.195312 191.332031 C 451.664062 190.339844 451.109375 189.363281 450.53125 188.402344 C 449.953125 187.4375 449.351562 186.488281 448.726562 185.554688 C 448.101562 184.617188 447.457031 183.699219 446.785156 182.796875 C 446.117188 181.894531 445.425781 181.007812 444.710938 180.140625 C 444 179.273438 443.265625 178.421875 442.507812 177.589844 C 441.753906 176.753906 440.980469 175.941406 440.183594 175.148438 C 439.390625 174.351562 438.578125 173.578125 437.742188 172.824219 C 436.910156 172.066406 436.058594 171.332031 435.191406 170.621094 C 434.324219 169.90625 433.4375 169.214844 432.535156 168.546875 C 431.632812 167.875 430.714844 167.230469 429.777344 166.605469 C 428.84375 165.980469 427.894531 165.378906 426.929688 164.800781 C 425.96875 164.222656 424.988281 163.667969 424 163.136719 C 423.007812 162.605469 422.003906 162.101562 420.988281 161.621094 C 419.972656 161.140625 418.945312 160.683594 417.90625 160.253906 C 416.871094 159.824219 415.820312 159.417969 414.765625 159.039062 C 413.707031 158.660156 412.640625 158.304688 411.5625 157.976562 C 410.488281 157.652344 409.40625 157.351562 408.316406 157.078125 C 407.226562 156.804688 406.128906 156.554688 405.027344 156.335938 C 403.925781 156.117188 402.816406 155.921875 401.707031 155.757812 C 400.59375 155.589844 399.480469 155.453125 398.359375 155.339844 C 397.242188 155.230469 396.121094 155.144531 395 155.089844 C 393.878906 155.03125 392.753906 155.003906 391.628906 155.003906 L 284.765625 155.003906 C 283.640625 155.003906 282.519531 155.03125 281.394531 155.089844 C 280.273438 155.144531 279.152344 155.230469 278.035156 155.339844 C 276.914062 155.453125 275.800781 155.589844 274.6875 155.757812 C 273.578125 155.921875 272.46875 156.117188 271.367188 156.335938 C 270.265625 156.554688 269.167969 156.804688 268.078125 157.078125 C 266.988281 157.351562 265.90625 157.652344 264.832031 157.976562 C 263.757812 158.304688 262.691406 158.660156 261.632812 159.039062 C 260.574219 159.417969 259.527344 159.824219 258.488281 160.253906 C 257.449219 160.683594 256.421875 161.140625 255.40625 161.621094 C 254.390625 162.101562 253.386719 162.605469 252.394531 163.136719 C 251.40625 163.667969 250.425781 164.222656 249.464844 164.800781 C 248.5 165.378906 247.550781 165.980469 246.617188 166.605469 C 245.683594 167.230469 244.761719 167.875 243.859375 168.546875 C 242.957031 169.214844 242.074219 169.90625 241.203125 170.621094 C 240.335938 171.332031 239.484375 172.066406 238.652344 172.824219 C 237.820312 173.578125 237.003906 174.351562 236.210938 175.148438 C 235.414062 175.941406 234.640625 176.753906 233.886719 177.589844 C 233.132812 178.421875 232.398438 179.273438 231.683594 180.140625 C 230.972656 181.007812 230.28125 181.894531 229.609375 182.796875 C 228.941406 183.699219 228.292969 184.617188 227.667969 185.554688 C 227.042969 186.488281 226.441406 187.4375 225.863281 188.402344 C 225.285156 189.363281 224.730469 190.339844 224.199219 191.332031 C 223.671875 192.324219 223.164062 193.328125 222.683594 194.34375 C 222.203125 195.359375 221.746094 196.386719 221.316406 197.425781 C 220.886719 198.460938 220.480469 199.511719 220.101562 200.566406 C 219.722656 201.625 219.367188 202.691406 219.042969 203.769531 C 218.714844 204.84375 218.414062 205.925781 218.140625 207.015625 C 217.867188 208.105469 217.621094 209.203125 217.398438 210.304688 C 217.179688 211.40625 216.984375 212.515625 216.820312 213.625 C 216.652344 214.738281 216.515625 215.851562 216.402344 216.96875 C 216.292969 218.089844 216.210938 219.210938 216.152344 220.332031 C 216.097656 221.453125 216.066406 222.578125 216.066406 223.703125 L 216.066406 605.363281 C 216.066406 605.863281 216.113281 606.359375 216.210938 606.851562 C 216.308594 607.34375 216.457031 607.820312 216.648438 608.285156 C 216.839844 608.746094 217.074219 609.1875 217.351562 609.601562 C 217.628906 610.019531 217.945312 610.40625 218.300781 610.761719 C 218.65625 611.113281 219.042969 611.429688 219.457031 611.710938 C 219.875 611.988281 220.316406 612.222656 220.777344 612.414062 C 221.242188 612.605469 221.71875 612.75 222.210938 612.847656 C 222.703125 612.945312 223.199219 612.996094 223.699219 612.996094 L 254.230469 612.996094 C 254.734375 612.996094 255.230469 612.945312 255.722656 612.847656 C 256.214844 612.75 256.691406 612.605469 257.152344 612.414062 C 257.617188 612.222656 258.058594 611.988281 258.472656 611.710938 C 258.890625 611.429688 259.277344 611.113281 259.628906 610.761719 C 259.984375 610.40625 260.300781 610.019531 260.578125 609.601562 C 260.859375 609.1875 261.09375 608.746094 261.285156 608.285156 C 261.476562 607.820312 261.621094 607.34375 261.71875 606.851562 C 261.816406 606.359375 261.867188 605.863281 261.867188 605.363281 L 261.867188 223.703125 C 261.867188 222.953125 261.902344 222.203125 261.976562 221.457031 C 262.050781 220.710938 262.164062 219.972656 262.308594 219.234375 C 262.457031 218.5 262.640625 217.773438 262.855469 217.058594 C 263.074219 216.339844 263.328125 215.636719 263.617188 214.941406 C 263.902344 214.25 264.222656 213.574219 264.578125 212.910156 C 264.929688 212.25 265.316406 211.609375 265.734375 210.984375 C 266.148438 210.363281 266.59375 209.761719 267.070312 209.179688 C 267.546875 208.601562 268.050781 208.046875 268.578125 207.515625 C 269.109375 206.988281 269.664062 206.484375 270.246094 206.007812 C 270.824219 205.53125 271.425781 205.085938 272.046875 204.667969 C 272.671875 204.253906 273.3125 203.867188 273.976562 203.511719 C 274.636719 203.160156 275.3125 202.839844 276.003906 202.550781 C 276.699219 202.265625 277.402344 202.011719 278.121094 201.792969 C 278.839844 201.574219 279.5625 201.394531 280.300781 201.246094 C 281.035156 201.097656 281.773438 200.988281 282.519531 200.914062 C 283.265625 200.839844 284.015625 200.804688 284.765625 200.800781 L 391.628906 200.800781 C 392.378906 200.804688 393.128906 200.839844 393.875 200.914062 C 394.621094 200.988281 395.359375 201.097656 396.097656 201.246094 C 396.832031 201.394531 397.558594 201.574219 398.273438 201.792969 C 398.992188 202.011719 399.695312 202.265625 400.390625 202.550781 C 401.082031 202.839844 401.757812 203.160156 402.417969 203.511719 C 403.082031 203.867188 403.722656 204.253906 404.347656 204.667969 C 404.96875 205.085938 405.570312 205.53125 406.152344 206.007812 C 406.730469 206.484375 407.285156 206.988281 407.816406 207.515625 C 408.34375 208.046875 408.847656 208.601562 409.324219 209.179688 C 409.800781 209.761719 410.246094 210.363281 410.664062 210.984375 C 411.078125 211.609375 411.464844 212.25 411.820312 212.910156 C 412.171875 213.574219 412.492188 214.25 412.78125 214.941406 C 413.066406 215.636719 413.320312 216.339844 413.539062 217.058594 C 413.757812 217.773438 413.9375 218.5 414.085938 219.234375 C 414.230469 219.972656 414.34375 220.710938 414.417969 221.457031 C 414.492188 222.203125 414.527344 222.953125 414.53125 223.703125 Z M 452.695312 246.601562 L 422.164062 246.601562 C 420.867188 246.605469 419.582031 246.71875 418.304688 246.941406 C 417.027344 247.160156 415.78125 247.488281 414.558594 247.921875 C 413.335938 248.355469 412.160156 248.886719 411.03125 249.519531 C 409.898438 250.148438 408.828125 250.871094 407.820312 251.683594 C 406.8125 252.496094 405.878906 253.390625 405.019531 254.359375 C 404.160156 255.332031 403.390625 256.367188 402.707031 257.46875 C 402.023438 258.566406 401.4375 259.71875 400.949219 260.917969 C 400.460938 262.117188 400.078125 263.351562 399.796875 264.617188 C 407.136719 262.761719 414.59375 261.84375 422.164062 261.867188 L 452.695312 261.867188 C 460.265625 261.84375 467.722656 262.761719 475.0625 264.617188 C 474.78125 263.351562 474.398438 262.117188 473.910156 260.917969 C 473.421875 259.71875 472.835938 258.566406 472.152344 257.46875 C 471.46875 256.367188 470.699219 255.332031 469.839844 254.359375 C 468.980469 253.390625 468.046875 252.496094 467.039062 251.683594 C 466.03125 250.871094 464.960938 250.148438 463.828125 249.519531 C 462.699219 248.886719 461.519531 248.355469 460.300781 247.921875 C 459.078125 247.488281 457.832031 247.160156 456.554688 246.941406 C 455.277344 246.71875 453.992188 246.605469 452.695312 246.601562 Z M 376.363281 445.066406 L 376.363281 429.796875 C 376.363281 429.296875 376.316406 428.800781 376.21875 428.308594 C 376.121094 427.816406 375.972656 427.339844 375.78125 426.878906 C 375.589844 426.414062 375.355469 425.972656 375.078125 425.558594 C 374.796875 425.140625 374.480469 424.753906 374.128906 424.402344 C 373.773438 424.046875 373.386719 423.730469 372.972656 423.453125 C 372.554688 423.171875 372.113281 422.9375 371.652344 422.746094 C 371.1875 422.554688 370.710938 422.410156 370.21875 422.3125 C 369.726562 422.214844 369.230469 422.164062 368.730469 422.164062 C 368.230469 422.164062 367.734375 422.214844 367.242188 422.3125 C 366.75 422.410156 366.273438 422.554688 365.808594 422.746094 C 365.347656 422.9375 364.90625 423.171875 364.488281 423.453125 C 364.074219 423.730469 363.6875 424.046875 363.332031 424.402344 C 362.980469 424.753906 362.660156 425.140625 362.382812 425.558594 C 362.105469 425.972656 361.871094 426.414062 361.679688 426.878906 C 361.488281 427.339844 361.339844 427.816406 361.242188 428.308594 C 361.144531 428.800781 361.097656 429.296875 361.097656 429.796875 L 361.097656 445.066406 C 361.097656 445.566406 361.144531 446.0625 361.242188 446.554688 C 361.339844 447.046875 361.488281 447.523438 361.679688 447.984375 C 361.871094 448.449219 362.105469 448.886719 362.382812 449.304688 C 362.660156 449.722656 362.980469 450.109375 363.332031 450.460938 C 363.6875 450.816406 364.074219 451.132812 364.488281 451.410156 C 364.90625 451.691406 365.347656 451.925781 365.808594 452.117188 C 366.273438 452.308594 366.75 452.453125 367.242188 452.550781 C 367.734375 452.648438 368.230469 452.699219 368.730469 452.699219 C 369.230469 452.699219 369.726562 452.648438 370.21875 452.550781 C 370.710938 452.453125 371.1875 452.308594 371.652344 452.117188 C 372.113281 451.925781 372.554688 451.691406 372.972656 451.410156 C 373.386719 451.132812 373.773438 450.816406 374.128906 450.460938 C 374.480469 450.109375 374.796875 449.722656 375.078125 449.304688 C 375.355469 448.886719 375.589844 448.449219 375.78125 447.984375 C 375.972656 447.523438 376.121094 447.046875 376.21875 446.554688 C 376.316406 446.0625 376.363281 445.566406 376.363281 445.066406 Z M 399.261719 490.863281 L 399.261719 475.597656 C 399.261719 475.097656 399.214844 474.601562 399.117188 474.109375 C 399.019531 473.617188 398.875 473.140625 398.683594 472.675781 C 398.492188 472.214844 398.253906 471.773438 397.976562 471.355469 C 397.699219 470.941406 397.382812 470.554688 397.027344 470.199219 C 396.671875 469.84375 396.289062 469.527344 395.871094 469.25 C 395.453125 468.972656 395.015625 468.738281 394.550781 468.546875 C 394.089844 468.351562 393.609375 468.207031 393.121094 468.109375 C 392.628906 468.011719 392.132812 467.964844 391.628906 467.964844 C 391.128906 467.964844 390.632812 468.011719 390.140625 468.109375 C 389.648438 468.207031 389.171875 468.351562 388.707031 468.546875 C 388.246094 468.738281 387.804688 468.972656 387.390625 469.25 C 386.972656 469.527344 386.585938 469.84375 386.234375 470.199219 C 385.878906 470.554688 385.5625 470.941406 385.285156 471.355469 C 385.003906 471.773438 384.769531 472.214844 384.578125 472.675781 C 384.386719 473.140625 384.242188 473.617188 384.144531 474.109375 C 384.046875 474.601562 383.996094 475.097656 383.996094 475.597656 L 383.996094 490.863281 C 383.996094 491.363281 384.046875 491.863281 384.144531 492.351562 C 384.242188 492.84375 384.386719 493.320312 384.578125 493.785156 C 384.769531 494.246094 385.003906 494.6875 385.285156 495.105469 C 385.5625 495.519531 385.878906 495.90625 386.234375 496.261719 C 386.585938 496.617188 386.972656 496.933594 387.390625 497.210938 C 387.804688 497.488281 388.246094 497.722656 388.707031 497.914062 C 389.171875 498.109375 389.648438 498.253906 390.140625 498.351562 C 390.632812 498.449219 391.128906 498.496094 391.628906 498.496094 C 392.132812 498.496094 392.628906 498.449219 393.121094 498.351562 C 393.609375 498.253906 394.089844 498.109375 394.550781 497.914062 C 395.015625 497.722656 395.453125 497.488281 395.871094 497.210938 C 396.289062 496.933594 396.671875 496.617188 397.027344 496.261719 C 397.382812 495.90625 397.699219 495.519531 397.976562 495.105469 C 398.253906 494.6875 398.492188 494.246094 398.683594 493.785156 C 398.875 493.320312 399.019531 492.84375 399.117188 492.351562 C 399.214844 491.863281 399.261719 491.363281 399.261719 490.863281 Z M 422.164062 445.066406 L 422.164062 429.796875 C 422.164062 429.296875 422.113281 428.800781 422.015625 428.308594 C 421.917969 427.816406 421.773438 427.339844 421.582031 426.878906 C 421.390625 426.414062 421.15625 425.972656 420.875 425.558594 C 420.597656 425.140625 420.28125 424.753906 419.925781 424.402344 C 419.574219 424.046875 419.1875 423.730469 418.769531 423.453125 C 418.355469 423.171875 417.914062 422.9375 417.449219 422.746094 C 416.988281 422.554688 416.511719 422.410156 416.019531 422.3125 C 415.527344 422.214844 415.03125 422.164062 414.53125 422.164062 C 414.027344 422.164062 413.53125 422.214844 413.039062 422.3125 C 412.550781 422.410156 412.070312 422.554688 411.609375 422.746094 C 411.144531 422.9375 410.707031 423.171875 410.289062 423.453125 C 409.871094 423.730469 409.488281 424.046875 409.132812 424.402344 C 408.777344 424.753906 408.460938 425.140625 408.183594 425.558594 C 407.90625 425.972656 407.667969 426.414062 407.476562 426.878906 C 407.285156 427.339844 407.140625 427.816406 407.042969 428.308594 C 406.945312 428.800781 406.894531 429.296875 406.894531 429.796875 L 406.894531 445.066406 C 406.894531 445.566406 406.945312 446.0625 407.042969 446.554688 C 407.140625 447.046875 407.285156 447.523438 407.476562 447.984375 C 407.667969 448.449219 407.90625 448.886719 408.183594 449.304688 C 408.460938 449.722656 408.777344 450.109375 409.132812 450.460938 C 409.488281 450.816406 409.871094 451.132812 410.289062 451.410156 C 410.707031 451.691406 411.144531 451.925781 411.609375 452.117188 C 412.070312 452.308594 412.550781 452.453125 413.039062 452.550781 C 413.53125 452.648438 414.027344 452.699219 414.53125 452.699219 C 415.03125 452.699219 415.527344 452.648438 416.019531 452.550781 C 416.511719 452.453125 416.988281 452.308594 417.449219 452.117188 C 417.914062 451.925781 418.355469 451.691406 418.769531 451.410156 C 419.1875 451.132812 419.574219 450.816406 419.925781 450.460938 C 420.28125 450.109375 420.597656 449.722656 420.875 449.304688 C 421.15625 448.886719 421.390625 448.449219 421.582031 447.984375 C 421.773438 447.523438 421.917969 447.046875 422.015625 446.554688 C 422.113281 446.0625 422.164062 445.566406 422.164062 445.066406 Z M 445.0625 490.863281 L 445.0625 475.597656 C 445.0625 475.097656 445.011719 474.601562 444.914062 474.109375 C 444.816406 473.617188 444.671875 473.140625 444.480469 472.675781 C 444.289062 472.214844 444.054688 471.773438 443.777344 471.355469 C 443.496094 470.941406 443.179688 470.554688 442.828125 470.199219 C 442.472656 469.84375 442.085938 469.527344 441.671875 469.25 C 441.253906 468.972656 440.8125 468.738281 440.351562 468.546875 C 439.886719 468.351562 439.410156 468.207031 438.917969 468.109375 C 438.425781 468.011719 437.929688 467.964844 437.429688 467.964844 C 436.929688 467.964844 436.433594 468.011719 435.941406 468.109375 C 435.449219 468.207031 434.972656 468.351562 434.507812 468.546875 C 434.046875 468.738281 433.605469 468.972656 433.1875 469.25 C 432.773438 469.527344 432.386719 469.84375 432.03125 470.199219 C 431.675781 470.554688 431.359375 470.941406 431.082031 471.355469 C 430.804688 471.773438 430.570312 472.214844 430.378906 472.675781 C 430.183594 473.140625 430.039062 473.617188 429.941406 474.109375 C 429.84375 474.601562 429.796875 475.097656 429.796875 475.597656 L 429.796875 490.863281 C 429.796875 491.363281 429.84375 491.863281 429.941406 492.351562 C 430.039062 492.84375 430.183594 493.320312 430.378906 493.785156 C 430.570312 494.246094 430.804688 494.6875 431.082031 495.105469 C 431.359375 495.519531 431.675781 495.90625 432.03125 496.261719 C 432.386719 496.617188 432.773438 496.933594 433.1875 497.210938 C 433.605469 497.488281 434.046875 497.722656 434.507812 497.914062 C 434.972656 498.109375 435.449219 498.253906 435.941406 498.351562 C 436.433594 498.449219 436.929688 498.496094 437.429688 498.496094 C 437.929688 498.496094 438.425781 498.449219 438.917969 498.351562 C 439.410156 498.253906 439.886719 498.109375 440.351562 497.914062 C 440.8125 497.722656 441.253906 497.488281 441.671875 497.210938 C 442.085938 496.933594 442.472656 496.617188 442.828125 496.261719 C 443.179688 495.90625 443.496094 495.519531 443.777344 495.105469 C 444.054688 494.6875 444.289062 494.246094 444.480469 493.785156 C 444.671875 493.320312 444.816406 492.84375 444.914062 492.351562 C 445.011719 491.863281 445.0625 491.363281 445.0625 490.863281 Z M 467.960938 445.066406 L 467.960938 429.796875 C 467.960938 429.296875 467.914062 428.800781 467.816406 428.308594 C 467.71875 427.816406 467.574219 427.339844 467.382812 426.878906 C 467.1875 426.414062 466.953125 425.972656 466.675781 425.558594 C 466.398438 425.140625 466.082031 424.753906 465.726562 424.402344 C 465.371094 424.046875 464.988281 423.730469 464.570312 423.453125 C 464.152344 423.171875 463.714844 422.9375 463.25 422.746094 C 462.785156 422.554688 462.308594 422.410156 461.816406 422.3125 C 461.328125 422.214844 460.828125 422.164062 460.328125 422.164062 C 459.828125 422.164062 459.332031 422.214844 458.839844 422.3125 C 458.347656 422.410156 457.871094 422.554688 457.40625 422.746094 C 456.945312 422.9375 456.503906 423.171875 456.089844 423.453125 C 455.671875 423.730469 455.285156 424.046875 454.929688 424.402344 C 454.578125 424.753906 454.261719 425.140625 453.980469 425.558594 C 453.703125 425.972656 453.46875 426.414062 453.277344 426.878906 C 453.085938 427.339844 452.941406 427.816406 452.84375 428.308594 C 452.746094 428.800781 452.695312 429.296875 452.695312 429.796875 L 452.695312 445.066406 C 452.695312 445.566406 452.746094 446.0625 452.84375 446.554688 C 452.941406 447.046875 453.085938 447.523438 453.277344 447.984375 C 453.46875 448.449219 453.703125 448.886719 453.980469 449.304688 C 454.261719 449.722656 454.578125 450.109375 454.929688 450.460938 C 455.285156 450.816406 455.671875 451.132812 456.089844 451.410156 C 456.503906 451.691406 456.945312 451.925781 457.40625 452.117188 C 457.871094 452.308594 458.347656 452.453125 458.839844 452.550781 C 459.332031 452.648438 459.828125 452.699219 460.328125 452.699219 C 460.828125 452.699219 461.328125 452.648438 461.816406 452.550781 C 462.308594 452.453125 462.785156 452.308594 463.25 452.117188 C 463.714844 451.925781 464.152344 451.691406 464.570312 451.410156 C 464.988281 451.132812 465.371094 450.816406 465.726562 450.460938 C 466.082031 450.109375 466.398438 449.722656 466.675781 449.304688 C 466.953125 448.886719 467.1875 448.449219 467.382812 447.984375 C 467.574219 447.523438 467.71875 447.046875 467.816406 446.554688 C 467.914062 446.0625 467.960938 445.566406 467.960938 445.066406 Z M 490.863281 490.863281 L 490.863281 475.597656 C 490.863281 475.097656 490.8125 474.601562 490.714844 474.109375 C 490.617188 473.617188 490.472656 473.140625 490.28125 472.675781 C 490.089844 472.214844 489.855469 471.773438 489.574219 471.355469 C 489.296875 470.941406 488.980469 470.554688 488.625 470.199219 C 488.273438 469.84375 487.886719 469.527344 487.46875 469.25 C 487.050781 468.972656 486.613281 468.738281 486.148438 468.546875 C 485.6875 468.351562 485.210938 468.207031 484.71875 468.109375 C 484.226562 468.011719 483.730469 467.964844 483.226562 467.964844 C 482.726562 467.964844 482.230469 468.011719 481.738281 468.109375 C 481.246094 468.207031 480.769531 468.351562 480.308594 468.546875 C 479.84375 468.738281 479.40625 468.972656 478.988281 469.25 C 478.570312 469.527344 478.183594 469.84375 477.832031 470.199219 C 477.476562 470.554688 477.160156 470.941406 476.882812 471.355469 C 476.601562 471.773438 476.367188 472.214844 476.175781 472.675781 C 475.984375 473.140625 475.839844 473.617188 475.742188 474.109375 C 475.644531 474.601562 475.59375 475.097656 475.59375 475.597656 L 475.59375 490.863281 C 475.59375 491.363281 475.644531 491.863281 475.742188 492.351562 C 475.839844 492.84375 475.984375 493.320312 476.175781 493.785156 C 476.367188 494.246094 476.601562 494.6875 476.882812 495.105469 C 477.160156 495.519531 477.476562 495.90625 477.832031 496.261719 C 478.183594 496.617188 478.570312 496.933594 478.988281 497.210938 C 479.40625 497.488281 479.84375 497.722656 480.308594 497.914062 C 480.769531 498.109375 481.246094 498.253906 481.738281 498.351562 C 482.230469 498.449219 482.726562 498.496094 483.226562 498.496094 C 483.730469 498.496094 484.226562 498.449219 484.71875 498.351562 C 485.210938 498.253906 485.6875 498.109375 486.148438 497.914062 C 486.613281 497.722656 487.050781 497.488281 487.46875 497.210938 C 487.886719 496.933594 488.273438 496.617188 488.625 496.261719 C 488.980469 495.90625 489.296875 495.519531 489.574219 495.105469 C 489.855469 494.6875 490.089844 494.246094 490.28125 493.785156 C 490.472656 493.320312 490.617188 492.84375 490.714844 492.351562 C 490.8125 491.863281 490.863281 491.363281 490.863281 490.863281 Z M 513.761719 445.066406 L 513.761719 429.796875 C 513.761719 429.296875 513.710938 428.800781 513.613281 428.308594 C 513.515625 427.816406 513.371094 427.339844 513.179688 426.878906 C 512.988281 426.414062 512.753906 425.972656 512.476562 425.558594 C 512.195312 425.140625 511.878906 424.753906 511.527344 424.402344 C 511.171875 424.046875 510.785156 423.730469 510.367188 423.453125 C 509.953125 423.171875 509.511719 422.9375 509.050781 422.746094 C 508.585938 422.554688 508.109375 422.410156 507.617188 422.3125 C 507.125 422.214844 506.628906 422.164062 506.128906 422.164062 C 505.625 422.164062 505.128906 422.214844 504.640625 422.3125 C 504.148438 422.410156 503.671875 422.554688 503.207031 422.746094 C 502.742188 422.9375 502.304688 423.171875 501.886719 423.453125 C 501.46875 423.730469 501.085938 424.046875 500.730469 424.402344 C 500.375 424.753906 500.058594 425.140625 499.78125 425.558594 C 499.503906 425.972656 499.269531 426.414062 499.074219 426.878906 C 498.882812 427.339844 498.738281 427.816406 498.640625 428.308594 C 498.542969 428.800781 498.496094 429.296875 498.496094 429.796875 L 498.496094 445.066406 C 498.496094 445.566406 498.542969 446.0625 498.640625 446.554688 C 498.738281 447.046875 498.882812 447.523438 499.074219 447.984375 C 499.269531 448.449219 499.503906 448.886719 499.78125 449.304688 C 500.058594 449.722656 500.375 450.109375 500.730469 450.460938 C 501.085938 450.816406 501.46875 451.132812 501.886719 451.410156 C 502.304688 451.691406 502.742188 451.925781 503.207031 452.117188 C 503.671875 452.308594 504.148438 452.453125 504.640625 452.550781 C 505.128906 452.648438 505.625 452.699219 506.128906 452.699219 C 506.628906 452.699219 507.125 452.648438 507.617188 452.550781 C 508.109375 452.453125 508.585938 452.308594 509.050781 452.117188 C 509.511719 451.925781 509.953125 451.691406 510.367188 451.410156 C 510.785156 451.132812 511.171875 450.816406 511.527344 450.460938 C 511.878906 450.109375 512.195312 449.722656 512.476562 449.304688 C 512.753906 448.886719 512.988281 448.449219 513.179688 447.984375 C 513.371094 447.523438 513.515625 447.046875 513.613281 446.554688 C 513.710938 446.0625 513.761719 445.566406 513.761719 445.066406 Z M 376.363281 536.664062 L 376.363281 521.398438 C 376.363281 520.894531 376.316406 520.398438 376.21875 519.90625 C 376.121094 519.414062 375.972656 518.9375 375.78125 518.476562 C 375.589844 518.011719 375.355469 517.574219 375.078125 517.15625 C 374.796875 516.738281 374.480469 516.355469 374.128906 516 C 373.773438 515.644531 373.386719 515.328125 372.972656 515.050781 C 372.554688 514.769531 372.113281 514.535156 371.652344 514.34375 C 371.1875 514.152344 370.710938 514.007812 370.21875 513.910156 C 369.726562 513.8125 369.230469 513.761719 368.730469 513.761719 C 368.230469 513.761719 367.734375 513.8125 367.242188 513.910156 C 366.75 514.007812 366.273438 514.152344 365.808594 514.34375 C 365.347656 514.535156 364.90625 514.769531 364.488281 515.050781 C 364.074219 515.328125 363.6875 515.644531 363.332031 516 C 362.980469 516.355469 362.660156 516.738281 362.382812 517.15625 C 362.105469 517.574219 361.871094 518.011719 361.679688 518.476562 C 361.488281 518.9375 361.339844 519.414062 361.242188 519.90625 C 361.144531 520.398438 361.097656 520.894531 361.097656 521.398438 L 361.097656 536.664062 C 361.097656 537.164062 361.144531 537.660156 361.242188 538.152344 C 361.339844 538.644531 361.488281 539.121094 361.679688 539.585938 C 361.871094 540.046875 362.105469 540.488281 362.382812 540.902344 C 362.660156 541.320312 362.980469 541.707031 363.332031 542.058594 C 363.6875 542.414062 364.074219 542.730469 364.488281 543.011719 C 364.90625 543.289062 365.347656 543.523438 365.808594 543.714844 C 366.273438 543.90625 366.75 544.050781 367.242188 544.148438 C 367.734375 544.246094 368.230469 544.296875 368.730469 544.296875 C 369.230469 544.296875 369.726562 544.246094 370.21875 544.148438 C 370.710938 544.050781 371.1875 543.90625 371.652344 543.714844 C 372.113281 543.523438 372.554688 543.289062 372.972656 543.011719 C 373.386719 542.730469 373.773438 542.414062 374.128906 542.058594 C 374.480469 541.707031 374.796875 541.320312 375.078125 540.902344 C 375.355469 540.488281 375.589844 540.046875 375.78125 539.585938 C 375.972656 539.121094 376.121094 538.644531 376.21875 538.152344 C 376.316406 537.660156 376.363281 537.164062 376.363281 536.664062 Z M 399.261719 582.460938 L 399.261719 567.195312 C 399.261719 566.695312 399.214844 566.199219 399.117188 565.707031 C 399.019531 565.214844 398.875 564.738281 398.683594 564.273438 C 398.492188 563.8125 398.253906 563.371094 397.976562 562.957031 C 397.699219 562.539062 397.382812 562.152344 397.027344 561.796875 C 396.671875 561.445312 396.289062 561.128906 395.871094 560.847656 C 395.453125 560.570312 395.015625 560.335938 394.550781 560.144531 C 394.089844 559.953125 393.609375 559.808594 393.121094 559.710938 C 392.628906 559.613281 392.132812 559.5625 391.628906 559.5625 C 391.128906 559.5625 390.632812 559.613281 390.140625 559.710938 C 389.648438 559.808594 389.171875 559.953125 388.707031 560.144531 C 388.246094 560.335938 387.804688 560.570312 387.390625 560.847656 C 386.972656 561.128906 386.585938 561.445312 386.234375 561.796875 C 385.878906 562.152344 385.5625 562.539062 385.285156 562.957031 C 385.003906 563.371094 384.769531 563.8125 384.578125 564.273438 C 384.386719 564.738281 384.242188 565.214844 384.144531 565.707031 C 384.046875 566.199219 383.996094 566.695312 383.996094 567.195312 L 383.996094 582.460938 C 383.996094 582.964844 384.046875 583.460938 384.144531 583.953125 C 384.242188 584.441406 384.386719 584.921875 384.578125 585.382812 C 384.769531 585.847656 385.003906 586.285156 385.285156 586.703125 C 385.5625 587.121094 385.878906 587.503906 386.234375 587.859375 C 386.585938 588.214844 386.972656 588.53125 387.390625 588.808594 C 387.804688 589.085938 388.246094 589.324219 388.707031 589.515625 C 389.171875 589.707031 389.648438 589.851562 390.140625 589.949219 C 390.632812 590.046875 391.128906 590.09375 391.628906 590.09375 C 392.132812 590.09375 392.628906 590.046875 393.121094 589.949219 C 393.609375 589.851562 394.089844 589.707031 394.550781 589.515625 C 395.015625 589.324219 395.453125 589.085938 395.871094 588.808594 C 396.289062 588.53125 396.671875 588.214844 397.027344 587.859375 C 397.382812 587.503906 397.699219 587.121094 397.976562 586.703125 C 398.253906 586.285156 398.492188 585.847656 398.683594 585.382812 C 398.875 584.921875 399.019531 584.441406 399.117188 583.953125 C 399.214844 583.460938 399.261719 582.964844 399.261719 582.460938 Z M 422.164062 536.664062 L 422.164062 521.398438 C 422.164062 520.894531 422.113281 520.398438 422.015625 519.90625 C 421.917969 519.414062 421.773438 518.9375 421.582031 518.476562 C 421.390625 518.011719 421.15625 517.574219 420.875 517.15625 C 420.597656 516.738281 420.28125 516.355469 419.925781 516 C 419.574219 515.644531 419.1875 515.328125 418.769531 515.050781 C 418.355469 514.769531 417.914062 514.535156 417.449219 514.34375 C 416.988281 514.152344 416.511719 514.007812 416.019531 513.910156 C 415.527344 513.8125 415.03125 513.761719 414.53125 513.761719 C 414.027344 513.761719 413.53125 513.8125 413.039062 513.910156 C 412.550781 514.007812 412.070312 514.152344 411.609375 514.34375 C 411.144531 514.535156 410.707031 514.769531 410.289062 515.050781 C 409.871094 515.328125 409.488281 515.644531 409.132812 516 C 408.777344 516.355469 408.460938 516.738281 408.183594 517.15625 C 407.90625 517.574219 407.667969 518.011719 407.476562 518.476562 C 407.285156 518.9375 407.140625 519.414062 407.042969 519.90625 C 406.945312 520.398438 406.894531 520.894531 406.894531 521.398438 L 406.894531 536.664062 C 406.894531 537.164062 406.945312 537.660156 407.042969 538.152344 C 407.140625 538.644531 407.285156 539.121094 407.476562 539.585938 C 407.667969 540.046875 407.90625 540.488281 408.183594 540.902344 C 408.460938 541.320312 408.777344 541.707031 409.132812 542.058594 C 409.488281 542.414062 409.871094 542.730469 410.289062 543.011719 C 410.707031 543.289062 411.144531 543.523438 411.609375 543.714844 C 412.070312 543.90625 412.550781 544.050781 413.039062 544.148438 C 413.53125 544.246094 414.027344 544.296875 414.53125 544.296875 C 415.03125 544.296875 415.527344 544.246094 416.019531 544.148438 C 416.511719 544.050781 416.988281 543.90625 417.449219 543.714844 C 417.914062 543.523438 418.355469 543.289062 418.769531 543.011719 C 419.1875 542.730469 419.574219 542.414062 419.925781 542.058594 C 420.28125 541.707031 420.597656 541.320312 420.875 540.902344 C 421.15625 540.488281 421.390625 540.046875 421.582031 539.585938 C 421.773438 539.121094 421.917969 538.644531 422.015625 538.152344 C 422.113281 537.660156 422.164062 537.164062 422.164062 536.664062 Z M 445.0625 582.460938 L 445.0625 567.195312 C 445.0625 566.695312 445.011719 566.199219 444.914062 565.707031 C 444.816406 565.214844 444.671875 564.738281 444.480469 564.273438 C 444.289062 563.8125 444.054688 563.371094 443.777344 562.957031 C 443.496094 562.539062 443.179688 562.152344 442.828125 561.796875 C 442.472656 561.445312 442.085938 561.128906 441.671875 560.847656 C 441.253906 560.570312 440.8125 560.335938 440.351562 560.144531 C 439.886719 559.953125 439.410156 559.808594 438.917969 559.710938 C 438.425781 559.613281 437.929688 559.5625 437.429688 559.5625 C 436.929688 559.5625 436.433594 559.613281 435.941406 559.710938 C 435.449219 559.808594 434.972656 559.953125 434.507812 560.144531 C 434.046875 560.335938 433.605469 560.570312 433.1875 560.847656 C 432.773438 561.128906 432.386719 561.445312 432.03125 561.796875 C 431.675781 562.152344 431.359375 562.539062 431.082031 562.957031 C 430.804688 563.371094 430.570312 563.8125 430.378906 564.273438 C 430.183594 564.738281 430.039062 565.214844 429.941406 565.707031 C 429.84375 566.199219 429.796875 566.695312 429.796875 567.195312 L 429.796875 582.460938 C 429.796875 582.964844 429.84375 583.460938 429.941406 583.953125 C 430.039062 584.441406 430.183594 584.921875 430.378906 585.382812 C 430.570312 585.847656 430.804688 586.285156 431.082031 586.703125 C 431.359375 587.121094 431.675781 587.503906 432.03125 587.859375 C 432.386719 588.214844 432.773438 588.53125 433.1875 588.808594 C 433.605469 589.085938 434.046875 589.324219 434.507812 589.515625 C 434.972656 589.707031 435.449219 589.851562 435.941406 589.949219 C 436.433594 590.046875 436.929688 590.09375 437.429688 590.09375 C 437.929688 590.09375 438.425781 590.046875 438.917969 589.949219 C 439.410156 589.851562 439.886719 589.707031 440.351562 589.515625 C 440.8125 589.324219 441.253906 589.085938 441.671875 588.808594 C 442.085938 588.53125 442.472656 588.214844 442.828125 587.859375 C 443.179688 587.503906 443.496094 587.121094 443.777344 586.703125 C 444.054688 586.285156 444.289062 585.847656 444.480469 585.382812 C 444.671875 584.921875 444.816406 584.441406 444.914062 583.953125 C 445.011719 583.460938 445.0625 582.964844 445.0625 582.460938 Z M 467.960938 536.664062 L 467.960938 521.398438 C 467.960938 520.894531 467.914062 520.398438 467.816406 519.90625 C 467.71875 519.414062 467.574219 518.9375 467.382812 518.476562 C 467.1875 518.011719 466.953125 517.574219 466.675781 517.15625 C 466.398438 516.738281 466.082031 516.355469 465.726562 516 C 465.371094 515.644531 464.988281 515.328125 464.570312 515.050781 C 464.152344 514.769531 463.714844 514.535156 463.25 514.34375 C 462.785156 514.152344 462.308594 514.007812 461.816406 513.910156 C 461.328125 513.8125 460.828125 513.761719 460.328125 513.761719 C 459.828125 513.761719 459.332031 513.8125 458.839844 513.910156 C 458.347656 514.007812 457.871094 514.152344 457.40625 514.34375 C 456.945312 514.535156 456.503906 514.769531 456.089844 515.050781 C 455.671875 515.328125 455.285156 515.644531 454.929688 516 C 454.578125 516.355469 454.261719 516.738281 453.980469 517.15625 C 453.703125 517.574219 453.46875 518.011719 453.277344 518.476562 C 453.085938 518.9375 452.941406 519.414062 452.84375 519.90625 C 452.746094 520.398438 452.695312 520.894531 452.695312 521.398438 L 452.695312 536.664062 C 452.695312 537.164062 452.746094 537.660156 452.84375 538.152344 C 452.941406 538.644531 453.085938 539.121094 453.277344 539.585938 C 453.46875 540.046875 453.703125 540.488281 453.980469 540.902344 C 454.261719 541.320312 454.578125 541.707031 454.929688 542.058594 C 455.285156 542.414062 455.671875 542.730469 456.089844 543.011719 C 456.503906 543.289062 456.945312 543.523438 457.40625 543.714844 C 457.871094 543.90625 458.347656 544.050781 458.839844 544.148438 C 459.332031 544.246094 459.828125 544.296875 460.328125 544.296875 C 460.828125 544.296875 461.328125 544.246094 461.816406 544.148438 C 462.308594 544.050781 462.785156 543.90625 463.25 543.714844 C 463.714844 543.523438 464.152344 543.289062 464.570312 543.011719 C 464.988281 542.730469 465.371094 542.414062 465.726562 542.058594 C 466.082031 541.707031 466.398438 541.320312 466.675781 540.902344 C 466.953125 540.488281 467.1875 540.046875 467.382812 539.585938 C 467.574219 539.121094 467.71875 538.644531 467.816406 538.152344 C 467.914062 537.660156 467.960938 537.164062 467.960938 536.664062 Z M 490.863281 582.460938 L 490.863281 567.195312 C 490.863281 566.695312 490.8125 566.199219 490.714844 565.707031 C 490.617188 565.214844 490.472656 564.738281 490.28125 564.273438 C 490.089844 563.8125 489.855469 563.371094 489.574219 562.957031 C 489.296875 562.539062 488.980469 562.152344 488.625 561.796875 C 488.273438 561.445312 487.886719 561.128906 487.46875 560.847656 C 487.050781 560.570312 486.613281 560.335938 486.148438 560.144531 C 485.6875 559.953125 485.210938 559.808594 484.71875 559.710938 C 484.226562 559.613281 483.730469 559.5625 483.226562 559.5625 C 482.726562 559.5625 482.230469 559.613281 481.738281 559.710938 C 481.246094 559.808594 480.769531 559.953125 480.308594 560.144531 C 479.84375 560.335938 479.40625 560.570312 478.988281 560.847656 C 478.570312 561.128906 478.183594 561.445312 477.832031 561.796875 C 477.476562 562.152344 477.160156 562.539062 476.882812 562.957031 C 476.601562 563.371094 476.367188 563.8125 476.175781 564.273438 C 475.984375 564.738281 475.839844 565.214844 475.742188 565.707031 C 475.644531 566.199219 475.59375 566.695312 475.59375 567.195312 L 475.59375 582.460938 C 475.59375 582.964844 475.644531 583.460938 475.742188 583.953125 C 475.839844 584.441406 475.984375 584.921875 476.175781 585.382812 C 476.367188 585.847656 476.601562 586.285156 476.882812 586.703125 C 477.160156 587.121094 477.476562 587.503906 477.832031 587.859375 C 478.183594 588.214844 478.570312 588.53125 478.988281 588.808594 C 479.40625 589.085938 479.84375 589.324219 480.308594 589.515625 C 480.769531 589.707031 481.246094 589.851562 481.738281 589.949219 C 482.230469 590.046875 482.726562 590.09375 483.226562 590.09375 C 483.730469 590.09375 484.226562 590.046875 484.71875 589.949219 C 485.210938 589.851562 485.6875 589.707031 486.148438 589.515625 C 486.613281 589.324219 487.050781 589.085938 487.46875 588.808594 C 487.886719 588.53125 488.273438 588.214844 488.625 587.859375 C 488.980469 587.503906 489.296875 587.121094 489.574219 586.703125 C 489.855469 586.285156 490.089844 585.847656 490.28125 585.382812 C 490.472656 584.921875 490.617188 584.441406 490.714844 583.953125 C 490.8125 583.460938 490.863281 582.964844 490.863281 582.460938 Z M 513.761719 536.664062 L 513.761719 521.398438 C 513.761719 520.894531 513.710938 520.398438 513.613281 519.90625 C 513.515625 519.414062 513.371094 518.9375 513.179688 518.476562 C 512.988281 518.011719 512.753906 517.574219 512.476562 517.15625 C 512.195312 516.738281 511.878906 516.355469 511.527344 516 C 511.171875 515.644531 510.785156 515.328125 510.367188 515.050781 C 509.953125 514.769531 509.511719 514.535156 509.050781 514.34375 C 508.585938 514.152344 508.109375 514.007812 507.617188 513.910156 C 507.125 513.8125 506.628906 513.761719 506.128906 513.761719 C 505.625 513.761719 505.128906 513.8125 504.640625 513.910156 C 504.148438 514.007812 503.671875 514.152344 503.207031 514.34375 C 502.742188 514.535156 502.304688 514.769531 501.886719 515.050781 C 501.46875 515.328125 501.085938 515.644531 500.730469 516 C 500.375 516.355469 500.058594 516.738281 499.78125 517.15625 C 499.503906 517.574219 499.269531 518.011719 499.074219 518.476562 C 498.882812 518.9375 498.738281 519.414062 498.640625 519.90625 C 498.542969 520.398438 498.496094 520.894531 498.496094 521.398438 L 498.496094 536.664062 C 498.496094 537.164062 498.542969 537.660156 498.640625 538.152344 C 498.738281 538.644531 498.882812 539.121094 499.074219 539.585938 C 499.269531 540.046875 499.503906 540.488281 499.78125 540.902344 C 500.058594 541.320312 500.375 541.707031 500.730469 542.058594 C 501.085938 542.414062 501.46875 542.730469 501.886719 543.011719 C 502.304688 543.289062 502.742188 543.523438 503.207031 543.714844 C 503.671875 543.90625 504.148438 544.050781 504.640625 544.148438 C 505.128906 544.246094 505.625 544.296875 506.128906 544.296875 C 506.628906 544.296875 507.125 544.246094 507.617188 544.148438 C 508.109375 544.050781 508.585938 543.90625 509.050781 543.714844 C 509.511719 543.523438 509.953125 543.289062 510.367188 543.011719 C 510.785156 542.730469 511.171875 542.414062 511.527344 542.058594 C 511.878906 541.707031 512.195312 541.320312 512.476562 540.902344 C 512.753906 540.488281 512.988281 540.046875 513.179688 539.585938 C 513.371094 539.121094 513.515625 538.644531 513.613281 538.152344 C 513.710938 537.660156 513.761719 537.164062 513.761719 536.664062 Z M 292.398438 483.230469 L 277.132812 483.230469 L 277.132812 529.03125 L 292.398438 529.03125 Z M 322.929688 559.5625 C 323.933594 559.5625 324.925781 559.464844 325.910156 559.269531 C 326.894531 559.074219 327.847656 558.785156 328.773438 558.402344 C 329.699219 558.015625 330.578125 557.546875 331.414062 556.988281 C 332.246094 556.433594 333.015625 555.800781 333.726562 555.089844 C 334.433594 554.382812 335.066406 553.609375 335.625 552.777344 C 336.183594 551.945312 336.652344 551.066406 337.035156 550.136719 C 337.417969 549.210938 337.707031 548.257812 337.902344 547.273438 C 338.101562 546.292969 338.199219 545.296875 338.199219 544.296875 L 338.199219 467.964844 C 338.199219 466.960938 338.101562 465.96875 337.902344 464.984375 C 337.707031 464.003906 337.417969 463.046875 337.035156 462.121094 C 336.652344 461.195312 336.183594 460.316406 335.625 459.484375 C 335.066406 458.648438 334.433594 457.878906 333.726562 457.167969 C 333.015625 456.460938 332.246094 455.828125 331.414062 455.269531 C 330.578125 454.714844 329.699219 454.242188 328.773438 453.859375 C 327.847656 453.476562 326.894531 453.1875 325.910156 452.992188 C 324.925781 452.796875 323.933594 452.699219 322.929688 452.699219 C 321.929688 452.699219 320.9375 452.796875 319.953125 452.992188 C 318.96875 453.1875 318.015625 453.476562 317.089844 453.859375 C 316.164062 454.242188 315.28125 454.714844 314.449219 455.269531 C 313.617188 455.828125 312.84375 456.460938 312.136719 457.167969 C 311.425781 457.878906 310.792969 458.648438 310.238281 459.484375 C 309.679688 460.316406 309.210938 461.195312 308.828125 462.121094 C 308.441406 463.046875 308.152344 464.003906 307.957031 464.984375 C 307.761719 465.96875 307.664062 466.960938 307.664062 467.964844 L 307.664062 544.296875 C 307.664062 545.296875 307.761719 546.292969 307.957031 547.273438 C 308.152344 548.257812 308.441406 549.210938 308.828125 550.136719 C 309.210938 551.066406 309.679688 551.945312 310.238281 552.777344 C 310.792969 553.609375 311.425781 554.382812 312.136719 555.089844 C 312.84375 555.800781 313.617188 556.433594 314.449219 556.988281 C 315.28125 557.546875 316.164062 558.015625 317.089844 558.402344 C 318.015625 558.785156 318.96875 559.074219 319.953125 559.269531 C 320.9375 559.464844 321.929688 559.5625 322.929688 559.5625 Z M 322.929688 559.5625 " fill-opacity="1" fill-rule="nonzero"/></g></svg>