<svg xmlns="http://www.w3.org/2000/svg" xmlns:xlink="http://www.w3.org/1999/xlink" width="1024" zoomAndPan="magnify" viewBox="0 0 768 767.999994" height="1024" preserveAspectRatio="xMidYMid meet" version="1.0"><defs><clipPath id="51ccbf66df"><path d="M 782.816406 819.335938 L 28.070312 819.335938 C -3.015625 819.335938 -28.347656 794.003906 -28.347656 762.917969 L -28.347656 8.167969 C -28.347656 -22.917969 -3.015625 -48.25 28.070312 -48.25 L 782.816406 -48.25 C 813.90625 -48.25 839.238281 -22.917969 839.238281 8.167969 L 839.238281 762.917969 C 839.238281 794.003906 813.90625 819.335938 782.816406 819.335938 Z M 782.816406 819.335938 " clip-rule="nonzero"/></clipPath><clipPath id="7779f5dab4"><path d="M 177 228.265625 L 233 228.265625 L 233 284 L 177 284 Z M 177 228.265625 " clip-rule="nonzero"/></clipPath><clipPath id="e7f6dab6c8"><path d="M 81.542969 391 L 686.792969 391 L 686.792969 542.515625 L 81.542969 542.515625 Z M 81.542969 391 " clip-rule="nonzero"/></clipPath><clipPath id="d6f40babcf"><path d="M 534 228.265625 L 591 228.265625 L 591 284 L 534 284 Z M 534 228.265625 " clip-rule="nonzero"/></clipPath></defs><rect x="-76.8" width="921.6" fill="#ffffff" y="-76.799999" height="921.599993" fill-opacity="1"/><rect x="-76.8" width="921.6" fill="#fff5e6" y="-76.799999" height="921.599993" fill-opacity="1"/><g clip-path="url(#51ccbf66df)"><rect x="-76.8" width="921.6" fill="#ca530e" y="-76.799999" height="921.599993" fill-opacity="1"/></g><path fill="#ffffff" d="M 152.964844 398.746094 L 142.019531 470.972656 L 174.15625 470.972656 L 183.382812 410.074219 L 162.253906 403.390625 C 158.820312 402.308594 155.699219 400.71875 152.964844 398.746094 Z M 152.964844 398.746094 " fill-opacity="1" fill-rule="nonzero"/><path fill="#ffffff" d="M 123.882812 360.691406 C 125.09375 361.074219 126.300781 361.199219 127.511719 361.199219 C 133.238281 361.199219 138.519531 357.445312 140.171875 351.65625 L 147.429688 326.328125 L 161.492188 319.519531 L 156.335938 370.238281 C 155.574219 377.683594 160.09375 384.617188 167.28125 386.972656 L 211 400.847656 L 211.574219 439.726562 L 243.265625 439.726562 L 242.5 389.007812 C 242.4375 382.199219 237.917969 376.21875 231.492188 374.117188 L 203.746094 365.335938 L 211.636719 330.464844 L 224.9375 347.644531 C 228.183594 351.78125 233.59375 353.691406 238.683594 352.355469 L 268.847656 344.589844 C 275.910156 342.808594 280.171875 335.554688 278.328125 328.492188 C 276.546875 321.429688 269.292969 317.164062 262.226562 319.007812 L 240.527344 324.609375 L 223.917969 303.164062 C 223.410156 302.464844 222.835938 301.890625 222.199219 301.320312 C 217.808594 297.4375 212.402344 294.765625 206.671875 293.554688 L 181.855469 288.335938 C 174.539062 286.808594 166.773438 287.765625 160.027344 291.007812 L 130.628906 305.199219 C 127.253906 306.855469 124.710938 309.847656 123.628906 313.472656 L 114.71875 344.464844 C 112.808594 351.402344 116.882812 358.65625 123.882812 360.691406 Z M 123.882812 360.691406 " fill-opacity="1" fill-rule="nonzero"/><g clip-path="url(#7779f5dab4)"><path fill="#ffffff" d="M 205.144531 283.882812 C 220.484375 283.882812 232.957031 271.410156 232.957031 256.074219 C 232.957031 240.738281 220.484375 228.265625 205.144531 228.265625 C 189.808594 228.265625 177.335938 240.738281 177.335938 256.074219 C 177.335938 271.410156 189.808594 283.882812 205.144531 283.882812 Z M 205.144531 283.882812 " fill-opacity="1" fill-rule="nonzero"/></g><path fill="#ffffff" d="M 605.609375 403.390625 L 584.484375 410.074219 L 593.710938 470.972656 L 625.847656 470.972656 L 614.902344 398.746094 C 612.101562 400.71875 608.984375 402.308594 605.609375 403.390625 Z M 605.609375 403.390625 " fill-opacity="1" fill-rule="nonzero"/><path fill="#ffffff" d="M 498.828125 344.589844 L 528.992188 352.355469 C 534.082031 353.691406 539.492188 351.847656 542.738281 347.644531 L 556.039062 330.464844 L 563.929688 365.335938 L 536.183594 374.117188 C 529.691406 376.15625 525.238281 382.199219 525.175781 389.011719 L 524.410156 439.726562 L 556.101562 439.726562 L 556.675781 400.847656 L 600.390625 386.972656 C 607.582031 384.683594 612.164062 377.746094 611.335938 370.238281 L 606.183594 319.519531 L 620.246094 326.328125 L 627.5 351.65625 C 629.15625 357.445312 634.4375 361.199219 640.164062 361.199219 C 641.375 361.199219 642.582031 361.011719 643.792969 360.691406 C 650.792969 358.65625 654.863281 351.335938 652.828125 344.335938 L 643.917969 313.347656 C 642.902344 309.71875 640.355469 306.726562 636.917969 305.074219 L 607.519531 290.882812 C 600.773438 287.636719 593.011719 286.683594 585.691406 288.210938 L 560.875 293.429688 C 555.148438 294.636719 549.738281 297.308594 545.347656 301.191406 C 544.710938 301.765625 544.136719 302.335938 543.628906 303.035156 L 527.019531 324.484375 L 505.320312 318.882812 C 498.253906 317.035156 491.066406 321.300781 489.21875 328.363281 C 487.5 335.554688 491.765625 342.746094 498.828125 344.589844 Z M 498.828125 344.589844 " fill-opacity="1" fill-rule="nonzero"/><g clip-path="url(#e7f6dab6c8)"><path fill="#ffffff" d="M 676.246094 522.964844 L 638.066406 522.964844 L 638.066406 495.726562 C 638.066406 490.253906 633.609375 485.800781 628.136719 485.800781 L 571.945312 485.800781 L 571.945312 464.417969 C 571.945312 458.945312 567.492188 454.492188 562.019531 454.492188 L 505.828125 454.492188 L 505.828125 433.109375 C 505.828125 427.636719 501.375 423.183594 495.902344 423.183594 L 439.710938 423.183594 L 439.710938 401.800781 C 439.710938 396.328125 435.253906 391.875 429.78125 391.875 L 337.890625 391.875 C 332.417969 391.875 327.964844 396.328125 327.964844 401.800781 L 327.964844 423.183594 L 271.773438 423.183594 C 266.300781 423.183594 261.847656 427.636719 261.847656 433.109375 L 261.847656 454.492188 L 205.71875 454.492188 C 200.246094 454.492188 195.792969 458.945312 195.792969 464.417969 L 195.792969 485.800781 L 139.601562 485.800781 C 134.128906 485.800781 129.671875 490.253906 129.671875 495.726562 L 129.671875 522.964844 L 91.492188 522.964844 C 86.082031 522.964844 81.628906 527.417969 81.628906 532.890625 C 81.628906 538.363281 86.082031 542.820312 91.554688 542.820312 L 139.664062 542.820312 C 145.136719 542.820312 149.59375 538.363281 149.59375 532.890625 L 149.59375 505.65625 L 205.71875 505.65625 C 211.191406 505.65625 215.644531 501.199219 215.644531 495.726562 L 215.644531 474.347656 L 271.835938 474.347656 C 277.308594 474.347656 281.765625 469.890625 281.765625 464.417969 L 281.765625 443.039062 L 337.957031 443.039062 C 343.429688 443.039062 347.882812 438.582031 347.882812 433.109375 L 347.882812 411.726562 L 420.109375 411.726562 L 420.109375 433.109375 C 420.109375 438.582031 424.566406 443.039062 430.039062 443.039062 L 486.226562 443.039062 L 486.226562 464.417969 C 486.226562 469.890625 490.683594 474.347656 496.15625 474.347656 L 552.347656 474.347656 L 552.347656 495.726562 C 552.347656 501.199219 556.800781 505.65625 562.273438 505.65625 L 618.402344 505.65625 L 618.402344 532.890625 C 618.402344 538.363281 622.855469 542.820312 628.328125 542.820312 L 676.4375 542.820312 C 681.910156 542.820312 686.363281 538.363281 686.363281 532.890625 C 686.175781 527.417969 681.71875 522.964844 676.246094 522.964844 Z M 676.246094 522.964844 " fill-opacity="1" fill-rule="nonzero"/></g><g clip-path="url(#d6f40babcf)"><path fill="#ffffff" d="M 562.65625 283.882812 C 577.992188 283.882812 590.464844 271.410156 590.464844 256.074219 C 590.464844 240.738281 577.992188 228.265625 562.65625 228.265625 C 547.320312 228.265625 534.847656 240.738281 534.847656 256.074219 C 534.847656 271.410156 547.253906 283.882812 562.65625 283.882812 Z M 562.65625 283.882812 " fill-opacity="1" fill-rule="nonzero"/></g><path fill="#ffffff" d="M 350.554688 326.773438 L 357.363281 328.617188 C 358.445312 330.144531 359.59375 331.609375 360.863281 332.945312 C 365.128906 337.335938 370.21875 340.136719 376.074219 341.472656 L 376.074219 352.929688 C 376.074219 359.929688 368.375 365.71875 359.910156 366.800781 C 358.382812 366.992188 357.171875 368.457031 357.171875 369.984375 L 357.171875 374.054688 C 357.171875 376.410156 358.636719 377.875 360.417969 377.875 L 407.511719 377.875 C 409.292969 377.875 410.753906 376.410156 410.753906 374.628906 L 410.753906 370.046875 C 410.753906 368.519531 409.546875 367.054688 408.019531 366.800781 C 399.554688 365.71875 391.855469 359.929688 391.855469 352.929688 L 391.855469 341.472656 C 397.710938 340.136719 402.800781 337.335938 407.066406 332.945312 C 408.335938 331.609375 409.484375 330.144531 410.566406 328.617188 L 417.375 326.773438 C 433.472656 322.382812 444.675781 307.808594 444.675781 291.074219 L 444.675781 284.835938 C 444.675781 282.671875 442.957031 280.957031 440.792969 280.957031 L 421 280.957031 L 421 273 C 421 270.835938 419.28125 269.117188 417.121094 269.117188 L 350.746094 269.117188 C 348.582031 269.117188 346.863281 270.835938 346.863281 273 L 346.863281 280.957031 L 327.074219 280.957031 C 324.910156 280.957031 323.191406 282.671875 323.191406 284.835938 L 323.191406 291.074219 C 323.191406 307.808594 334.390625 322.445312 350.554688 326.773438 Z M 420.9375 290.945312 L 434.621094 290.945312 L 434.621094 291.136719 C 434.621094 302.589844 427.300781 312.710938 416.609375 316.527344 C 420.300781 305.964844 420.875 295.335938 420.9375 290.945312 Z M 366.972656 297.308594 L 376.964844 295.972656 C 377.472656 295.910156 377.917969 295.589844 378.109375 295.144531 L 382.5 286.046875 C 383.074219 284.902344 384.664062 284.902344 385.238281 286.046875 L 389.628906 295.144531 C 389.820312 295.589844 390.265625 295.910156 390.773438 295.972656 L 400.765625 297.308594 C 402.039062 297.5 402.546875 299.027344 401.59375 299.917969 L 394.273438 306.917969 C 393.890625 307.300781 393.765625 307.808594 393.828125 308.320312 L 395.609375 318.246094 C 395.863281 319.519531 394.527344 320.472656 393.382812 319.835938 L 384.472656 315.0625 C 384.027344 314.808594 383.457031 314.808594 383.011719 315.0625 L 374.101562 319.835938 C 372.957031 320.472656 371.683594 319.457031 371.875 318.246094 L 373.65625 308.320312 C 373.71875 307.808594 373.59375 307.300781 373.210938 306.917969 L 365.890625 299.917969 C 365.191406 299.027344 365.699219 297.5 366.972656 297.308594 Z M 333.121094 290.945312 L 346.800781 290.945312 C 346.863281 295.464844 347.4375 306.027344 351.128906 316.464844 C 340.4375 312.710938 333.121094 302.589844 333.121094 291.136719 Z M 333.121094 290.945312 " fill-opacity="1" fill-rule="nonzero"/></svg>