<svg xmlns="http://www.w3.org/2000/svg" xmlns:xlink="http://www.w3.org/1999/xlink" width="1024" zoomAndPan="magnify" viewBox="0 0 768 767.999994" height="1024" preserveAspectRatio="xMidYMid meet" version="1.0"><defs><clipPath id="60f2869e51"><path d="M 123.398438 152.777344 L 300 152.777344 L 300 354 L 123.398438 354 Z M 123.398438 152.777344 " clip-rule="nonzero"/></clipPath><clipPath id="712a69fad1"><path d="M 123.398438 192 L 182 192 L 182 353 L 123.398438 353 Z M 123.398438 192 " clip-rule="nonzero"/></clipPath><clipPath id="58fad3c09a"><path d="M 468 152.777344 L 644.648438 152.777344 L 644.648438 354 L 468 354 Z M 468 152.777344 " clip-rule="nonzero"/></clipPath><clipPath id="fad3835342"><path d="M 586 192 L 644.648438 192 L 644.648438 353 L 586 353 Z M 586 192 " clip-rule="nonzero"/></clipPath><clipPath id="7f36acac63"><path d="M 193 152.777344 L 575 152.777344 L 575 615.527344 L 193 615.527344 Z M 193 152.777344 " clip-rule="nonzero"/></clipPath><clipPath id="8c1f8c5234"><path d="M 282 152.777344 L 486 152.777344 L 486 226 L 282 226 Z M 282 152.777344 " clip-rule="nonzero"/></clipPath></defs><rect x="-76.8" width="921.6" fill="#ffffff" y="-76.799999" height="921.599993" fill-opacity="1"/><rect x="-76.8" width="921.6" fill="#ca530e" y="-76.799999" height="921.599993" fill-opacity="1"/><g clip-path="url(#60f2869e51)"><path fill="#ffffff" d="M 282.835938 152.777344 C 239.480469 152.777344 123.871094 181.679688 123.871094 210.582031 C 123.871094 239.484375 138.320312 311.742188 152.773438 340.644531 C 167.222656 369.546875 268.382812 340.644531 282.835938 326.195312 C 297.285156 311.742188 311.738281 152.777344 282.835938 152.777344 Z M 282.835938 152.777344 " fill-opacity="1" fill-rule="nonzero"/></g><g clip-path="url(#712a69fad1)"><path fill="#691e06" d="M 138.320312 192.039062 C 128.957031 197.402344 123.871094 204.296875 123.871094 210.582031 C 123.871094 239.484375 138.320312 311.742188 152.773438 340.644531 C 156.832031 348.765625 167.789062 351.875 181.675781 352.929688 C 167.222656 311.742188 152.773438 253.9375 138.320312 192.039062 Z M 138.320312 192.039062 " fill-opacity="1" fill-rule="nonzero"/></g><g clip-path="url(#58fad3c09a)"><path fill="#ffffff" d="M 485.15625 152.777344 C 528.507812 152.777344 644.121094 181.679688 644.121094 210.582031 C 644.121094 239.484375 629.667969 311.742188 615.21875 340.644531 C 600.765625 369.546875 499.605469 340.644531 485.15625 326.195312 C 470.703125 311.742188 456.253906 152.777344 485.15625 152.777344 Z M 485.15625 152.777344 " fill-opacity="1" fill-rule="nonzero"/></g><g clip-path="url(#fad3835342)"><path fill="#691e06" d="M 629.667969 192.039062 C 639.035156 197.402344 644.121094 204.296875 644.121094 210.582031 C 644.121094 239.484375 629.667969 311.742188 615.21875 340.644531 C 611.15625 348.765625 600.203125 351.875 586.316406 352.929688 C 600.765625 311.742188 615.21875 253.9375 629.667969 192.039062 Z M 629.667969 192.039062 " fill-opacity="1" fill-rule="nonzero"/></g><g clip-path="url(#7f36acac63)"><path fill="#ffffff" d="M 485.15625 152.777344 L 469.722656 152.777344 C 463.695312 177.273438 427.652344 196.128906 383.996094 196.128906 C 340.335938 196.128906 304.296875 177.273438 298.269531 152.777344 L 282.835938 152.777344 C 250.914062 152.777344 210.578125 178.660156 210.578125 210.582031 C 210.578125 210.582031 210.578125 499.609375 196.128906 557.417969 C 181.675781 615.222656 222.007812 615.222656 253.933594 615.222656 L 514.058594 615.222656 C 545.980469 615.222656 586.316406 615.222656 571.863281 557.417969 C 557.414062 499.609375 557.414062 210.582031 557.414062 210.582031 C 557.414062 178.660156 517.078125 152.777344 485.15625 152.777344 Z M 485.15625 152.777344 " fill-opacity="1" fill-rule="nonzero"/></g><g clip-path="url(#8c1f8c5234)"><path fill="#691e06" d="M 383.996094 225.035156 C 439.863281 225.035156 485.15625 192.675781 485.15625 152.777344 L 469.722656 152.777344 C 463.695312 177.273438 427.652344 196.128906 383.996094 196.128906 C 340.335938 196.128906 304.296875 177.273438 298.269531 152.777344 L 282.835938 152.777344 C 282.835938 192.675781 328.125 225.035156 383.996094 225.035156 Z M 383.996094 225.035156 " fill-opacity="1" fill-rule="nonzero"/></g></svg>