<svg xmlns="http://www.w3.org/2000/svg" xmlns:xlink="http://www.w3.org/1999/xlink" width="500" zoomAndPan="magnify" viewBox="0 0 375 374.999991" height="500" preserveAspectRatio="xMidYMid meet" version="1.0"><defs><clipPath id="094e3b7a09"><path d="M 135 285 L 232 285 L 232 366.75 L 135 366.75 Z M 135 285 " clip-rule="nonzero"/></clipPath><clipPath id="61366639d6"><path d="M 189 8.25 L 351 8.25 L 351 125 L 189 125 Z M 189 8.25 " clip-rule="nonzero"/></clipPath></defs><g clip-path="url(#094e3b7a09)"><path fill="#ffffff" d="M 231.582031 285.910156 C 216.4375 287.910156 200.246094 288.992188 183.34375 288.992188 C 166.445312 288.992188 150.261719 287.910156 135.113281 285.910156 C 144.292969 333.929688 163.621094 366.742188 183.34375 366.742188 C 203.070312 366.742188 222.394531 333.921875 231.582031 285.902344 Z M 231.582031 285.910156 " fill-opacity="1" fill-rule="nonzero"/></g><path fill="#ffffff" d="M 132.9375 171.589844 C 130.574219 187.671875 129.328125 204.625 129.328125 222.152344 C 129.328125 239.679688 130.582031 256.640625 132.945312 272.714844 C 148.339844 274.902344 165.164062 276.195312 183.34375 276.195312 C 201.527344 276.195312 218.355469 274.902344 233.753906 272.714844 C 236.117188 256.632812 237.363281 239.679688 237.363281 222.152344 C 237.363281 204.625 236.109375 187.667969 233.753906 171.589844 C 218.355469 169.402344 201.527344 168.109375 183.34375 168.109375 C 165.164062 168.109375 148.335938 169.402344 132.945312 171.589844 Z M 132.9375 171.589844 " fill-opacity="1" fill-rule="nonzero"/><path fill="#ffffff" d="M 183.339844 155.300781 C 200.207031 155.300781 216.371094 156.382812 231.492188 158.378906 C 228.3125 141.734375 223.992188 126.664062 218.625 114.207031 L 187.859375 144.972656 C 187.308594 145.523438 186.65625 145.914062 185.96875 146.226562 C 185.765625 146.324219 185.558594 146.382812 185.34375 146.453125 C 184.816406 146.632812 184.285156 146.734375 183.734375 146.765625 C 183.59375 146.773438 183.46875 146.847656 183.332031 146.847656 C 183.257812 146.847656 183.171875 146.804688 183.097656 146.804688 C 182.347656 146.777344 181.605469 146.664062 180.878906 146.363281 C 178.488281 145.371094 176.929688 143.03125 176.929688 140.445312 L 176.929688 78.6875 C 159.523438 84.859375 143.265625 115.582031 135.082031 158.390625 C 150.234375 156.386719 166.425781 155.300781 183.332031 155.300781 Z M 183.339844 155.300781 " fill-opacity="1" fill-rule="nonzero"/><path fill="#ffffff" d="M 327.941406 222.152344 C 327.941406 222.152344 327.941406 222.113281 327.941406 222.09375 C 327.878906 203.121094 297.027344 183.230469 246.980469 173.773438 C 249.054688 189.253906 250.167969 205.457031 250.167969 222.152344 C 250.167969 238.847656 249.054688 255.050781 246.980469 270.53125 C 297.027344 261.074219 327.878906 241.183594 327.941406 222.203125 C 327.941406 222.183594 327.941406 222.164062 327.941406 222.144531 Z M 327.941406 222.152344 " fill-opacity="1" fill-rule="nonzero"/><path fill="#ffffff" d="M 324.855469 251.882812 C 308.351562 266.3125 280.0625 277.683594 244.945312 283.859375 C 238.664062 319.824219 227.5625 347.453125 213.53125 363.550781 C 269.230469 351.671875 313.15625 307.640625 324.855469 251.875 Z M 324.855469 251.882812 " fill-opacity="1" fill-rule="nonzero"/><path fill="#ffffff" d="M 41.835938 251.890625 C 53.535156 307.648438 97.460938 351.679688 153.15625 363.554688 C 139.121094 347.453125 128.019531 319.832031 121.746094 283.867188 C 86.628906 277.6875 58.332031 266.320312 41.828125 251.890625 Z M 41.835938 251.890625 " fill-opacity="1" fill-rule="nonzero"/><path fill="#ffffff" d="M 272.152344 108.035156 L 229.878906 108.035156 C 236.328125 122.707031 241.460938 140.582031 244.949219 160.433594 C 280.070312 166.609375 308.359375 177.980469 324.855469 192.417969 C 317.976562 159.183594 299.648438 129.453125 272.152344 108.035156 Z M 272.152344 108.035156 " fill-opacity="1" fill-rule="nonzero"/><path fill="#ffffff" d="M 153.03125 80.890625 C 97.441406 92.816406 53.605469 136.6875 41.898438 192.359375 C 58.410156 177.953125 86.671875 166.605469 121.746094 160.433594 C 128.003906 124.578125 139.058594 97.011719 153.03125 80.890625 Z M 153.03125 80.890625 " fill-opacity="1" fill-rule="nonzero"/><path fill="#ffffff" d="M 119.710938 270.53125 C 117.636719 255.050781 116.523438 238.847656 116.523438 222.152344 C 116.523438 205.457031 117.636719 189.261719 119.710938 173.773438 C 69.675781 183.230469 38.824219 203.109375 38.753906 222.082031 C 38.753906 222.109375 38.753906 222.128906 38.753906 222.152344 C 38.753906 222.171875 38.753906 222.191406 38.753906 222.210938 C 38.8125 241.191406 69.667969 261.074219 119.71875 270.539062 Z M 119.710938 270.53125 " fill-opacity="1" fill-rule="nonzero"/><g clip-path="url(#61366639d6)"><path fill="#ffffff" d="M 217.628906 97.105469 C 218.832031 95.902344 220.449219 95.230469 222.152344 95.230469 L 350.585938 95.230469 L 350.585938 8.25 L 189.742188 8.25 L 189.742188 124.992188 Z M 217.628906 97.105469 " fill-opacity="1" fill-rule="nonzero"/></g></svg>