<svg xmlns="http://www.w3.org/2000/svg" xmlns:xlink="http://www.w3.org/1999/xlink" width="1024" zoomAndPan="magnify" viewBox="0 0 768 767.999994" height="1024" preserveAspectRatio="xMidYMid meet" version="1.0"><defs><clipPath id="4626489eef"><path d="M 735.636719 817.125 L 24.789062 817.125 C -4.492188 817.125 -28.347656 793.265625 -28.347656 763.988281 L -28.347656 53.136719 C -28.347656 23.859375 -4.492188 0 24.789062 0 L 735.636719 0 C 764.917969 0 788.777344 23.859375 788.777344 53.136719 L 788.777344 763.988281 C 788.777344 793.265625 764.917969 817.125 735.636719 817.125 Z M 735.636719 817.125 " clip-rule="nonzero"/></clipPath><clipPath id="09a621fb85"><path d="M 414 165.15625 L 650.617188 165.15625 L 650.617188 609 L 414 609 Z M 414 165.15625 " clip-rule="nonzero"/></clipPath><clipPath id="a0245e0b79"><path d="M 414 462.105469 L 650.617188 462.105469 L 650.617188 547 L 414 547 Z M 414 462.105469 " clip-rule="nonzero"/></clipPath><clipPath id="154fe093ec"><path d="M 558.039062 167.496094 C 564.808594 154.511719 582.617188 219.289062 587.945312 247.140625 C 595.746094 287.929688 602.019531 362.632812 604.863281 412.210938 C 607.796875 463.394531 588.59375 492.929688 612.121094 538.730469 C 623.382812 560.65625 653.597656 607.191406 650.382812 608.066406 C 633.125 612.753906 557.671875 597.167969 539.796875 590.644531 C 511.128906 580.175781 485.832031 557.386719 456 550.910156 C 451.359375 549.902344 415.925781 550.863281 415.167969 549.996094 C 409.1875 543.148438 428.132812 467.128906 430.574219 458.050781 C 445.269531 403.542969 473.183594 353.785156 473.875 297.417969 C 474.386719 255.867188 558.039062 167.496094 558.039062 167.496094 Z M 558.039062 167.496094 " clip-rule="nonzero"/></clipPath><clipPath id="8e088e55f7"><path d="M 117.375 152.464844 L 564 152.464844 L 564 615.214844 L 117.375 615.214844 Z M 117.375 152.464844 " clip-rule="nonzero"/></clipPath><clipPath id="6138da8b63"><path d="M 154.175781 443.070312 L 482.855469 443.070312 L 482.855469 535.710938 L 154.175781 535.710938 Z M 154.175781 443.070312 " clip-rule="nonzero"/></clipPath><clipPath id="82be585f5d"><path d="M 303.117188 159.457031 C 274.574219 165.371094 260.066406 218.089844 254.6875 232.261719 C 238.148438 275.859375 234.527344 322.726562 222.871094 367.621094 C 210.40625 415.664062 193.222656 470.667969 162.691406 510.609375 C 152.574219 523.832031 140.394531 535.878906 127.789062 546.746094 C 124.542969 549.546875 115.398438 551.226562 117.761719 554.804688 C 119.976562 558.15625 127.726562 560.230469 131.109375 561.550781 C 159.269531 572.550781 188.613281 561.214844 216.035156 570.277344 C 236.542969 577.054688 245.96875 601.921875 267.992188 604.703125 C 292.789062 607.84375 312.117188 588.886719 336.1875 588.296875 C 360.234375 587.707031 412.40625 592.644531 425.390625 613.929688 C 437.714844 634.140625 469.761719 361.035156 480.890625 328.269531 C 535.875 166.441406 556.988281 176.800781 563.035156 168.359375 C 576.722656 149.25 354.507812 148.800781 303.117188 159.457031 Z M 303.117188 159.457031 " clip-rule="nonzero"/></clipPath></defs><rect x="-76.8" width="921.6" fill="#ffffff" y="-76.799999" height="921.599993" fill-opacity="1"/><rect x="-76.8" width="921.6" fill="#fff5e6" y="-76.799999" height="921.599993" fill-opacity="1"/><g clip-path="url(#4626489eef)"><rect x="-76.8" width="921.6" fill="#ca530e" y="-76.799999" height="921.599993" fill-opacity="1"/></g><g clip-path="url(#09a621fb85)"><path fill="#f7b973" d="M 558.039062 167.496094 C 564.808594 154.511719 597.699219 220.992188 604.863281 412.210938 C 607.796875 463.394531 588.59375 492.929688 612.121094 538.730469 C 623.382812 560.65625 653.597656 607.191406 650.382812 608.066406 C 633.125 612.753906 557.671875 597.167969 539.796875 590.644531 C 511.128906 580.175781 485.832031 557.386719 456 550.910156 C 451.359375 549.902344 415.925781 550.863281 415.167969 549.996094 C 409.1875 543.144531 428.132812 467.128906 430.574219 458.050781 C 445.269531 403.542969 473.183594 353.785156 473.875 297.417969 C 474.386719 255.867188 558.039062 167.496094 558.039062 167.496094 " fill-opacity="1" fill-rule="evenodd"/></g><g clip-path="url(#a0245e0b79)"><g clip-path="url(#154fe093ec)"><path stroke-linecap="round" transform="matrix(0.126902, 0, 0, -0.126902, 117.374983, 615.557678)" fill="none" stroke-linejoin="round" d="M 2396.067395 1125.181853 C 2384.30884 1145.189866 2441.531757 1113.392516 2464.741051 1113.484861 C 2511.836835 1113.700332 2558.56324 1116.870832 2605.258864 1122.996362 C 2740.051306 1140.603414 2856.651848 1154.732149 2991.259602 1173.508899 C 3456.984575 1238.427205 3810.264517 730.59306 4278.821393 874.897005 M 2161.481141 789.201147 C 2162.219899 797.912328 2215.318086 797.481386 2220.150791 797.666075 C 2378.891286 803.853169 2537.939596 797.17357 2696.803217 800.959702 C 2866.840544 805.022868 3049.375183 829.55577 3216.672951 788.924113 C 3577.80219 701.258236 3668.823257 482.955426 3973.345211 605.281338 " stroke="#2c3586" stroke-width="48.779999" stroke-opacity="1" stroke-miterlimit="10"/></g></g><g clip-path="url(#8e088e55f7)"><path fill="#ffebcd" d="M 303.117188 159.457031 C 354.507812 148.800781 576.722656 149.25 563.035156 168.359375 C 556.988281 176.800781 505.578125 194.433594 480.890625 328.269531 C 456.203125 462.109375 437.714844 634.140625 425.390625 613.929688 C 412.40625 592.644531 360.234375 587.707031 336.1875 588.296875 C 312.117188 588.886719 292.789062 607.84375 267.992188 604.703125 C 245.96875 601.921875 236.542969 577.054688 216.035156 570.277344 C 188.613281 561.214844 159.269531 572.550781 131.109375 561.550781 C 127.726562 560.230469 119.976562 558.15625 117.761719 554.804688 C 115.398438 551.226562 124.542969 549.546875 127.789062 546.746094 C 140.394531 535.878906 152.574219 523.832031 162.691406 510.609375 C 193.222656 470.667969 210.40625 415.664062 222.871094 367.621094 C 234.527344 322.726562 238.148438 275.859375 254.6875 232.261719 C 260.066406 218.089844 274.574219 165.371094 303.117188 159.457031 " fill-opacity="1" fill-rule="evenodd"/></g><g clip-path="url(#6138da8b63)"><g clip-path="url(#82be585f5d)"><path stroke-linecap="round" transform="matrix(0.126902, 0, 0, -0.126902, 117.374983, 615.557678)" fill="none" stroke-linejoin="round" d="M 400.314298 1050.998298 C 449.133849 1153.069945 936.282787 1175.632827 1033.521728 1166.459922 C 1258.319447 1145.251429 1457.72238 1060.294329 1669.191684 990.543318 C 2106.628405 846.177811 2474.99131 1136.201651 2842.615458 1322.645548 M 326.253869 825.831201 C 1148.490848 1233.963879 1370.118066 610.914363 2074.800274 670.415114 C 2261.182608 686.113709 2440.669873 791.540545 2598.209887 884.777885 C 2611.199704 892.473274 2697.141815 959.115347 2713.763856 953.759356 " stroke="#2c3586" stroke-width="64.019997" stroke-opacity="1" stroke-miterlimit="10"/></g></g></svg>