<svg xmlns="http://www.w3.org/2000/svg" xmlns:xlink="http://www.w3.org/1999/xlink" width="1024" zoomAndPan="magnify" viewBox="0 0 768 767.999994" height="1024" preserveAspectRatio="xMidYMid meet" version="1.0"><defs><clipPath id="3577c1c4dd"><path d="M 161 126.5 L 607 126.5 L 607 641.75 L 161 641.75 Z M 161 126.5 " clip-rule="nonzero"/></clipPath></defs><rect x="-76.8" width="921.6" fill="#ffffff" y="-76.799999" height="921.599993" fill-opacity="1"/><rect x="-76.8" width="921.6" fill="#ca530e" y="-76.799999" height="921.599993" fill-opacity="1"/><g clip-path="url(#3577c1c4dd)"><path fill="#ffffff" d="M 352.703125 545.476562 C 349.714844 545.476562 347.285156 543.046875 347.285156 540.0625 C 347.285156 537.074219 349.714844 534.644531 352.703125 534.644531 L 415.261719 534.644531 C 418.25 534.644531 420.679688 537.074219 420.679688 540.0625 C 420.679688 543.046875 418.25 545.476562 415.261719 545.476562 Z M 401.542969 262.449219 C 398.582031 262.101562 396.457031 259.40625 396.804688 256.445312 C 397.148438 253.484375 399.847656 251.359375 402.808594 251.707031 C 426.953125 254.597656 448.917969 267.296875 463.496094 286.753906 C 465.28125 289.132812 464.792969 292.519531 462.414062 294.304688 C 460.035156 296.089844 456.648438 295.601562 454.863281 293.222656 C 442.042969 276.105469 422.777344 264.992188 401.542969 262.449219 Z M 445.015625 510.476562 L 322.949219 510.476562 L 322.949219 577.492188 C 322.949219 587.789062 331.363281 596.214844 341.671875 596.214844 C 369.878906 596.214844 398.089844 596.214844 426.292969 596.214844 C 436.574219 596.214844 445.015625 587.773438 445.015625 577.492188 Z M 444.886719 496.5625 L 444.886719 491.164062 C 444.886719 479.640625 446.929688 468.886719 450.980469 458.929688 C 461.136719 434.011719 482.589844 422.222656 494.386719 393.261719 C 500.039062 379.40625 503.160156 364.210938 503.160156 348.285156 C 503.160156 282.457031 449.824219 229.101562 383.984375 229.101562 C 318.160156 229.101562 264.808594 282.460938 264.808594 348.285156 C 264.808594 364.210938 267.925781 379.40625 273.578125 393.261719 C 285.371094 422.195312 306.683594 433.699219 316.984375 458.929688 C 321.039062 468.886719 323.078125 479.640625 323.078125 491.164062 L 323.078125 496.5625 Z M 378.566406 131.9375 C 378.566406 128.949219 380.996094 126.519531 383.984375 126.519531 C 386.96875 126.519531 389.398438 128.949219 389.398438 131.9375 L 389.398438 183.851562 C 389.398438 186.835938 386.96875 189.265625 383.984375 189.265625 C 380.996094 189.265625 378.566406 186.835938 378.566406 183.851562 Z M 410.597656 607.046875 L 357.363281 607.046875 L 357.363281 614.894531 C 357.363281 622.203125 360.363281 628.863281 365.183594 633.683594 C 369.992188 638.511719 376.65625 641.503906 383.976562 641.503906 C 391.296875 641.503906 397.96875 638.511719 402.789062 633.699219 C 407.601562 628.875 410.597656 622.207031 410.597656 614.894531 Z M 497.238281 469.210938 C 495.128906 467.101562 495.128906 463.664062 497.238281 461.550781 C 499.347656 459.441406 502.789062 459.441406 504.898438 461.550781 L 541.605469 498.261719 C 543.71875 500.371094 543.71875 503.8125 541.605469 505.921875 C 539.496094 508.03125 536.058594 508.03125 533.945312 505.921875 Z M 226.328125 198.300781 C 224.214844 196.191406 224.214844 192.75 226.328125 190.640625 C 228.4375 188.53125 231.875 188.53125 233.988281 190.640625 L 270.695312 227.351562 C 272.804688 229.460938 272.804688 232.902344 270.695312 235.011719 C 268.585938 237.121094 265.144531 237.121094 263.035156 235.011719 Z M 263.035156 461.550781 C 265.144531 459.441406 268.585938 459.441406 270.695312 461.550781 C 272.804688 463.664062 272.804688 467.101562 270.695312 469.210938 L 233.988281 505.921875 C 231.875 508.03125 228.4375 508.03125 226.328125 505.921875 C 224.214844 503.8125 224.214844 500.371094 226.328125 498.261719 Z M 533.945312 190.640625 C 536.058594 188.53125 539.496094 188.53125 541.605469 190.640625 C 543.71875 192.75 543.71875 196.191406 541.605469 198.300781 L 504.898438 235.011719 C 502.789062 237.121094 499.347656 237.121094 497.238281 235.011719 C 495.128906 232.902344 495.128906 229.460938 497.238281 227.351562 Z M 549.585938 353.699219 C 546.601562 353.699219 544.171875 351.269531 544.171875 348.285156 C 544.171875 345.296875 546.601562 342.867188 549.585938 342.867188 L 601.503906 342.867188 C 604.488281 342.867188 606.917969 345.296875 606.917969 348.285156 C 606.917969 351.269531 604.488281 353.699219 601.503906 353.699219 Z M 166.464844 353.699219 C 163.476562 353.699219 161.046875 351.269531 161.046875 348.285156 C 161.046875 345.296875 163.476562 342.867188 166.464844 342.867188 L 218.378906 342.867188 C 221.363281 342.867188 223.792969 345.296875 223.792969 348.285156 C 223.792969 351.269531 221.363281 353.699219 218.378906 353.699219 Z M 352.703125 572.050781 C 349.714844 572.050781 347.285156 569.621094 347.285156 566.636719 C 347.285156 563.648438 349.714844 561.21875 352.703125 561.21875 L 415.261719 561.21875 C 418.25 561.21875 420.679688 563.648438 420.679688 566.636719 C 420.679688 569.621094 418.25 572.050781 415.261719 572.050781 Z M 352.703125 572.050781 " fill-opacity="1" fill-rule="nonzero"/></g></svg>