<svg xmlns="http://www.w3.org/2000/svg" xmlns:xlink="http://www.w3.org/1999/xlink" width="1024" zoomAndPan="magnify" viewBox="0 0 768 767.999994" height="1024" preserveAspectRatio="xMidYMid meet" version="1.0"><rect x="-76.8" width="921.6" fill="#ffffff" y="-76.799999" height="921.599993" fill-opacity="1"/><rect x="-76.8" width="921.6" fill="#ca530e" y="-76.799999" height="921.599993" fill-opacity="1"/><path fill="#ffffff" d="M 747.054688 266.757812 L 646.804688 190.878906 L 646.804688 44.261719 C 646.804688 43.398438 646.722656 42.539062 646.554688 41.691406 C 646.382812 40.84375 646.132812 40.019531 645.804688 39.222656 C 645.472656 38.421875 645.066406 37.664062 644.585938 36.945312 C 644.105469 36.222656 643.558594 35.558594 642.949219 34.945312 C 642.335938 34.335938 641.671875 33.789062 640.953125 33.308594 C 640.230469 32.828125 639.472656 32.421875 638.675781 32.089844 C 637.875 31.761719 637.050781 31.511719 636.203125 31.34375 C 635.355469 31.171875 634.496094 31.089844 633.632812 31.089844 L 531.410156 31.089844 C 530.542969 31.089844 529.6875 31.171875 528.839844 31.34375 C 527.992188 31.511719 527.167969 31.761719 526.367188 32.089844 C 525.566406 32.421875 524.808594 32.828125 524.089844 33.308594 C 523.371094 33.789062 522.707031 34.335938 522.09375 34.945312 C 521.480469 35.558594 520.9375 36.222656 520.457031 36.945312 C 519.976562 37.664062 519.570312 38.421875 519.238281 39.222656 C 518.90625 40.019531 518.65625 40.84375 518.488281 41.691406 C 518.320312 42.539062 518.234375 43.398438 518.234375 44.261719 L 518.234375 95.507812 L 416.273438 18.574219 C 415.09375 17.699219 413.878906 16.871094 412.628906 16.09375 C 411.382812 15.316406 410.105469 14.585938 408.800781 13.910156 C 407.496094 13.234375 406.164062 12.609375 404.808594 12.039062 C 403.453125 11.46875 402.078125 10.953125 400.679688 10.492188 C 399.285156 10.03125 397.871094 9.628906 396.445312 9.277344 C 395.015625 8.929688 393.574219 8.640625 392.121094 8.40625 C 390.671875 8.171875 389.210938 7.996094 387.746094 7.878906 C 386.28125 7.765625 384.8125 7.707031 383.339844 7.707031 C 381.871094 7.707031 380.402344 7.765625 378.9375 7.878906 C 377.472656 7.996094 376.011719 8.171875 374.558594 8.40625 C 373.109375 8.640625 371.667969 8.929688 370.238281 9.277344 C 368.808594 9.628906 367.398438 10.03125 366 10.492188 C 364.605469 10.953125 363.230469 11.46875 361.875 12.039062 C 360.519531 12.609375 359.1875 13.234375 357.882812 13.910156 C 356.578125 14.585938 355.300781 15.316406 354.050781 16.09375 C 352.804688 16.871094 351.589844 17.699219 350.410156 18.574219 L 19.628906 266.757812 C 17.191406 268.523438 14.949219 270.507812 12.90625 272.71875 C 10.859375 274.925781 9.054688 277.3125 7.480469 279.878906 C 5.910156 282.445312 4.605469 285.140625 3.570312 287.964844 C 2.53125 290.789062 1.78125 293.6875 1.316406 296.660156 C 1.101562 298.160156 0.957031 299.664062 0.890625 301.175781 C 0.824219 302.683594 0.832031 304.195312 0.914062 305.707031 C 1 307.21875 1.15625 308.71875 1.390625 310.214844 C 1.621094 311.707031 1.929688 313.1875 2.308594 314.652344 C 2.691406 316.117188 3.140625 317.558594 3.664062 318.976562 C 4.1875 320.398438 4.78125 321.785156 5.445312 323.144531 C 6.105469 324.507812 6.835938 325.832031 7.628906 327.117188 C 8.421875 328.40625 9.277344 329.652344 10.195312 330.851562 C 11.113281 332.054688 12.089844 333.210938 13.121094 334.316406 C 14.15625 335.421875 15.238281 336.472656 16.378906 337.46875 C 17.515625 338.464844 18.699219 339.40625 19.929688 340.285156 C 21.160156 341.164062 22.433594 341.980469 23.746094 342.730469 C 25.054688 343.484375 26.402344 344.171875 27.78125 344.789062 C 29.164062 345.40625 30.570312 345.957031 32.007812 346.433594 C 33.441406 346.914062 34.894531 347.320312 36.371094 347.652344 C 37.847656 347.988281 39.335938 348.246094 40.835938 348.433594 C 43.03125 348.558594 45.226562 348.558594 47.421875 348.433594 C 49.882812 348.433594 52.324219 348.238281 54.75 347.84375 C 57.175781 347.445312 59.550781 346.855469 61.882812 346.074219 C 64.210938 345.289062 66.460938 344.320312 68.632812 343.167969 C 70.804688 342.019531 72.867188 340.699219 74.824219 339.210938 L 77.0625 337.5 L 77.0625 750.214844 C 77.0625 751.082031 77.148438 751.9375 77.316406 752.785156 C 77.484375 753.632812 77.734375 754.457031 78.066406 755.257812 C 78.398438 756.054688 78.804688 756.816406 79.285156 757.535156 C 79.765625 758.253906 80.308594 758.917969 80.921875 759.53125 C 81.535156 760.144531 82.199219 760.6875 82.917969 761.167969 C 83.636719 761.648438 84.394531 762.054688 85.195312 762.386719 C 85.996094 762.71875 86.820312 762.96875 87.667969 763.136719 C 88.515625 763.304688 89.371094 763.390625 90.238281 763.390625 L 677.105469 763.390625 C 677.96875 763.390625 678.828125 763.304688 679.675781 763.136719 C 680.523438 762.96875 681.347656 762.71875 682.144531 762.386719 C 682.945312 762.054688 683.703125 761.648438 684.421875 761.167969 C 685.140625 760.6875 685.808594 760.144531 686.417969 759.53125 C 687.03125 758.917969 687.578125 758.253906 688.058594 757.535156 C 688.539062 756.816406 688.945312 756.054688 689.273438 755.257812 C 689.605469 754.457031 689.855469 753.632812 690.023438 752.785156 C 690.195312 751.9375 690.277344 751.082031 690.277344 750.214844 L 690.277344 338.027344 L 692.515625 339.738281 C 694.472656 341.226562 696.539062 342.546875 698.707031 343.695312 C 700.878906 344.847656 703.128906 345.816406 705.460938 346.597656 C 707.789062 347.382812 710.167969 347.972656 712.59375 348.367188 C 715.019531 348.765625 717.460938 348.960938 719.917969 348.960938 C 721.695312 348.945312 723.464844 348.832031 725.226562 348.617188 C 726.992188 348.402344 728.738281 348.085938 730.464844 347.671875 C 732.191406 347.253906 733.890625 346.742188 735.558594 346.132812 C 737.226562 345.523438 738.855469 344.816406 740.445312 344.019531 C 742.03125 343.222656 743.570312 342.339844 745.054688 341.367188 C 746.542969 340.394531 747.96875 339.339844 749.332031 338.203125 C 750.699219 337.066406 751.996094 335.855469 753.222656 334.570312 C 754.449219 333.285156 755.597656 331.933594 756.671875 330.515625 C 758.488281 328.128906 760.046875 325.582031 761.355469 322.878906 C 762.660156 320.179688 763.6875 317.375 764.433594 314.464844 C 765.183594 311.558594 765.632812 308.609375 765.789062 305.609375 C 765.945312 302.613281 765.804688 299.628906 765.367188 296.660156 C 764.902344 293.6875 764.152344 290.789062 763.113281 287.964844 C 762.078125 285.140625 760.773438 282.445312 759.199219 279.878906 C 757.628906 277.3125 755.820312 274.925781 753.777344 272.71875 C 751.734375 270.507812 749.492188 268.523438 747.054688 266.757812 Z M 544.1875 57.039062 L 620.460938 57.039062 L 620.460938 171.777344 L 543.921875 114.476562 Z M 490.570312 737.4375 L 276.109375 737.4375 L 276.109375 375.304688 C 276.105469 374.773438 276.128906 374.238281 276.175781 373.707031 C 276.226562 373.175781 276.300781 372.648438 276.398438 372.125 C 276.5 371.601562 276.625 371.085938 276.777344 370.574219 C 276.929688 370.0625 277.105469 369.558594 277.304688 369.066406 C 277.507812 368.570312 277.734375 368.085938 277.980469 367.617188 C 278.230469 367.144531 278.5 366.683594 278.796875 366.242188 C 279.089844 365.796875 279.40625 365.367188 279.742188 364.953125 C 280.078125 364.539062 280.433594 364.140625 280.808594 363.761719 C 281.1875 363.382812 281.578125 363.023438 281.992188 362.683594 C 282.402344 362.34375 282.828125 362.027344 283.269531 361.730469 C 283.714844 361.429688 284.167969 361.15625 284.640625 360.902344 C 285.109375 360.652344 285.589844 360.421875 286.082031 360.214844 C 286.574219 360.011719 287.078125 359.832031 287.585938 359.675781 C 288.097656 359.519531 288.613281 359.390625 289.136719 359.285156 C 289.660156 359.179688 290.1875 359.101562 290.71875 359.050781 C 291.25 358.996094 291.78125 358.972656 292.3125 358.972656 L 474.367188 358.972656 C 474.898438 358.972656 475.429688 358.996094 475.957031 359.050781 C 476.484375 359.101562 477.007812 359.179688 477.53125 359.28125 C 478.050781 359.386719 478.5625 359.515625 479.070312 359.667969 C 479.578125 359.824219 480.078125 360 480.570312 360.203125 C 481.058594 360.40625 481.539062 360.632812 482.007812 360.882812 C 482.472656 361.132812 482.929688 361.40625 483.371094 361.703125 C 483.8125 361.996094 484.238281 362.3125 484.648438 362.648438 C 485.058594 362.984375 485.449219 363.339844 485.824219 363.714844 C 486.199219 364.09375 486.558594 364.484375 486.894531 364.894531 C 487.230469 365.304688 487.546875 365.730469 487.839844 366.171875 C 488.136719 366.613281 488.40625 367.066406 488.660156 367.535156 C 488.910156 368.003906 489.136719 368.484375 489.339844 368.972656 C 489.542969 369.464844 489.71875 369.960938 489.875 370.46875 C 490.027344 370.976562 490.15625 371.492188 490.261719 372.011719 C 490.363281 372.535156 490.441406 373.058594 490.492188 373.585938 C 490.546875 374.113281 490.570312 374.644531 490.570312 375.175781 Z M 664.328125 737.4375 L 515.996094 737.4375 L 515.996094 375.304688 C 515.992188 373.945312 515.921875 372.585938 515.785156 371.230469 C 515.644531 369.875 515.441406 368.527344 515.175781 367.195312 C 514.90625 365.859375 514.570312 364.539062 514.175781 363.238281 C 513.777344 361.933594 513.316406 360.652344 512.792969 359.394531 C 512.269531 358.136719 511.683594 356.910156 511.042969 355.707031 C 510.398438 354.507812 509.699219 353.339844 508.941406 352.210938 C 508.183594 351.078125 507.371094 349.984375 506.507812 348.933594 C 505.640625 347.878906 504.726562 346.871094 503.765625 345.910156 C 502.800781 344.945312 501.792969 344.03125 500.742188 343.167969 C 499.6875 342.304688 498.597656 341.492188 497.464844 340.734375 C 496.332031 339.976562 495.167969 339.277344 493.964844 338.632812 C 492.765625 337.988281 491.535156 337.40625 490.277344 336.882812 C 489.019531 336.359375 487.742188 335.898438 486.4375 335.5 C 485.136719 335.101562 483.816406 334.769531 482.480469 334.5 C 481.144531 334.230469 479.800781 334.027344 478.445312 333.890625 C 477.089844 333.753906 475.730469 333.683594 474.367188 333.679688 L 292.3125 333.679688 C 290.953125 333.683594 289.59375 333.753906 288.238281 333.890625 C 286.882812 334.027344 285.539062 334.230469 284.203125 334.5 C 282.867188 334.769531 281.546875 335.101562 280.246094 335.5 C 278.941406 335.898438 277.664062 336.359375 276.40625 336.882812 C 275.148438 337.40625 273.917969 337.988281 272.71875 338.632812 C 271.515625 339.277344 270.351562 339.976562 269.21875 340.734375 C 268.085938 341.492188 266.992188 342.304688 265.941406 343.167969 C 264.890625 344.03125 263.878906 344.945312 262.917969 345.910156 C 261.953125 346.871094 261.039062 347.878906 260.175781 348.933594 C 259.3125 349.984375 258.5 351.078125 257.742188 352.210938 C 256.984375 353.339844 256.285156 354.507812 255.640625 355.707031 C 254.996094 356.910156 254.414062 358.136719 253.890625 359.394531 C 253.367188 360.652344 252.90625 361.933594 252.507812 363.238281 C 252.109375 364.539062 251.777344 365.859375 251.507812 367.195312 C 251.238281 368.527344 251.035156 369.875 250.898438 371.230469 C 250.761719 372.585938 250.691406 373.945312 250.6875 375.304688 L 250.6875 737.4375 L 102.355469 737.4375 L 102.355469 319.449219 L 383.339844 108.679688 L 664.328125 319.449219 Z M 735.855469 315.894531 C 735.445312 316.410156 735.011719 316.910156 734.554688 317.386719 C 734.09375 317.863281 733.613281 318.316406 733.113281 318.746094 C 732.609375 319.175781 732.089844 319.582031 731.550781 319.960938 C 731.011719 320.34375 730.453125 320.699219 729.878906 321.023438 C 729.304688 321.351562 728.714844 321.652344 728.113281 321.925781 C 727.511719 322.195312 726.898438 322.4375 726.269531 322.652344 C 725.644531 322.863281 725.011719 323.046875 724.367188 323.199219 C 723.726562 323.355469 723.074219 323.476562 722.421875 323.566406 C 721.765625 323.65625 721.109375 323.71875 720.449219 323.746094 C 719.789062 323.773438 719.128906 323.769531 718.46875 323.734375 C 717.808594 323.699219 717.152344 323.636719 716.496094 323.539062 C 715.84375 323.441406 715.195312 323.3125 714.554688 323.152344 C 713.910156 322.996094 713.28125 322.804688 712.65625 322.585938 C 712.03125 322.367188 711.421875 322.117188 710.820312 321.839844 C 710.21875 321.5625 709.636719 321.257812 709.0625 320.925781 C 708.492188 320.59375 707.941406 320.230469 707.402344 319.847656 L 391.246094 82.726562 C 390.691406 82.332031 390.109375 81.984375 389.5 81.679688 C 388.890625 81.375 388.265625 81.117188 387.617188 80.910156 C 386.96875 80.703125 386.308594 80.546875 385.632812 80.441406 C 384.960938 80.339844 384.285156 80.285156 383.605469 80.285156 C 382.925781 80.285156 382.246094 80.339844 381.574219 80.441406 C 380.902344 80.546875 380.242188 80.703125 379.59375 80.910156 C 378.945312 81.117188 378.316406 81.375 377.707031 81.679688 C 377.101562 81.984375 376.519531 82.332031 375.964844 82.726562 L 59.28125 319.449219 C 58.214844 320.25 57.085938 320.941406 55.886719 321.523438 C 54.6875 322.101562 53.445312 322.5625 52.160156 322.898438 C 50.871094 323.238281 49.5625 323.449219 48.234375 323.535156 C 46.90625 323.621094 45.582031 323.574219 44.261719 323.402344 C 41.644531 322.96875 39.199219 322.066406 36.925781 320.703125 C 34.648438 319.335938 32.703125 317.601562 31.089844 315.5 C 30.320312 314.398438 29.667969 313.234375 29.125 312.003906 C 28.585938 310.773438 28.167969 309.503906 27.875 308.195312 C 27.582031 306.886719 27.414062 305.558594 27.378906 304.21875 C 27.34375 302.875 27.441406 301.542969 27.664062 300.21875 C 28.074219 297.59375 28.960938 295.140625 30.328125 292.859375 C 31.695312 290.582031 33.441406 288.640625 35.566406 287.046875 L 365.6875 38.992188 C 368.226562 37.066406 371.007812 35.59375 374.027344 34.578125 C 377.050781 33.566406 380.152344 33.058594 383.339844 33.066406 C 386.515625 33.078125 389.609375 33.578125 392.625 34.570312 C 395.640625 35.558594 398.429688 36.992188 400.992188 38.859375 L 731.773438 286.914062 C 733.898438 288.511719 735.644531 290.449219 737.011719 292.726562 C 738.378906 295.007812 739.269531 297.460938 739.675781 300.085938 C 739.875 301.421875 739.9375 302.765625 739.871094 304.113281 C 739.804688 305.464844 739.605469 306.792969 739.277344 308.105469 C 738.953125 309.414062 738.5 310.683594 737.925781 311.902344 C 737.347656 313.125 736.660156 314.28125 735.855469 315.367188 Z M 735.855469 315.894531 " fill-opacity="1" fill-rule="nonzero"/></svg>