<svg xmlns="http://www.w3.org/2000/svg" xmlns:xlink="http://www.w3.org/1999/xlink" width="1024" zoomAndPan="magnify" viewBox="0 0 768 767.999994" height="1024" preserveAspectRatio="xMidYMid meet" version="1.0"><defs><clipPath id="b3758377d9"><path d="M 782.816406 819.335938 L 28.070312 819.335938 C -3.015625 819.335938 -28.347656 794.003906 -28.347656 762.917969 L -28.347656 8.167969 C -28.347656 -22.917969 -3.015625 -48.25 28.070312 -48.25 L 782.816406 -48.25 C 813.90625 -48.25 839.238281 -22.917969 839.238281 8.167969 L 839.238281 762.917969 C 839.238281 794.003906 813.90625 819.335938 782.816406 819.335938 Z M 782.816406 819.335938 " clip-rule="nonzero"/></clipPath><clipPath id="750a7ca0f2"><path d="M 109 144 L 659 144 L 659 626.132812 L 109 626.132812 Z M 109 144 " clip-rule="nonzero"/></clipPath></defs><rect x="-76.8" width="921.6" fill="#ffffff" y="-76.799999" height="921.599993" fill-opacity="1"/><rect x="-76.8" width="921.6" fill="#fff5e6" y="-76.799999" height="921.599993" fill-opacity="1"/><g clip-path="url(#b3758377d9)"><rect x="-76.8" width="921.6" fill="#ca530e" y="-76.799999" height="921.599993" fill-opacity="1"/></g><path fill="#ffffff" d="M 399.832031 381.109375 C 398.605469 381.109375 397.351562 380.769531 396.234375 380.058594 C 393.109375 378.070312 392.195312 373.925781 394.183594 370.800781 C 399.6875 362.140625 409.832031 356.761719 420.648438 356.761719 C 420.6875 356.757812 420.730469 356.757812 420.773438 356.757812 C 431.519531 356.757812 441.613281 362.113281 447.109375 370.761719 C 449.101562 373.886719 448.183594 378.03125 445.058594 380.023438 C 441.921875 382.027344 437.78125 381.082031 435.796875 377.964844 C 432.722656 373.136719 427.082031 369.855469 420.671875 370.171875 C 414.378906 370.171875 408.570312 373.171875 405.496094 378 C 404.21875 380.007812 402.050781 381.109375 399.832031 381.109375 Z M 399.832031 381.109375 " fill-opacity="1" fill-rule="nonzero"/><path fill="#ffffff" d="M 325.851562 381.171875 C 324.625 381.171875 323.371094 380.832031 322.253906 380.121094 C 319.128906 378.132812 318.210938 373.984375 320.203125 370.859375 C 325.714844 362.203125 335.867188 356.828125 346.699219 356.828125 C 346.742188 356.824219 346.78125 356.824219 346.824219 356.824219 C 357.589844 356.824219 367.671875 362.191406 373.144531 370.839844 C 375.117188 373.976562 374.183594 378.117188 371.050781 380.097656 C 367.925781 382.074219 363.78125 381.140625 361.800781 378.007812 C 358.773438 373.214844 353.027344 370.242188 346.800781 370.242188 C 340.285156 370.03125 334.597656 373.21875 331.515625 378.070312 C 330.238281 380.074219 328.070312 381.171875 325.851562 381.171875 Z M 325.851562 381.171875 " fill-opacity="1" fill-rule="nonzero"/><path fill="#ffffff" d="M 383.570312 461.980469 C 371.816406 461.984375 359.304688 455.941406 348.34375 444.972656 C 335.867188 432.484375 327.496094 415.800781 327.523438 403.457031 C 327.523438 401.164062 328.699219 399.035156 330.632812 397.808594 C 332.5625 396.582031 334.992188 396.417969 337.078125 397.398438 C 343.976562 400.636719 366.714844 402.808594 383.621094 402.8125 C 400.578125 402.769531 423.351562 400.546875 430.21875 397.304688 C 432.292969 396.316406 434.730469 396.472656 436.671875 397.699219 C 438.613281 398.929688 439.789062 401.066406 439.789062 403.367188 C 439.789062 425.417969 412.578125 461.980469 383.605469 461.980469 C 383.597656 461.980469 383.582031 461.980469 383.570312 461.980469 Z M 342.933594 412.890625 C 345.503906 419.847656 350.511719 428.164062 357.832031 435.488281 C 366.261719 443.921875 375.402344 448.566406 383.582031 448.566406 C 383.589844 448.566406 383.589844 448.566406 383.597656 448.566406 C 400.714844 448.566406 418.628906 428.652344 424.4375 412.792969 C 410.570312 415.484375 391.621094 416.207031 383.65625 416.222656 C 383.648438 416.222656 383.648438 416.222656 383.640625 416.222656 C 375.699219 416.222656 356.800781 415.546875 342.933594 412.890625 Z M 342.933594 412.890625 " fill-opacity="1" fill-rule="nonzero"/><g clip-path="url(#750a7ca0f2)"><path fill="#ffffff" d="M 655.316406 167.730469 C 652.566406 162.984375 648.105469 159.589844 642.769531 158.167969 L 631.28125 155.117188 C 626.089844 153.722656 620.84375 154.503906 616.414062 156.816406 C 613.738281 152.609375 609.589844 149.308594 604.398438 147.917969 C 604.390625 147.917969 604.390625 147.914062 604.382812 147.914062 L 592.886719 144.859375 C 581.945312 141.949219 570.59375 148.460938 567.609375 159.414062 L 560.683594 185.164062 C 558.191406 183.191406 555.375 181.753906 552.476562 181.234375 L 552.46875 181.234375 L 523.957031 176.167969 C 518.054688 175.121094 512.371094 176.882812 508.078125 180.398438 C 508.050781 180.390625 508.027344 180.371094 508 180.367188 C 467.714844 173.265625 425.914062 169.375 383.582031 168.804688 C 341.40625 169.375 299.597656 173.265625 259.3125 180.367188 C 259.28125 180.371094 259.257812 180.394531 259.226562 180.398438 C 254.933594 176.902344 249.25 175.144531 243.339844 176.167969 L 214.84375 181.234375 L 214.835938 181.234375 C 211.9375 181.753906 209.121094 183.195312 206.628906 185.171875 L 199.699219 159.425781 C 198.28125 154.097656 194.867188 149.648438 190.085938 146.902344 C 185.339844 144.164062 179.769531 143.433594 174.457031 144.859375 L 162.960938 147.917969 C 157.890625 149.265625 153.667969 152.441406 150.886719 156.824219 C 146.453125 154.511719 141.210938 153.726562 136.03125 155.105469 L 124.535156 158.167969 C 124.535156 158.167969 124.535156 158.167969 124.535156 158.171875 C 119.214844 159.59375 114.769531 162.984375 112.011719 167.726562 C 109.25 172.480469 108.515625 178.03125 109.9375 183.367188 L 138.40625 289.035156 C 140.859375 298.230469 149.214844 304.304688 158.324219 304.304688 C 160.089844 304.304688 161.871094 304.078125 163.652344 303.601562 L 175.15625 300.542969 C 180.203125 299.195312 184.40625 296.035156 187.1875 291.675781 C 190.105469 293.199219 193.382812 294.039062 196.769531 294.039062 C 198.523438 294.039062 200.304688 293.8125 202.078125 293.34375 L 213.53125 290.289062 C 216.984375 289.375 220.003906 287.558594 222.496094 285.160156 C 228.707031 297.824219 236.679688 310.789062 244.890625 321.414062 C 241.628906 323.28125 238.511719 325.421875 235.816406 328.128906 C 228.683594 335.328125 224.40625 344.753906 223.632812 354.640625 C 205.660156 359.417969 192.699219 375.574219 192.667969 394.386719 C 192.699219 402.285156 195.027344 409.976562 199.304688 416.546875 C 194.164062 423.535156 191.390625 431.898438 191.390625 440.609375 C 191.390625 456.960938 201.433594 471.757812 216.398438 478.269531 C 216.457031 500.914062 235.230469 519.316406 258.296875 519.316406 C 261.960938 519.316406 265.539062 518.863281 269.003906 517.964844 C 276.851562 528.308594 289.269531 534.546875 302.597656 534.546875 C 309.371094 534.546875 316.007812 532.8125 321.988281 529.742188 C 320.511719 548.738281 321.832031 568.882812 325.613281 584.628906 C 316.691406 587.292969 308.597656 592.753906 303.078125 598.679688 C 298.21875 603.871094 296.816406 611.242188 299.507812 617.453125 C 301.941406 623.074219 307.335938 626.570312 313.589844 626.570312 L 358.730469 626.570312 C 365.292969 626.570312 370.867188 624.003906 374.414062 619.359375 C 378.429688 614.105469 379.582031 606.425781 377.503906 598.804688 C 373.421875 583.878906 368.632812 555.855469 367.789062 533.335938 C 367.773438 532.917969 367.59375 532.566406 367.5 532.175781 C 373.742188 529.539062 379.355469 525.617188 383.671875 520.714844 C 387.992188 525.621094 393.605469 529.542969 399.84375 532.179688 C 399.753906 532.566406 399.570312 532.910156 399.554688 533.328125 C 398.679688 555.898438 393.882812 583.914062 389.808594 598.8125 C 387.730469 606.425781 388.882812 614.105469 392.898438 619.359375 C 396.445312 624.003906 402.015625 626.570312 408.578125 626.570312 L 453.722656 626.570312 C 459.972656 626.570312 465.367188 623.074219 467.804688 617.453125 C 470.496094 611.242188 469.089844 603.871094 464.242188 598.695312 C 458.714844 592.753906 450.621094 587.292969 441.695312 584.628906 C 445.480469 568.882812 446.800781 548.738281 445.324219 529.742188 C 451.308594 532.8125 457.960938 534.546875 464.746094 534.546875 C 478.058594 534.546875 490.46875 528.308594 498.308594 517.964844 C 501.773438 518.863281 505.351562 519.316406 509.015625 519.316406 C 532.074219 519.316406 550.847656 500.921875 550.914062 478.285156 C 565.871094 471.773438 575.921875 456.964844 575.921875 440.609375 C 575.921875 431.871094 573.148438 423.507812 568.015625 416.539062 C 572.292969 409.96875 574.609375 402.273438 574.644531 394.34375 C 574.609375 375.570312 561.652344 359.417969 543.679688 354.640625 C 542.90625 344.753906 538.628906 335.328125 531.484375 328.121094 C 528.792969 325.417969 525.679688 323.277344 522.421875 321.414062 C 530.632812 310.785156 538.605469 297.824219 544.816406 285.160156 C 547.308594 287.558594 550.324219 289.371094 553.769531 290.289062 L 565.273438 293.355469 C 567.046875 293.824219 568.835938 294.054688 570.59375 294.054688 C 573.96875 294.054688 577.238281 293.210938 580.144531 291.699219 C 582.921875 296.054688 587.125 299.207031 592.164062 300.542969 L 603.660156 303.601562 C 605.433594 304.074219 607.214844 304.296875 608.972656 304.296875 C 618.089844 304.296875 626.449219 298.222656 628.902344 289.046875 L 657.375 183.355469 C 658.792969 178.03125 658.0625 172.480469 655.316406 167.730469 Z M 520.476562 189.277344 C 520.855469 189.277344 521.234375 189.3125 521.621094 189.378906 L 550.132812 194.445312 C 552.476562 194.875 555.839844 198.460938 555.257812 201.722656 L 553.320312 212.527344 L 553.175781 213.066406 C 552.835938 214.617188 551.988281 215.980469 550.6875 216.890625 C 549.308594 217.855469 547.644531 218.21875 545.949219 217.90625 L 517.425781 212.828125 C 515.769531 212.539062 514.324219 211.625 513.375 210.261719 C 512.417969 208.890625 512.058594 207.226562 512.359375 205.539062 L 514.308594 194.476562 C 514.863281 191.386719 517.46875 189.277344 520.476562 189.277344 Z M 486.738281 294.550781 C 476.953125 287.65625 464.757812 285.148438 453.210938 287.8125 C 445.46875 276.847656 432.773438 270.214844 418.867188 270.179688 C 404.125 270.179688 391.144531 277.691406 383.671875 289.019531 C 376.203125 277.691406 363.21875 270.179688 348.480469 270.179688 C 348.472656 270.179688 348.472656 270.179688 348.464844 270.179688 C 334.554688 270.214844 321.839844 276.847656 314.101562 287.8125 C 302.542969 285.144531 290.359375 287.65625 280.574219 294.550781 C 268.921875 280.191406 257.386719 253.132812 251.480469 226.171875 L 252.1875 226.046875 C 256.886719 225.222656 260.960938 222.734375 263.941406 219.101562 C 302.546875 212.386719 342.824219 208.660156 383.582031 208.097656 C 424.492188 208.660156 464.765625 212.386719 503.371094 219.101562 C 506.347656 222.734375 510.421875 225.222656 515.097656 226.042969 L 515.839844 226.171875 C 509.960938 253.097656 498.425781 280.160156 486.738281 294.550781 Z M 500.972656 192.847656 L 499.148438 203.1875 C 499.050781 203.742188 499.070312 204.296875 499.015625 204.851562 C 461.738281 198.722656 423.046875 195.222656 383.582031 194.683594 C 344.261719 195.222656 305.574219 198.722656 268.292969 204.851562 C 268.242188 204.304688 268.261719 203.761719 268.160156 203.21875 L 266.34375 192.847656 C 304.476562 186.382812 343.921875 182.757812 383.582031 182.214844 C 423.394531 182.757812 462.839844 186.386719 500.972656 192.847656 Z M 212.09375 201.757812 C 211.507812 198.457031 214.84375 194.875 217.179688 194.445312 L 245.675781 189.378906 C 249.144531 188.761719 252.378906 191 253.003906 194.445312 L 254.953125 205.566406 C 255.253906 207.226562 254.894531 208.890625 253.933594 210.261719 C 252.984375 211.625 251.539062 212.539062 249.859375 212.832031 L 221.339844 217.910156 C 219.667969 218.214844 218.019531 217.851562 216.660156 216.90625 C 215.335938 215.988281 214.46875 214.605469 214.128906 213.03125 L 213.996094 212.542969 Z M 176.113281 284.207031 C 175.15625 285.878906 173.582031 287.078125 171.699219 287.582031 L 160.195312 290.640625 C 156.382812 291.640625 152.390625 289.398438 151.367188 285.5625 L 122.894531 179.890625 C 122.398438 178.039062 122.652344 176.109375 123.609375 174.464844 C 124.566406 172.816406 126.128906 171.628906 127.996094 171.128906 L 139.484375 168.070312 C 143.339844 167.035156 147.324219 169.316406 148.355469 173.117188 L 176.800781 278.851562 C 177.296875 280.671875 177.054688 282.574219 176.113281 284.207031 Z M 214.5 273.976562 C 213.539062 275.632812 211.976562 276.820312 210.078125 277.328125 L 198.625 280.382812 C 194.726562 281.398438 190.800781 279.199219 189.75 275.34375 L 161.304688 169.609375 C 160.8125 167.78125 161.054688 165.875 161.996094 164.238281 C 162.953125 162.574219 164.523438 161.382812 166.40625 160.882812 L 177.910156 157.820312 C 178.542969 157.65625 179.171875 157.570312 179.808594 157.570312 C 181.0625 157.570312 182.289062 157.894531 183.398438 158.535156 C 185.0625 159.488281 186.246094 161.035156 186.742188 162.898438 L 215.1875 268.585938 C 215.683594 270.425781 215.441406 272.34375 214.5 273.976562 Z M 228.027344 264.199219 C 227.976562 264.054688 227.859375 263.960938 227.796875 263.820312 L 219.035156 231.261719 C 219.417969 231.285156 219.785156 231.4375 220.171875 231.4375 C 221.339844 231.4375 222.523438 231.332031 223.699219 231.117188 L 238.253906 228.527344 C 243.796875 253.910156 255.691406 285.738281 270.953125 303.902344 C 268.285156 307.492188 266.167969 311.425781 264.75 315.632812 C 262.523438 315.691406 260.324219 316.035156 258.140625 316.449219 C 246.332031 302.046875 234.203125 281.128906 228.027344 264.199219 Z M 364.5625 602.34375 C 365.523438 605.839844 365.203125 609.324219 363.757812 611.214844 C 363.386719 611.695312 362.269531 613.15625 358.730469 613.15625 L 313.589844 613.15625 C 312.648438 613.15625 312.136719 612.855469 311.816406 612.113281 C 311.355469 611.046875 311.496094 609.316406 312.882812 607.839844 C 317.925781 602.425781 326.203125 597.265625 334.464844 596.433594 C 334.5625 596.433594 334.65625 596.425781 334.757812 596.410156 C 336.730469 596.242188 338.683594 596.316406 340.589844 596.695312 C 344.128906 597.351562 347.757812 595.054688 348.472656 591.417969 C 349.195312 587.789062 346.832031 584.257812 343.195312 583.535156 C 341.816406 583.257812 340.421875 583.082031 339.035156 582.988281 C 335.503906 569.214844 334.0625 550.699219 335.140625 533.347656 C 339.890625 534.914062 344.925781 535.847656 349.890625 535.847656 C 351.429688 535.847656 352.957031 535.75 354.480469 535.589844 C 355.53125 558.804688 360.382812 587.074219 364.5625 602.34375 Z M 454.4375 607.855469 C 455.8125 609.316406 455.957031 611.046875 455.496094 612.113281 C 455.175781 612.855469 454.664062 613.15625 453.722656 613.15625 L 408.578125 613.15625 C 405.042969 613.15625 403.925781 611.695312 403.554688 611.214844 C 402.109375 609.324219 401.789062 605.839844 402.746094 602.351562 C 406.914062 587.105469 411.78125 558.855469 412.863281 535.59375 C 414.375 535.75 415.894531 535.847656 417.421875 535.847656 C 422.386719 535.847656 427.421875 534.914062 432.171875 533.347656 C 433.246094 550.699219 431.808594 569.214844 428.277344 582.988281 C 426.890625 583.082031 425.496094 583.257812 424.117188 583.535156 C 420.480469 584.257812 418.117188 587.789062 418.839844 591.417969 C 419.5625 595.054688 423.167969 597.375 426.722656 596.695312 C 428.636719 596.316406 430.578125 596.242188 432.554688 596.410156 C 432.65625 596.425781 432.746094 596.433594 432.847656 596.433594 C 441.101562 597.257812 449.386719 602.425781 454.4375 607.855469 Z M 536.214844 366.835938 C 550.453125 368.546875 561.207031 380.382812 561.234375 394.328125 C 561.207031 400.949219 558.769531 407.355469 554.382812 412.363281 C 552.082031 415 552.191406 418.972656 554.644531 421.476562 C 559.710938 426.65625 562.511719 433.449219 562.511719 440.609375 C 562.511719 452.832031 554.097656 463.78125 542.058594 467.242188 C 538.90625 468.144531 536.871094 471.191406 537.242188 474.445312 C 537.375 475.671875 537.503906 476.933594 537.503906 478.160156 C 537.503906 493.460938 524.722656 505.90625 509.015625 505.90625 C 505.199219 505.90625 501.519531 505.191406 498.074219 503.78125 C 494.972656 502.519531 491.359375 503.746094 489.6875 506.707031 C 484.679688 515.605469 475.125 521.132812 464.746094 521.132812 C 458.21875 521.132812 451.8125 518.914062 446.722656 514.882812 C 444.183594 512.871094 440.539062 512.957031 438.101562 515.132812 C 433.117188 519.570312 425 522.4375 417.421875 522.4375 C 405.738281 522.4375 394.117188 515.4375 389.789062 505.796875 C 388.714844 503.386719 386.3125 501.839844 383.671875 501.839844 C 381.035156 501.839844 378.628906 503.386719 377.554688 505.796875 C 373.226562 515.4375 361.597656 522.4375 349.890625 522.4375 C 342.3125 522.4375 334.195312 519.570312 329.210938 515.132812 C 326.78125 512.957031 323.136719 512.871094 320.589844 514.882812 C 315.496094 518.914062 309.101562 521.132812 302.597656 521.132812 C 292.203125 521.132812 282.632812 515.605469 277.625 506.707031 C 275.960938 503.746094 272.363281 502.519531 269.238281 503.78125 C 265.792969 505.191406 262.113281 505.90625 258.296875 505.90625 C 242.589844 505.90625 229.808594 493.460938 229.808594 478.160156 C 229.808594 476.984375 229.925781 475.773438 230.085938 474.597656 C 230.539062 471.292969 228.488281 468.160156 225.289062 467.242188 C 213.230469 463.789062 204.800781 452.835938 204.800781 440.609375 C 204.800781 433.480469 207.601562 426.679688 212.683594 421.460938 C 215.121094 418.953125 215.230469 414.996094 212.925781 412.363281 C 208.539062 407.355469 206.105469 400.949219 206.078125 394.371094 C 206.105469 380.382812 216.859375 368.546875 231.09375 366.835938 C 234.640625 366.414062 237.230469 363.292969 236.984375 359.734375 C 236.449219 351.558594 239.488281 343.480469 245.339844 337.582031 C 251.566406 331.320312 260.429688 328.179688 269.0625 329.226562 C 272.480469 329.65625 275.800781 327.277344 276.457031 323.800781 C 277.515625 318.113281 280.269531 312.882812 284.386719 308.707031 C 292.429688 300.640625 304.347656 298.03125 314.714844 302 C 317.890625 303.222656 321.496094 301.863281 323.078125 298.820312 C 327.925781 289.457031 337.664062 283.621094 348.496094 283.589844 C 364.195312 283.597656 376.96875 296.042969 376.96875 311.339844 C 376.96875 315.042969 379.96875 318.042969 383.671875 318.042969 C 387.378906 318.042969 390.378906 315.042969 390.378906 311.339844 C 390.378906 296.039062 403.160156 283.589844 418.847656 283.589844 C 429.664062 283.621094 439.386719 289.457031 444.234375 298.820312 C 445.804688 301.863281 449.417969 303.226562 452.597656 302 C 462.980469 298.03125 474.871094 300.640625 482.914062 308.699219 C 487.039062 312.855469 489.789062 318.074219 490.855469 323.800781 C 491.511719 327.277344 494.753906 329.65625 498.25 329.226562 C 506.898438 328.1875 515.738281 331.320312 521.964844 337.574219 C 527.820312 343.480469 530.863281 351.558594 530.324219 359.734375 C 530.082031 363.292969 532.671875 366.414062 536.214844 366.835938 Z M 502.5625 315.632812 C 501.144531 311.410156 499.03125 307.476562 496.363281 303.898438 C 511.660156 285.691406 523.546875 253.878906 529.058594 228.527344 L 543.585938 231.113281 C 544.769531 231.328125 545.964844 231.4375 547.148438 231.4375 C 547.535156 231.4375 547.898438 231.285156 548.28125 231.261719 L 539.527344 263.804688 C 539.460938 263.949219 539.339844 264.046875 539.285156 264.199219 C 533.109375 281.128906 520.976562 302.046875 509.171875 316.449219 C 506.988281 316.035156 504.789062 315.691406 502.5625 315.632812 Z M 568.730469 280.390625 L 557.222656 277.320312 C 555.332031 276.820312 553.769531 275.632812 552.8125 273.972656 C 551.871094 272.34375 551.628906 270.4375 552.132812 268.582031 L 580.558594 162.914062 C 581.441406 159.664062 584.308594 157.566406 587.511719 157.566406 C 588.140625 157.566406 588.796875 157.652344 589.441406 157.824219 L 600.921875 160.875 C 604.761719 161.902344 607.046875 165.832031 606.03125 169.628906 L 577.558594 275.347656 C 576.535156 279.148438 572.542969 281.429688 568.730469 280.390625 Z M 644.417969 179.886719 L 615.945312 285.574219 C 614.921875 289.398438 610.972656 291.667969 607.105469 290.636719 L 595.609375 287.578125 C 593.738281 287.082031 592.183594 285.902344 591.234375 284.246094 C 590.273438 282.597656 590.023438 280.671875 590.519531 278.828125 L 618.988281 173.109375 C 619.835938 169.929688 622.753906 167.832031 625.9375 167.832031 C 626.558594 167.832031 627.199219 167.910156 627.828125 168.082031 L 639.324219 171.132812 C 641.199219 171.628906 642.753906 172.8125 643.710938 174.457031 C 644.660156 176.101562 644.914062 178.035156 644.417969 179.886719 Z M 644.417969 179.886719 " fill-opacity="1" fill-rule="nonzero"/></g></svg>