<svg xmlns="http://www.w3.org/2000/svg" xmlns:xlink="http://www.w3.org/1999/xlink" width="500" zoomAndPan="magnify" viewBox="0 0 375 374.999991" height="500" preserveAspectRatio="xMidYMid meet" version="1.0"><defs><clipPath id="e0ddfe7287"><path d="M 107 54 L 268.640625 54 L 268.640625 320 L 107 320 Z M 107 54 " clip-rule="nonzero"/></clipPath></defs><rect x="-37.5" width="450" fill="#ffffff" y="-37.499999" height="449.999989" fill-opacity="1"/><rect x="-37.5" width="450" fill="#ca5310" y="-37.499999" height="449.999989" fill-opacity="1"/><g clip-path="url(#e0ddfe7287)"><path fill="#ffffff" d="M 185.316406 65.085938 L 188.363281 126.859375 C 189.003906 139.777344 183.585938 152.253906 173.722656 160.582031 C 163.046875 169.601562 157.605469 183.40625 159.347656 197.300781 C 164.519531 238.582031 168.140625 292.261719 168.140625 299.078125 C 168.140625 310.328125 159.050781 319.449219 147.835938 319.449219 C 136.625 319.449219 127.53125 310.328125 127.53125 299.078125 C 127.53125 292.265625 131.144531 238.648438 136.3125 197.375 C 138.046875 183.535156 132.648438 169.777344 122.042969 160.757812 L 121.835938 160.582031 C 112.039062 152.25 106.667969 139.820312 107.304688 126.953125 L 110.355469 65.085938 C 110.53125 61.519531 113.464844 58.71875 117.023438 58.71875 C 120.714844 58.71875 123.703125 61.714844 123.703125 65.414062 L 123.703125 116.941406 C 123.703125 121.371094 127.277344 124.957031 131.691406 124.957031 C 136.105469 124.957031 139.679688 121.371094 139.679688 116.941406 L 139.679688 66.902344 C 139.679688 62.382812 143.332031 58.71875 147.835938 58.71875 C 152.339844 58.71875 155.992188 62.382812 155.992188 66.902344 L 155.992188 116.941406 C 155.992188 121.371094 159.570312 124.957031 163.984375 124.957031 C 168.394531 124.957031 171.972656 121.371094 171.972656 116.941406 L 171.972656 65.414062 C 171.972656 61.714844 174.960938 58.71875 178.648438 58.71875 C 182.207031 58.71875 185.140625 61.519531 185.316406 65.085938 Z M 260.199219 54.097656 L 260.203125 54.011719 C 260.085938 54.011719 259.945312 54.054688 259.828125 54.058594 C 259.664062 54.050781 259.515625 54.011719 259.351562 54.011719 C 258.78125 54.011719 258.28125 54.222656 257.742188 54.324219 C 257.71875 54.332031 257.703125 54.332031 257.679688 54.335938 C 256.742188 54.519531 255.882812 54.804688 255.074219 55.25 C 243.617188 60.636719 224.167969 88.335938 216.640625 146.269531 C 214.1875 165.121094 214.953125 181.066406 216.308594 192.242188 C 217.601562 202.859375 223.625 212.304688 232.539062 218.167969 C 236.867188 221.015625 239.324219 225.984375 238.976562 231.164062 L 234.667969 301.417969 C 233.964844 312.105469 243.289062 321.007812 254.324219 319.21875 C 262.574219 317.882812 268.359375 310.230469 268.359375 301.847656 L 268.359375 63.046875 C 268.359375 58.347656 264.769531 54.53125 260.199219 54.097656 Z M 260.199219 54.097656 " fill-opacity="1" fill-rule="nonzero"/></g></svg>