<svg xmlns="http://www.w3.org/2000/svg" xmlns:xlink="http://www.w3.org/1999/xlink" width="500" zoomAndPan="magnify" viewBox="0 0 375 374.999991" height="500" preserveAspectRatio="xMidYMid meet" version="1.0"><defs><clipPath id="2c843e4828"><path d="M 64 70 L 311 70 L 311 307.011719 L 64 307.011719 Z M 64 70 " clip-rule="nonzero"/></clipPath></defs><rect x="-37.5" width="450" fill="#ffffff" y="-37.499999" height="449.999989" fill-opacity="1"/><rect x="-37.5" width="450" fill="#ca5310" y="-37.499999" height="449.999989" fill-opacity="1"/><g clip-path="url(#2c843e4828)"><path fill="#ffffff" d="M 72.074219 213.0625 L 304.363281 213.503906 C 304.164062 226.390625 301.714844 261.957031 274.59375 282.277344 C 268.488281 286.730469 261.746094 289.757812 254.359375 291.355469 C 254.5 291.675781 254.585938 292.007812 254.613281 292.359375 L 254.613281 303.207031 C 254.578125 303.484375 254.515625 303.757812 254.429688 304.023438 C 254.339844 304.292969 254.226562 304.546875 254.089844 304.792969 C 253.949219 305.039062 253.789062 305.265625 253.609375 305.480469 C 253.425781 305.695312 253.226562 305.890625 253.003906 306.0625 C 252.785156 306.238281 252.550781 306.390625 252.300781 306.523438 C 252.050781 306.652344 251.792969 306.757812 251.523438 306.835938 C 251.253906 306.914062 250.980469 306.96875 250.699219 306.996094 C 250.417969 307.023438 250.140625 307.023438 249.859375 306.996094 L 246.101562 306.996094 C 245.824219 307.023438 245.542969 307.023438 245.261719 306.996094 C 244.984375 306.96875 244.710938 306.914062 244.441406 306.835938 C 244.171875 306.757812 243.910156 306.652344 243.660156 306.523438 C 243.414062 306.390625 243.179688 306.238281 242.957031 306.0625 C 242.738281 305.890625 242.539062 305.695312 242.355469 305.480469 C 242.171875 305.265625 242.011719 305.039062 241.875 304.792969 C 241.738281 304.546875 241.625 304.292969 241.535156 304.023438 C 241.445312 303.757812 241.382812 303.484375 241.347656 303.207031 L 241.347656 293.546875 C 224.191406 294.921875 207.007812 295.414062 189.796875 295.019531 C 171.53125 295.398438 153.292969 294.835938 135.085938 293.324219 L 135.085938 303.207031 C 135.050781 303.484375 134.988281 303.757812 134.898438 304.023438 C 134.808594 304.292969 134.695312 304.546875 134.558594 304.792969 C 134.421875 305.039062 134.261719 305.265625 134.078125 305.480469 C 133.898438 305.695312 133.695312 305.890625 133.476562 306.0625 C 133.257812 306.238281 133.023438 306.390625 132.773438 306.523438 C 132.523438 306.652344 132.265625 306.757812 131.996094 306.835938 C 131.726562 306.914062 131.449219 306.96875 131.171875 306.996094 C 130.890625 307.023438 130.609375 307.023438 130.332031 306.996094 L 126.578125 306.996094 C 126.296875 307.023438 126.019531 307.023438 125.738281 306.996094 C 125.457031 306.96875 125.183594 306.917969 124.914062 306.835938 C 124.644531 306.757812 124.386719 306.652344 124.136719 306.523438 C 123.886719 306.390625 123.652344 306.238281 123.433594 306.066406 C 123.210938 305.890625 123.011719 305.695312 122.828125 305.480469 C 122.644531 305.265625 122.484375 305.039062 122.347656 304.792969 C 122.210938 304.546875 122.097656 304.292969 122.007812 304.023438 C 121.917969 303.757812 121.855469 303.484375 121.820312 303.207031 L 121.820312 292.359375 C 121.835938 291.910156 121.945312 291.488281 122.144531 291.085938 C 118.152344 290.214844 114.304688 288.914062 110.601562 287.1875 C 106.894531 285.460938 103.425781 283.351562 100.1875 280.855469 C 74.71875 260.742188 72.167969 227.210938 72.074219 213.0625 Z M 300.734375 185 L 295.628906 185 C 295.578125 169.980469 295.601562 154.957031 295.699219 139.933594 C 296.332031 125.816406 295.855469 111.734375 294.273438 97.691406 C 294.097656 95.570312 293.703125 93.488281 293.089844 91.449219 C 292.472656 89.414062 291.652344 87.460938 290.628906 85.59375 C 289.601562 83.726562 288.394531 81.988281 287 80.375 C 285.609375 78.765625 284.066406 77.316406 282.367188 76.03125 C 269.945312 67.660156 253.304688 69.304688 244.921875 81.875 C 234.878906 80.757812 224.152344 86.121094 223.3125 91.132812 C 222.507812 95.800781 230.066406 100.765625 238.429688 106.257812 C 246.890625 111.8125 255.273438 117.316406 259.597656 114.464844 C 263.925781 111.609375 264.554688 100.074219 259.707031 91.554688 C 259.992188 91.152344 260.3125 90.785156 260.667969 90.445312 C 261.023438 90.105469 261.40625 89.804688 261.820312 89.535156 C 262.230469 89.269531 262.664062 89.042969 263.117188 88.855469 C 263.574219 88.671875 264.039062 88.527344 264.519531 88.429688 C 265.003906 88.332031 265.488281 88.277344 265.980469 88.269531 C 266.46875 88.265625 266.957031 88.304688 267.441406 88.386719 C 267.925781 88.472656 268.394531 88.601562 268.855469 88.773438 C 269.316406 88.945312 269.753906 89.160156 270.171875 89.414062 C 271.332031 89.921875 272.429688 90.539062 273.464844 91.265625 C 271.640625 90.039062 273.652344 91.976562 274.265625 92.398438 C 274.550781 93.125 274.929688 93.800781 275.398438 94.425781 C 275.84375 95.636719 276.214844 96.871094 276.511719 98.125 C 277.339844 101.859375 277.777344 105.640625 277.835938 109.46875 C 279.117188 134.566406 278.101562 159.847656 278.023438 185.003906 L 74.171875 185.003906 C 73.574219 184.957031 72.976562 184.96875 72.382812 185.039062 C 71.789062 185.105469 71.203125 185.230469 70.632812 185.414062 C 70.0625 185.59375 69.515625 185.832031 68.988281 186.117188 C 68.464844 186.40625 67.972656 186.742188 67.511719 187.128906 C 67.050781 187.511719 66.632812 187.9375 66.253906 188.402344 C 65.878906 188.867188 65.546875 189.363281 65.265625 189.894531 C 64.984375 190.421875 64.757812 190.972656 64.582031 191.546875 C 64.410156 192.121094 64.292969 192.703125 64.230469 193.300781 C 64.292969 193.898438 64.410156 194.480469 64.582031 195.054688 C 64.757812 195.628906 64.984375 196.179688 65.265625 196.710938 C 65.546875 197.238281 65.875 197.738281 66.253906 198.203125 C 66.632812 198.667969 67.050781 199.09375 67.511719 199.476562 C 67.96875 199.859375 68.460938 200.199219 68.988281 200.484375 C 69.511719 200.773438 70.0625 201.007812 70.632812 201.191406 C 71.203125 201.375 71.789062 201.5 72.382812 201.566406 C 72.976562 201.636719 73.574219 201.648438 74.171875 201.601562 L 300.734375 201.601562 C 301.332031 201.648438 301.929688 201.636719 302.527344 201.566406 C 303.121094 201.5 303.703125 201.375 304.273438 201.191406 C 304.847656 201.007812 305.394531 200.773438 305.921875 200.484375 C 306.445312 200.199219 306.9375 199.859375 307.398438 199.476562 C 307.859375 199.09375 308.277344 198.667969 308.65625 198.203125 C 309.03125 197.738281 309.363281 197.238281 309.644531 196.710938 C 309.921875 196.179688 310.152344 195.628906 310.324219 195.054688 C 310.5 194.480469 310.617188 193.898438 310.675781 193.300781 C 310.617188 192.703125 310.5 192.121094 310.324219 191.546875 C 310.152344 190.972656 309.921875 190.421875 309.644531 189.890625 C 309.363281 189.363281 309.03125 188.863281 308.65625 188.398438 C 308.277344 187.933594 307.859375 187.507812 307.398438 187.125 C 306.9375 186.742188 306.445312 186.402344 305.921875 186.117188 C 305.394531 185.828125 304.847656 185.59375 304.273438 185.410156 C 303.703125 185.226562 303.121094 185.101562 302.527344 185.035156 C 301.929688 184.964844 301.332031 184.953125 300.734375 185 Z M 240.449219 139.910156 C 241.09375 140.503906 241.84375 140.898438 242.699219 141.097656 L 244.460938 141.332031 C 245.65625 141.332031 246.769531 141.03125 247.800781 140.425781 C 248.539062 139.980469 249.167969 139.414062 249.691406 138.726562 C 250.21875 138.042969 250.597656 137.285156 250.839844 136.457031 L 252.664062 129.789062 C 252.945312 128.917969 252.984375 128.035156 252.785156 127.144531 C 252.707031 126.277344 252.453125 125.464844 252.015625 124.710938 C 251.582031 123.957031 251.003906 123.332031 250.292969 122.832031 C 249.648438 122.234375 248.898438 121.839844 248.042969 121.644531 L 246.28125 121.40625 C 245.085938 121.40625 243.972656 121.707031 242.941406 122.308594 C 242.203125 122.757812 241.574219 123.324219 241.050781 124.007812 C 240.523438 124.695312 240.144531 125.449219 239.902344 126.277344 L 238.078125 132.949219 C 237.796875 133.820312 237.757812 134.699219 237.960938 135.59375 C 238 136.484375 238.261719 137.300781 238.746094 138.050781 C 239.152344 138.816406 239.71875 139.4375 240.449219 139.910156 Z M 232.378906 153.792969 L 230.550781 160.460938 C 230.273438 161.335938 230.234375 162.214844 230.4375 163.109375 C 230.476562 164 230.738281 164.816406 231.222656 165.566406 C 232.183594 167.054688 233.503906 168.066406 235.191406 168.609375 L 236.957031 168.84375 C 238.148438 168.847656 239.261719 168.554688 240.292969 167.960938 C 241.03125 167.511719 241.660156 166.945312 242.1875 166.261719 C 242.710938 165.574219 243.09375 164.820312 243.332031 163.992188 L 245.160156 157.324219 C 245.4375 156.453125 245.476562 155.570312 245.277344 154.675781 C 245.199219 153.808594 244.941406 153 244.507812 152.246094 C 244.074219 151.492188 243.5 150.863281 242.785156 150.363281 C 242.140625 149.769531 241.390625 149.375 240.539062 149.175781 L 238.773438 148.941406 C 237.582031 148.933594 236.46875 149.230469 235.433594 149.824219 C 234.695312 150.273438 234.0625 150.835938 233.535156 151.523438 C 233.007812 152.207031 232.621094 152.964844 232.378906 153.792969 Z M 232.316406 113.054688 L 230.992188 112.015625 C 229.960938 111.414062 228.847656 111.113281 227.65625 111.113281 L 225.890625 111.351562 C 224.769531 111.660156 223.796875 112.226562 222.976562 113.054688 L 218.566406 118.378906 C 217.921875 118.96875 217.464844 119.679688 217.199219 120.511719 C 216.820312 121.316406 216.628906 122.167969 216.628906 123.058594 C 216.628906 123.953125 216.820312 124.800781 217.199219 125.609375 C 217.464844 126.4375 217.921875 127.148438 218.566406 127.734375 L 219.890625 128.769531 C 220.921875 129.371094 222.035156 129.664062 223.226562 129.652344 L 224.992188 129.417969 C 226.117188 129.109375 227.089844 128.542969 227.910156 127.71875 L 232.320312 122.390625 C 232.964844 121.800781 233.421875 121.089844 233.6875 120.257812 C 234.066406 119.453125 234.257812 118.605469 234.257812 117.710938 C 234.257812 116.820312 234.066406 115.972656 233.6875 115.164062 C 233.417969 114.339844 232.960938 113.636719 232.316406 113.054688 Z M 200.390625 149.714844 L 201.714844 150.746094 C 202.746094 151.34375 203.859375 151.636719 205.054688 151.628906 L 206.816406 151.394531 C 207.949219 151.09375 208.929688 150.535156 209.765625 149.714844 C 211.238281 147.949219 212.707031 146.175781 214.175781 144.386719 C 214.820312 143.796875 215.277344 143.085938 215.542969 142.257812 C 215.925781 141.449219 216.113281 140.601562 216.113281 139.707031 C 216.113281 138.816406 215.925781 137.964844 215.542969 137.160156 C 215.277344 136.328125 214.820312 135.617188 214.175781 135.027344 L 212.855469 133.996094 C 211.824219 133.390625 210.710938 133.089844 209.515625 133.09375 L 207.753906 133.332031 C 206.628906 133.640625 205.65625 134.207031 204.832031 135.027344 L 200.421875 140.359375 C 199.78125 140.949219 199.324219 141.65625 199.054688 142.488281 C 198.675781 143.292969 198.484375 144.144531 198.484375 145.035156 C 198.484375 145.929688 198.675781 146.777344 199.054688 147.585938 C 199.316406 148.410156 199.761719 149.121094 200.390625 149.714844 Z M 201.742188 110.222656 L 202.773438 111.542969 C 203.597656 112.367188 204.570312 112.933594 205.691406 113.242188 L 207.457031 113.480469 C 208.652344 113.484375 209.765625 113.179688 210.796875 112.578125 L 216.722656 109.023438 C 217.492188 108.621094 218.113281 108.058594 218.585938 107.332031 C 219.179688 106.6875 219.574219 105.9375 219.769531 105.082031 C 220.054688 104.210938 220.09375 103.332031 219.890625 102.4375 C 219.851562 101.546875 219.589844 100.730469 219.105469 99.980469 L 218.070312 98.660156 C 217.25 97.832031 216.273438 97.265625 215.152344 96.957031 L 213.386719 96.71875 C 212.195312 96.71875 211.082031 97.019531 210.050781 97.621094 L 204.121094 101.179688 C 203.355469 101.585938 202.734375 102.152344 202.265625 102.882812 C 201.671875 103.527344 201.277344 104.277344 201.078125 105.132812 C 200.800781 106.003906 200.761719 106.886719 200.964844 107.777344 C 201.003906 108.664062 201.261719 109.476562 201.742188 110.222656 Z M 177.285156 124.890625 L 178.324219 126.214844 C 179.144531 127.039062 180.121094 127.605469 181.242188 127.914062 L 183.007812 128.148438 C 184.199219 128.15625 185.3125 127.863281 186.34375 127.265625 L 192.273438 123.707031 C 193.039062 123.300781 193.65625 122.734375 194.128906 122.003906 C 194.703125 121.332031 195.105469 120.566406 195.335938 119.710938 C 195.566406 118.855469 195.605469 117.992188 195.453125 117.121094 C 195.414062 116.226562 195.152344 115.40625 194.667969 114.660156 L 193.628906 113.335938 C 192.808594 112.511719 191.832031 111.945312 190.710938 111.636719 L 188.945312 111.398438 C 187.753906 111.398438 186.640625 111.699219 185.609375 112.304688 L 179.675781 115.859375 C 178.914062 116.265625 178.296875 116.832031 177.824219 117.558594 C 177.25 118.234375 176.847656 119.003906 176.617188 119.859375 C 176.386719 120.714844 176.347656 121.578125 176.5 122.453125 C 176.546875 123.335938 176.808594 124.148438 177.285156 124.890625 Z M 177.285156 124.890625 " fill-opacity="1" fill-rule="nonzero"/></g></svg>