<svg xmlns="http://www.w3.org/2000/svg" xmlns:xlink="http://www.w3.org/1999/xlink" width="500" zoomAndPan="magnify" viewBox="0 0 375 374.999991" height="500" preserveAspectRatio="xMidYMid meet" version="1.0"><defs><clipPath id="d416eaae10"><path d="M 99 5.929688 L 276 5.929688 L 276 195 L 99 195 Z M 99 5.929688 " clip-rule="nonzero"/></clipPath><clipPath id="0e4eabd10e"><path d="M 22.042969 195 L 352.792969 195 L 352.792969 368.929688 L 22.042969 368.929688 Z M 22.042969 195 " clip-rule="nonzero"/></clipPath></defs><g clip-path="url(#d416eaae10)"><path fill="#ffffff" d="M 187.496094 194.289062 C 236.105469 194.289062 275.648438 142.695312 275.648438 94.089844 C 275.648438 45.484375 236.105469 5.929688 187.496094 5.929688 C 138.886719 5.929688 99.339844 45.484375 99.339844 94.089844 C 99.347656 142.691406 138.890625 194.289062 187.496094 194.289062 Z M 187.496094 194.289062 " fill-opacity="1" fill-rule="nonzero"/></g><g clip-path="url(#0e4eabd10e)"><path fill="#ffffff" d="M 253.675781 195.191406 C 236.574219 208.222656 215.242188 215.972656 192.136719 215.972656 L 182.855469 215.972656 C 159.746094 215.972656 138.410156 208.21875 121.3125 195.191406 C 65.480469 204.21875 22.84375 252.613281 22.84375 310.988281 C 22.84375 343.054688 96.558594 369.058594 187.496094 369.058594 C 278.425781 369.058594 352.148438 343.054688 352.148438 310.988281 C 352.148438 252.613281 309.507812 204.21875 253.675781 195.191406 Z M 253.675781 195.191406 " fill-opacity="1" fill-rule="nonzero"/></g></svg>