<svg xmlns="http://www.w3.org/2000/svg" xmlns:xlink="http://www.w3.org/1999/xlink" width="1024" zoomAndPan="magnify" viewBox="0 0 768 767.999994" height="1024" preserveAspectRatio="xMidYMid meet" version="1.0"><defs><clipPath id="6c4ca8812b"><path d="M 145.644531 149.21875 L 616 149.21875 L 616 618.71875 L 145.644531 618.71875 Z M 145.644531 149.21875 " clip-rule="nonzero"/></clipPath></defs><g clip-path="url(#6c4ca8812b)"><path fill="#000000" d="M 543.429688 148.871094 C 525.292969 148.871094 507.128906 155.960938 492.964844 170.089844 L 490.542969 172.507812 L 591.582031 273.445312 L 593.894531 271.164062 C 622.226562 242.851562 622.226562 198.402344 593.894531 170.089844 C 579.726562 155.960938 561.5625 148.871094 543.429688 148.871094 Z M 448.5625 214.484375 L 220.082031 442.769531 C 216.492188 446.355469 204.503906 465.347656 193.761719 488.824219 C 173.289062 533.871094 159.664062 573.757812 145.5 618.371094 C 183.183594 606.226562 231.449219 589.542969 274.925781 569.925781 C 298.390625 559.195312 317.640625 547.210938 321.230469 543.625 L 549.65625 315.339844 L 448.5625 214.484375 " fill-opacity="1" fill-rule="nonzero"/></g></svg>