<svg xmlns="http://www.w3.org/2000/svg" xmlns:xlink="http://www.w3.org/1999/xlink" width="1024" zoomAndPan="magnify" viewBox="0 0 768 767.999994" height="1024" preserveAspectRatio="xMidYMid meet" version="1.0"><defs><clipPath id="d59d8f81a0"><path d="M 145.644531 149.21875 L 615 149.21875 L 615 618.71875 L 145.644531 618.71875 Z M 145.644531 149.21875 " clip-rule="nonzero"/></clipPath></defs><g clip-path="url(#d59d8f81a0)"><path fill="#ffffff" d="M 543.183594 148.871094 C 525.058594 148.871094 506.90625 155.960938 492.75 170.09375 L 490.332031 172.511719 L 591.308594 273.460938 L 593.617188 271.179688 C 621.933594 242.863281 621.933594 198.40625 593.617188 170.09375 C 579.460938 155.960938 561.308594 148.871094 543.183594 148.871094 Z M 448.375 214.496094 L 220.035156 442.804688 C 216.449219 446.394531 204.464844 465.386719 193.734375 488.867188 C 173.269531 533.917969 159.65625 573.808594 145.5 618.429688 C 183.160156 606.28125 231.394531 589.597656 274.84375 569.976562 C 298.296875 559.246094 317.535156 547.261719 321.121094 543.675781 L 549.40625 315.363281 L 448.375 214.496094 " fill-opacity="1" fill-rule="nonzero"/></g></svg>