<svg xmlns="http://www.w3.org/2000/svg" xmlns:xlink="http://www.w3.org/1999/xlink" width="1024" zoomAndPan="magnify" viewBox="0 0 768 767.999994" height="1024" preserveAspectRatio="xMidYMid meet" version="1.0"><defs><clipPath id="34bb9ea0db"><path d="M 743.722656 797.421875 L 25.351562 797.421875 C -4.238281 797.421875 -28.347656 773.3125 -28.347656 743.722656 L -28.347656 25.351562 C -28.347656 -4.238281 -4.238281 -28.347656 25.351562 -28.347656 L 743.722656 -28.347656 C 773.3125 -28.347656 797.421875 -4.238281 797.421875 25.351562 L 797.421875 743.722656 C 797.421875 773.3125 773.3125 797.421875 743.722656 797.421875 Z M 743.722656 797.421875 " clip-rule="nonzero"/></clipPath><clipPath id="82496824f0"><path d="M 500 265 L 653.488281 265 L 653.488281 366 L 500 366 Z M 500 265 " clip-rule="nonzero"/></clipPath><clipPath id="35e7429c8e"><path d="M 116 394 L 370 394 L 370 512.714844 L 116 512.714844 Z M 116 394 " clip-rule="nonzero"/></clipPath></defs><rect x="-76.8" width="921.6" fill="#ffffff" y="-76.799999" height="921.599993" fill-opacity="1"/><rect x="-76.8" width="921.6" fill="#fff5e6" y="-76.799999" height="921.599993" fill-opacity="1"/><g clip-path="url(#34bb9ea0db)"><rect x="-76.8" width="921.6" fill="#ca530e" y="-76.799999" height="921.599993" fill-opacity="1"/></g><g clip-path="url(#82496824f0)"><path fill="#a1bace" d="M 565.285156 363.527344 C 566.207031 363.132812 567.140625 362.746094 568.035156 362.28125 C 572.429688 360.007812 576.878906 356.871094 581.804688 357.414062 C 588.253906 358.117188 592.746094 364.910156 599.1875 365.714844 C 607.898438 366.808594 614.113281 356.769531 622.726562 355.03125 C 630.199219 353.53125 638.101562 358.582031 645.335938 356.171875 C 650.175781 354.5625 653.585938 349.433594 653.199219 344.351562 C 652.816406 339.261719 648.664062 334.710938 643.636719 333.847656 C 640.558594 333.324219 637.144531 333.992188 634.507812 332.332031 C 631.128906 330.222656 630.789062 325.570312 629.453125 321.8125 C 626.707031 314.082031 617.84375 309.070312 609.796875 310.699219 C 606.402344 311.386719 602.835938 313.082031 599.65625 311.703125 C 597.269531 310.664062 595.859375 308.101562 595.308594 305.554688 C 594.765625 303 594.902344 300.359375 594.636719 297.765625 C 593.609375 287.832031 586.046875 278.894531 576.414062 276.246094 C 566.78125 273.597656 555.710938 277.390625 549.742188 285.394531 C 548.761719 286.707031 547.300781 288.296875 545.828125 287.601562 C 544.855469 287.136719 544.578125 285.914062 544.335938 284.855469 C 542.035156 274.527344 532.375 266.296875 521.804688 265.675781 C 513.605469 265.191406 505.449219 269.363281 500.554688 275.910156 Z M 565.285156 363.527344 " fill-opacity="1" fill-rule="nonzero"/></g><path fill="#a1bace" d="M 575.425781 329.492188 C 575.363281 329.5 575.316406 329.523438 575.261719 329.53125 C 575.257812 329.535156 575.25 329.542969 575.246094 329.546875 C 575.273438 329.542969 575.304688 329.542969 575.335938 329.535156 C 575.359375 329.519531 575.386719 329.507812 575.425781 329.492188 Z M 575.425781 329.492188 " fill-opacity="1" fill-rule="nonzero"/><path fill="#a1bace" d="M 575.238281 329.535156 C 575.183594 329.542969 575.144531 329.558594 575.101562 329.566406 C 575.144531 329.558594 575.183594 329.558594 575.226562 329.546875 C 575.226562 329.546875 575.234375 329.535156 575.238281 329.535156 Z M 575.238281 329.535156 " fill-opacity="1" fill-rule="nonzero"/><path fill="#c0d5e2" d="M 557.632812 307.648438 C 558.800781 307.242188 559.867188 306.511719 560.398438 305.402344 C 560.746094 304.683594 561.164062 303.984375 561.277344 303.179688 C 561.324219 302.820312 561.371094 302.464844 561.40625 302.105469 C 561.605469 300.828125 561.992188 299.605469 562.433594 298.394531 C 562.894531 297.4375 563.421875 296.515625 564.039062 295.644531 C 564.671875 294.902344 565.355469 294.207031 566.101562 293.578125 C 567.039062 292.914062 568.015625 292.332031 569.058594 291.835938 C 570.089844 291.476562 571.128906 291.167969 572.167969 290.828125 C 573.890625 290.261719 575.925781 289.371094 576.949219 287.765625 C 577.554688 287.097656 577.945312 286.257812 577.898438 285.285156 C 577.855469 284.289062 577.511719 283.492188 576.949219 282.839844 C 576.4375 282.066406 575.710938 281.375 575.011719 280.980469 C 573.878906 280.34375 572.425781 280.085938 571.148438 280.019531 C 569.441406 279.9375 567.652344 280.324219 566.042969 280.890625 C 562.839844 282.019531 559.953125 283.671875 557.453125 285.984375 C 555.34375 287.941406 553.546875 290.410156 552.371094 293.039062 C 551.699219 294.554688 551.070312 296.09375 550.707031 297.714844 C 550.589844 298.234375 550.539062 298.777344 550.464844 299.308594 C 553.160156 301.800781 555.605469 304.550781 557.632812 307.648438 Z M 557.632812 307.648438 " fill-opacity="1" fill-rule="nonzero"/><path fill="#c0d5e2" d="M 525.847656 283.683594 C 527.375 283.847656 528.894531 283.328125 529.929688 281.992188 C 531.300781 280.210938 531.1875 277.621094 529.5625 275.992188 C 528.480469 274.902344 527.308594 273.851562 525.996094 273.03125 C 524.429688 272.050781 522.371094 271.675781 520.5625 271.5625 C 518.78125 271.449219 517.015625 271.667969 515.292969 272.09375 C 515.285156 272.09375 515.28125 272.09375 515.273438 272.09375 C 510.824219 272.171875 506.601562 273.828125 503.296875 276.824219 C 508.058594 278.320312 512.816406 279.8125 517.511719 281.503906 C 519.933594 282.382812 522.371094 283.34375 524.8125 284.320312 C 525.136719 284.171875 525.429688 284.035156 525.550781 283.972656 C 525.667969 283.914062 525.730469 283.757812 525.847656 283.683594 Z M 525.847656 283.683594 " fill-opacity="1" fill-rule="nonzero"/><path fill="#c0d5e2" d="M 599.78125 330.644531 C 600.515625 331.03125 601.308594 331.246094 602.144531 331.285156 C 603.457031 331.34375 604.480469 330.675781 605.453125 329.910156 C 606.03125 329.457031 606.527344 328.921875 607.058594 328.421875 C 607.457031 328.15625 607.886719 327.925781 608.304688 327.699219 C 608.9375 327.484375 609.59375 327.324219 610.253906 327.203125 C 610.726562 327.171875 611.191406 327.179688 611.664062 327.210938 C 612.289062 327.347656 612.921875 327.5 613.523438 327.734375 C 614.40625 328.144531 615.296875 328.523438 616.363281 328.539062 C 617.425781 328.558594 618.765625 328.296875 619.714844 327.742188 C 622.886719 325.878906 622.804688 321.3125 620.363281 318.878906 C 619.105469 317.617188 617.085938 316.824219 615.410156 316.382812 C 614.03125 316.015625 612.558594 315.816406 611.132812 315.824219 C 608.316406 315.835938 605.464844 316.640625 603.175781 318.300781 C 602.054688 319.105469 600.992188 319.964844 600.109375 321.023438 C 599.078125 322.269531 597.933594 323.71875 597.640625 325.367188 C 597.457031 326.441406 597.445312 327.382812 597.875 328.414062 C 598.242188 329.308594 598.898438 330.179688 599.78125 330.644531 Z M 599.78125 330.644531 " fill-opacity="1" fill-rule="nonzero"/><path fill="#c0d5e2" d="M 565.578125 346.601562 C 567.449219 346.164062 569.179688 344.984375 570.253906 343.320312 C 571.453125 341.46875 571.808594 339.074219 572.226562 336.949219 C 572.574219 335.195312 572.949219 333.453125 573.5625 331.773438 C 573.683594 331.539062 573.773438 331.300781 573.910156 331.074219 C 574.035156 330.871094 574.164062 330.675781 574.289062 330.472656 C 574.457031 330.28125 574.628906 330.097656 574.816406 329.921875 C 574.832031 329.90625 574.882812 329.863281 574.910156 329.832031 C 574.996094 329.78125 575.054688 329.738281 575.113281 329.703125 C 575.476562 329.589844 575.828125 329.46875 576.210938 329.417969 C 575.964844 329.453125 575.714844 329.480469 575.472656 329.519531 C 575.507812 329.5 575.542969 329.480469 575.585938 329.464844 C 576.859375 329.273438 578.019531 328.902344 578.992188 327.929688 C 579.96875 326.945312 580.714844 325.332031 580.648438 323.917969 C 580.601562 322.9375 580.277344 322.066406 579.847656 321.273438 C 579.597656 319.640625 578.507812 318.023438 576.808594 317.730469 C 575.011719 317.421875 573.304688 317.140625 571.480469 317.238281 C 569.328125 317.351562 567.167969 318.011719 565.261719 318.980469 C 564.496094 319.367188 563.777344 319.832031 563.082031 320.328125 C 565.023438 327.867188 565.34375 335.910156 565.535156 343.738281 C 565.558594 344.679688 565.566406 345.640625 565.578125 346.601562 Z M 575.261719 329.53125 C 575.324219 329.523438 575.371094 329.503906 575.425781 329.492188 C 575.386719 329.503906 575.359375 329.519531 575.328125 329.535156 C 575.296875 329.535156 575.269531 329.542969 575.238281 329.546875 C 575.25 329.542969 575.257812 329.535156 575.261719 329.53125 Z M 575.238281 329.535156 C 575.234375 329.535156 575.226562 329.546875 575.222656 329.546875 C 575.179688 329.554688 575.136719 329.558594 575.097656 329.566406 C 575.144531 329.558594 575.183594 329.542969 575.238281 329.535156 Z M 575.238281 329.535156 " fill-opacity="1" fill-rule="nonzero"/><path fill="#c0d5e2" d="M 627.867188 345.125 C 627.875 345.132812 627.886719 345.132812 627.898438 345.136719 C 628.78125 345.894531 630.109375 346.6875 631.203125 346.863281 C 632.265625 347.027344 633.324219 347.207031 634.394531 347.328125 C 635.039062 347.398438 635.679688 347.453125 636.332031 347.464844 C 636.84375 347.46875 637.359375 347.386719 637.863281 347.320312 C 638.632812 347.21875 638.808594 347.167969 639.515625 346.863281 C 639.890625 346.742188 640.167969 346.457031 640.484375 346.242188 C 640.40625 346.324219 640.328125 346.402344 640.246094 346.484375 C 640.511719 346.332031 640.757812 346.117188 641.007812 345.914062 C 641.074219 345.847656 641.167969 345.835938 641.234375 345.765625 C 641.253906 345.746094 641.265625 345.722656 641.28125 345.703125 C 641.644531 345.363281 641.957031 344.988281 642.195312 344.582031 C 642.277344 344.453125 642.3125 344.304688 642.375 344.167969 C 642.5 343.921875 642.589844 343.726562 642.671875 343.460938 C 642.695312 343.410156 642.726562 343.355469 642.742188 343.296875 C 642.726562 343.332031 642.707031 343.359375 642.691406 343.398438 C 642.832031 342.929688 642.980469 342.460938 642.964844 342.03125 C 642.90625 341.613281 642.84375 341.195312 642.796875 340.785156 C 642.777344 340.71875 642.71875 340.675781 642.695312 340.617188 C 642.535156 340.140625 642.027344 339.164062 642.195312 339.425781 C 641.96875 339.132812 641.742188 338.835938 641.515625 338.542969 C 641.503906 338.53125 641.496094 338.511719 641.484375 338.5 C 641.453125 338.464844 641.425781 338.429688 641.394531 338.386719 C 641.304688 338.316406 641.222656 338.253906 641.132812 338.191406 C 640.988281 338.058594 640.839844 337.910156 640.691406 337.796875 C 640.621094 337.742188 640.53125 337.726562 640.460938 337.671875 C 640.382812 337.617188 640.320312 337.558594 640.246094 337.511719 C 640.28125 337.546875 640.320312 337.582031 640.359375 337.617188 C 639.851562 337.269531 639.34375 336.957031 638.742188 336.765625 C 638.484375 336.6875 638.226562 336.640625 637.964844 336.589844 C 637.011719 336.429688 636.023438 336.324219 635.042969 336.324219 C 634.53125 336.324219 634.023438 336.335938 633.511719 336.363281 C 633.242188 336.375 632.96875 336.390625 632.699219 336.40625 C 632.566406 336.414062 632.429688 336.414062 632.300781 336.425781 C 631.828125 336.488281 631.363281 336.550781 630.890625 336.617188 C 630.785156 336.65625 630.683594 336.703125 630.574219 336.746094 C 629.847656 337.019531 629.164062 337.34375 628.511719 337.738281 C 628.316406 337.820312 628.125 337.902344 627.921875 337.988281 C 627.4375 338.25 627.046875 338.605469 626.753906 339.066406 C 626.203125 339.777344 625.8125 340.683594 625.851562 341.601562 C 625.917969 343.050781 626.65625 344.34375 627.832031 345.109375 C 627.84375 345.109375 627.855469 345.121094 627.867188 345.125 Z M 627.867188 345.125 " fill-opacity="1" fill-rule="nonzero"/><path fill="#c0d5e2" d="M 627.671875 344.984375 C 627.730469 345.03125 627.789062 345.078125 627.851562 345.121094 C 627.839844 345.113281 627.839844 345.109375 627.828125 345.101562 C 627.808594 345.089844 627.785156 345.074219 627.765625 345.054688 C 627.742188 345.023438 627.695312 345.007812 627.671875 344.984375 Z M 627.671875 344.984375 " fill-opacity="1" fill-rule="nonzero"/><path fill="#fff5e6" d="M 469.425781 445.191406 C 461.582031 447.277344 453.675781 449.042969 445.65625 450.492188 C 453.675781 449.042969 461.640625 447.277344 469.425781 445.191406 Z M 469.425781 445.191406 " fill-opacity="1" fill-rule="nonzero"/><path fill="#fff5e6" d="M 557.171875 397.328125 C 563.800781 387.230469 565.996094 375.210938 566.777344 363.03125 C 567.140625 357.402344 567.15625 351.722656 567.066406 346.105469 C 567.054688 345.148438 567.050781 344.191406 567.027344 343.242188 C 566.835938 335.410156 566.511719 327.363281 564.574219 319.832031 C 563.789062 316.761719 562.753906 313.765625 561.304688 310.914062 C 560.644531 309.613281 559.910156 308.363281 559.125 307.164062 C 557.09375 304.066406 554.648438 301.320312 551.941406 298.820312 C 547.492188 294.722656 542.292969 291.335938 536.726562 288.484375 C 533.339844 286.765625 529.832031 285.25 526.300781 283.832031 C 523.867188 282.851562 521.429688 281.894531 519 281.015625 C 514.308594 279.328125 509.546875 277.835938 504.789062 276.332031 C 503.875 276.042969 502.964844 275.714844 502.042969 275.433594 C 455.355469 261.066406 406.203125 255.535156 357.300781 257.164062 C 243.800781 260.878906 203.988281 311.972656 203.988281 311.972656 C 189.257812 337.75 191.53125 371.9375 208.625 396.027344 C 209.792969 396.425781 225.039062 469.660156 234.597656 469.773438 C 247.730469 469.925781 282.6875 452.4375 370.835938 454.410156 C 529.46875 457.953125 538.910156 425.148438 557.171875 397.328125 Z M 557.171875 397.328125 " fill-opacity="1" fill-rule="nonzero"/><path fill="#f7b973" d="M 272.917969 344.214844 C 275.28125 345.917969 278.210938 346.585938 281.058594 347.179688 C 330.5 357.359375 381.84375 354.734375 431.605469 346.253906 C 451.324219 342.894531 471.417969 338.410156 488.078125 327.335938 C 493.421875 323.78125 498.835938 318.464844 498.160156 312.078125 C 497.757812 308.171875 495.023438 304.796875 491.707031 302.683594 C 488.390625 300.574219 484.527344 299.523438 480.710938 298.582031 C 466.207031 294.984375 451.445312 292.445312 436.574219 290.976562 L 428.703125 289.496094 C 422.726562 289.773438 416.777344 290.554688 410.933594 291.835938 C 409 292.257812 406.804688 292.96875 406.097656 294.816406 C 405.429688 296.566406 406.519531 298.59375 408.101562 299.605469 C 409.679688 300.613281 411.621094 300.851562 413.472656 301.0625 C 427.640625 302.671875 441.804688 304.28125 455.964844 305.886719 C 462.839844 306.667969 471.246094 308.714844 472.867188 315.441406 C 473.808594 319.355469 471.8125 323.519531 468.804688 326.203125 C 465.800781 328.886719 461.933594 330.351562 458.125 331.660156 C 428.121094 341.929688 396.101562 345.257812 364.394531 344.910156 C 332.6875 344.566406 301.148438 340.625 269.679688 336.6875 C 268.910156 339.476562 270.5625 342.507812 272.917969 344.214844 Z M 272.917969 344.214844 " fill-opacity="1" fill-rule="nonzero"/><path fill="#a1bace" d="M 197.964844 477.941406 C 198.03125 477.855469 198.089844 477.773438 198.15625 477.691406 C 198.15625 477.683594 198.15625 477.675781 198.148438 477.671875 C 198.078125 477.753906 198.035156 477.855469 197.964844 477.941406 Z M 197.964844 477.941406 " fill-opacity="1" fill-rule="nonzero"/><path fill="#a1bace" d="M 201.652344 473.238281 C 201.65625 473.234375 201.664062 473.226562 201.667969 473.226562 C 201.628906 473.238281 201.589844 473.265625 201.554688 473.28125 C 201.585938 473.265625 201.617188 473.246094 201.652344 473.238281 Z M 201.652344 473.238281 " fill-opacity="1" fill-rule="nonzero"/><path fill="#a1bace" d="M 216.960938 446.667969 C 216.914062 446.722656 216.859375 446.769531 216.8125 446.816406 C 216.390625 447.285156 216.765625 446.929688 216.960938 446.667969 Z M 216.960938 446.667969 " fill-opacity="1" fill-rule="nonzero"/><path fill="#a1bace" d="M 219.53125 444.707031 C 219.84375 444.582031 220.289062 444.308594 219.722656 444.597656 C 219.65625 444.636719 219.597656 444.671875 219.53125 444.707031 Z M 219.53125 444.707031 " fill-opacity="1" fill-rule="nonzero"/><path fill="#a1bace" d="M 253.582031 482.78125 L 253.589844 482.777344 Z M 253.582031 482.78125 " fill-opacity="1" fill-rule="nonzero"/><path fill="#a1bace" d="M 221.484375 444.183594 C 221.453125 444.183594 221.417969 444.183594 221.386719 444.183594 C 220.765625 444.199219 221.15625 444.234375 221.484375 444.183594 Z M 221.484375 444.183594 " fill-opacity="1" fill-rule="nonzero"/><path fill="#a1bace" d="M 294.597656 456.03125 C 294.613281 456.015625 294.628906 455.996094 294.648438 455.972656 C 294.625 456.070312 294.605469 456.164062 294.582031 456.253906 C 294.636719 456.121094 294.695312 455.992188 294.75 455.855469 C 294.75 455.847656 294.75 455.84375 294.75 455.832031 C 294.753906 455.824219 294.753906 455.820312 294.761719 455.8125 C 294.765625 455.800781 294.765625 455.792969 294.773438 455.78125 C 294.765625 455.792969 294.753906 455.804688 294.75 455.820312 C 294.785156 455.5625 294.820312 455.300781 294.851562 455.042969 C 294.8125 455.378906 294.710938 455.664062 294.640625 455.960938 C 294.625 455.984375 294.617188 456.007812 294.597656 456.03125 Z M 294.597656 456.03125 " fill-opacity="1" fill-rule="nonzero"/><path fill="#a1bace" d="M 228.140625 441.070312 C 228.140625 441.074219 228.140625 441.074219 228.140625 441.070312 C 228.164062 441.21875 228.199219 441.355469 228.253906 441.410156 C 228.253906 441.410156 228.203125 441.246094 228.152344 441.070312 C 228.144531 441.070312 228.144531 441.070312 228.140625 441.070312 Z M 228.140625 441.070312 " fill-opacity="1" fill-rule="nonzero"/><path fill="#a1bace" d="M 176.082031 448.238281 C 175.761719 448.507812 175.445312 448.726562 175.121094 448.953125 C 175.152344 448.941406 175.183594 448.929688 175.207031 448.917969 C 175.15625 448.953125 175.109375 448.988281 175.070312 449.023438 C 175.402344 448.761719 175.742188 448.5 176.082031 448.238281 Z M 176.082031 448.238281 " fill-opacity="1" fill-rule="nonzero"/><g clip-path="url(#35e7429c8e)"><path fill="#a1bace" d="M 368.789062 443.121094 C 365.359375 430.441406 352.902344 420.789062 339.765625 420.640625 C 330.207031 420.527344 320.933594 425.488281 315.132812 433.039062 C 312.242188 431.488281 309.144531 430.34375 305.890625 430.101562 C 302.078125 429.808594 298.332031 430.832031 294.875 432.511719 C 293.019531 425.234375 289.578125 418.46875 284.132812 413.351562 C 275.007812 404.78125 259.703125 402.34375 249.777344 409.96875 C 245.171875 413.511719 241.226562 419.070312 236.007812 420.574219 C 235.894531 420.308594 235.828125 420.019531 235.691406 419.753906 C 233.960938 416.335938 230.773438 413.867188 227.160156 412.640625 C 225.910156 412.21875 224.601562 411.933594 223.285156 411.824219 C 220.664062 405.933594 216.324219 400.820312 210.578125 397.863281 C 209.46875 397.289062 208.300781 396.910156 207.132812 396.507812 C 195.085938 392.359375 180.328125 396.902344 173.25 407.613281 C 167.886719 415.730469 167.566406 426.515625 171.394531 435.402344 C 167.929688 434.890625 164.386719 435.039062 161.035156 436.066406 C 153.585938 438.335938 147.453125 444.945312 146.445312 452.664062 C 145.847656 457.253906 147.285156 462.019531 150.058594 465.6875 C 149.039062 466.101562 148.042969 466.558594 147.132812 467.097656 C 141.800781 470.265625 137.238281 474.964844 131.265625 476.644531 C 128.171875 477.515625 124.855469 477.515625 121.835938 478.632812 C 118.820312 479.746094 116.007812 482.566406 116.476562 485.746094 C 117.082031 489.90625 122.273438 491.328125 126.441406 491.824219 C 133.328125 492.648438 140.226562 493.464844 147.113281 494.289062 C 155.855469 495.324219 164.617188 496.371094 173.421875 496.6875 C 178.878906 496.882812 184.539062 496.609375 189.515625 494.519531 C 196.535156 502.566406 207.351562 507.320312 218.03125 506.425781 C 224.671875 505.871094 231.039062 503.15625 236.246094 498.992188 C 244.625 507.363281 256.351562 512.371094 268.207031 512.414062 C 281.882812 512.460938 295.441406 505.925781 303.914062 495.183594 C 304.226562 494.796875 304.507812 494.371094 304.796875 493.960938 C 306.273438 494.734375 307.75 495.492188 309.285156 496.132812 C 316.863281 499.296875 325.433594 500.605469 333.355469 498.433594 C 341.277344 496.257812 348.34375 490.214844 350.484375 482.289062 C 350.773438 481.226562 350.9375 480.140625 351.015625 479.042969 C 352.417969 478.523438 353.777344 477.917969 355.035156 477.164062 C 362.890625 472.453125 368.039062 463.917969 369.332031 454.886719 C 369.917969 450.96875 369.828125 446.960938 368.789062 443.121094 Z M 368.789062 443.121094 " fill-opacity="1" fill-rule="nonzero"/></g><path fill="#a1bace" d="M 255.539062 426.496094 C 255.597656 426.402344 255.671875 426.308594 255.683594 426.234375 C 255.210938 426.867188 255.378906 426.71875 255.539062 426.496094 Z M 255.539062 426.496094 " fill-opacity="1" fill-rule="nonzero"/><path fill="#c0d5e2" d="M 178.050781 428.597656 C 178.242188 429.320312 178.523438 430.058594 178.925781 430.683594 C 179.328125 431.304688 179.785156 431.804688 180.363281 432.253906 C 180.515625 432.367188 181.082031 432.6875 181.546875 432.945312 C 182.976562 433.644531 184.445312 433.785156 185.933594 433.152344 C 187.523438 432.484375 188.253906 431.371094 188.898438 429.832031 C 188.394531 431.125 188.46875 430.964844 189.136719 429.34375 C 189.292969 428.753906 189.359375 428.148438 189.328125 427.554688 C 189.3125 426.722656 189.144531 426.152344 188.953125 425.425781 C 188.863281 425.074219 188.796875 424.714844 188.734375 424.363281 C 188.703125 423.617188 188.65625 422.882812 188.695312 422.136719 C 188.707031 421.910156 188.773438 421.605469 188.828125 421.398438 C 188.792969 421.53125 188.75 421.691406 188.65625 422.035156 C 188.746094 421.730469 188.761719 421.398438 188.820312 421.082031 C 188.972656 420.34375 189.175781 419.613281 189.425781 418.90625 C 189.460938 418.792969 189.503906 418.691406 189.542969 418.578125 C 189.65625 418.351562 189.765625 418.117188 189.882812 417.898438 C 190.183594 417.335938 190.765625 416.6875 191.011719 416.097656 C 191.035156 416.066406 191.066406 416.03125 191.09375 416 C 191.34375 415.71875 191.601562 415.445312 191.871094 415.175781 C 192.101562 414.949219 192.339844 414.730469 192.578125 414.519531 C 192.652344 414.457031 192.730469 414.394531 192.804688 414.332031 C 193.398438 413.9375 193.988281 413.5625 194.609375 413.203125 C 195.023438 412.957031 196.085938 412.636719 196.460938 412.261719 C 196.480469 412.253906 196.5 412.25 196.515625 412.242188 C 196.925781 412.113281 197.339844 411.992188 197.757812 411.890625 C 198.074219 411.8125 198.382812 411.753906 198.699219 411.6875 C 198.804688 411.671875 198.914062 411.652344 199.015625 411.628906 C 199.742188 411.597656 200.464844 411.5625 201.191406 411.605469 C 201.316406 411.609375 201.8125 411.6875 202.015625 411.683594 C 202.109375 411.695312 202.207031 411.710938 202.300781 411.730469 C 203.089844 411.867188 203.882812 412.050781 204.65625 412.25 C 206.828125 412.808594 209.070312 411.71875 209.9375 409.65625 C 210.8125 407.574219 210.007812 405.269531 208.105469 404.066406 C 202.472656 400.503906 194.363281 400.867188 188.53125 403.742188 C 182.691406 406.625 178.574219 412.957031 177.675781 419.324219 C 177.363281 421.523438 177.269531 423.5625 177.5625 425.765625 C 177.679688 426.734375 177.804688 427.671875 178.050781 428.597656 Z M 178.050781 428.597656 " fill-opacity="1" fill-rule="nonzero"/><path fill="#c0d5e2" d="M 161.375 452.871094 C 161.617188 452.699219 161.859375 452.539062 162.101562 452.378906 C 161.730469 452.53125 161.367188 452.6875 161 452.84375 C 161.410156 452.675781 161.816406 452.492188 162.222656 452.3125 C 162.363281 452.257812 162.507812 452.191406 162.65625 452.136719 C 163.324219 451.949219 163.980469 451.683594 164.636719 451.398438 C 164.21875 451.578125 163.796875 451.75 163.378906 451.929688 C 165.148438 451.191406 167.117188 450.652344 169.039062 450.320312 C 169.609375 450.273438 170.175781 450.210938 170.75 450.21875 C 171.5625 450.230469 172.332031 450.210938 173.128906 449.972656 C 173.796875 449.777344 174.363281 449.472656 174.894531 449.113281 C 176.457031 448.535156 177.597656 446.992188 177.8125 445.398438 C 178.039062 443.710938 177.316406 442.089844 175.980469 441.058594 C 175.546875 440.574219 175.074219 440.136719 174.460938 439.769531 C 173.25 439.039062 171.894531 438.878906 170.523438 438.878906 C 169.085938 438.878906 167.644531 439.082031 166.234375 439.316406 C 165.238281 439.480469 164.265625 439.746094 163.324219 440.113281 C 162.460938 440.453125 161.589844 440.800781 160.785156 441.253906 C 160.003906 441.695312 159.296875 442.308594 158.605469 442.859375 C 158.964844 442.582031 159.324219 442.304688 159.6875 442.023438 C 159.121094 442.453125 158.554688 442.875 158 443.316406 C 157.835938 443.449219 157.746094 443.632812 157.617188 443.78125 C 157.621094 443.769531 157.632812 443.753906 157.648438 443.734375 C 157.15625 444.152344 156.738281 444.636719 156.4375 445.214844 C 156.691406 444.886719 156.941406 444.558594 157.199219 444.222656 C 156.722656 444.824219 156.210938 445.394531 155.785156 446.035156 C 156.03125 445.726562 156.269531 445.417969 156.507812 445.101562 C 156.304688 445.320312 156.109375 445.542969 155.910156 445.769531 C 154.433594 447.492188 154.121094 449.832031 155.558594 451.695312 C 156.824219 453.355469 159.539062 454.183594 161.375 452.871094 Z M 175.121094 448.949219 C 175.445312 448.722656 175.761719 448.5 176.082031 448.230469 C 175.742188 448.496094 175.402344 448.757812 175.070312 449.019531 C 175.117188 448.984375 175.164062 448.949219 175.207031 448.910156 C 175.183594 448.921875 175.152344 448.9375 175.121094 448.949219 Z M 175.121094 448.949219 " fill-opacity="1" fill-rule="nonzero"/><path fill="#c0d5e2" d="M 249.582031 429.945312 C 251.585938 430.40625 253.464844 429.609375 254.589844 427.90625 C 253.691406 429.265625 254.890625 427.511719 255.152344 427.0625 C 255.230469 426.933594 255.402344 426.707031 255.53125 426.496094 C 255.371094 426.722656 255.207031 426.875 255.675781 426.234375 C 255.730469 426.15625 255.8125 426.050781 255.890625 425.949219 C 255.980469 425.839844 256.082031 425.714844 256.152344 425.632812 C 257.03125 424.636719 257.914062 423.664062 258.910156 422.777344 C 259.050781 422.652344 259.207031 422.527344 259.363281 422.394531 C 259.410156 422.359375 259.457031 422.324219 259.503906 422.285156 C 260.035156 421.929688 260.597656 421.605469 261.167969 421.328125 C 261.1875 421.320312 261.175781 421.328125 261.1875 421.320312 C 261.507812 421.21875 261.820312 421.101562 262.140625 421.011719 C 262.566406 420.886719 263.007812 420.824219 263.441406 420.742188 C 264.46875 420.652344 265.488281 420.660156 266.507812 420.765625 C 269.109375 421.265625 271.769531 421.910156 273.902344 419.667969 C 275.246094 418.253906 275.828125 416.246094 275.179688 414.367188 C 274.433594 412.226562 272.816406 410.890625 270.75 410.136719 C 267.21875 408.867188 262.851562 409 259.285156 410 C 252.433594 411.925781 246.03125 418.136719 246.3125 425.664062 C 246.390625 427.546875 247.648438 429.503906 249.582031 429.945312 Z M 249.582031 429.945312 " fill-opacity="1" fill-rule="nonzero"/><path fill="#c0d5e2" d="M 255.683594 426.234375 C 255.671875 426.308594 255.59375 426.402344 255.539062 426.496094 C 255.605469 426.402344 255.664062 426.300781 255.683594 426.234375 Z M 255.683594 426.234375 " fill-opacity="1" fill-rule="nonzero"/><path fill="#c0d5e2" d="M 322.894531 437.246094 C 322.738281 438.855469 323.894531 440.539062 325.226562 441.320312 C 326.597656 442.117188 328.394531 442.140625 329.796875 441.367188 C 329.527344 441.480469 329.257812 441.59375 328.984375 441.710938 C 330.917969 441.320312 332.367188 439.828125 333.820312 438.535156 C 334.511719 438.039062 335.253906 437.621094 336.023438 437.25 C 336.75 436.996094 337.488281 436.785156 338.253906 436.636719 C 339.589844 436.59375 340.953125 436.726562 342.230469 436.367188 C 344.382812 435.773438 345.953125 433.894531 346.246094 431.710938 C 346.535156 429.546875 345.527344 427.226562 343.574219 426.128906 C 341.179688 424.785156 338.203125 425.136719 335.609375 425.542969 C 333.792969 425.828125 332.0625 426.523438 330.414062 427.320312 C 326.394531 429.277344 321.953125 433.441406 323.085938 438.347656 C 323.03125 437.925781 322.972656 437.496094 322.914062 437.074219 C 322.90625 437.132812 322.898438 437.191406 322.894531 437.246094 Z M 322.894531 437.246094 " fill-opacity="1" fill-rule="nonzero"/><path fill="#c0d5e2" d="M 203.722656 462.828125 C 202.816406 462.289062 201.933594 462.128906 200.910156 462.046875 C 200.804688 462.039062 200.691406 462.027344 200.582031 462.035156 C 200.476562 462.035156 200.367188 462.050781 200.261719 462.0625 C 198.550781 462.234375 198.847656 462.1875 197.285156 462.855469 C 196.878906 463.027344 196.480469 463.226562 196.097656 463.445312 C 194.9375 464.113281 193.84375 464.96875 192.878906 465.890625 C 191.921875 466.804688 191.101562 467.890625 190.402344 469.011719 C 189.925781 469.773438 189.609375 470.632812 189.28125 471.480469 C 188.964844 472.304688 188.695312 473.257812 188.746094 474.121094 C 188.808594 473.644531 188.871094 473.167969 188.941406 472.691406 C 188.667969 474.128906 188.53125 475.273438 188.886719 476.707031 C 189.132812 477.570312 189.566406 478.320312 190.199219 478.953125 C 190.664062 479.449219 191.207031 479.808594 191.839844 480.007812 C 192.449219 480.332031 193.105469 480.476562 193.808594 480.449219 C 194.726562 480.449219 195.585938 480.21875 196.386719 479.753906 C 196.765625 479.53125 197.28125 479.15625 197.582031 478.828125 C 197.738281 478.660156 197.835938 478.429688 197.972656 478.238281 C 197.804688 478.453125 197.636719 478.667969 197.476562 478.875 C 197.734375 478.546875 197.964844 478.207031 198.199219 477.867188 C 198.199219 477.875 198.199219 477.878906 198.203125 477.886719 C 198.265625 477.789062 198.328125 477.707031 198.382812 477.613281 C 198.425781 477.539062 198.492188 477.480469 198.53125 477.402344 C 198.539062 477.378906 198.550781 477.355469 198.5625 477.335938 C 198.589844 477.273438 198.621094 477.210938 198.652344 477.148438 C 198.699219 477.046875 198.746094 476.949219 198.792969 476.847656 C 198.757812 476.894531 198.71875 476.949219 198.679688 476.996094 C 198.699219 476.949219 198.691406 476.902344 198.710938 476.859375 C 199.152344 476.191406 199.613281 475.523438 200.054688 474.851562 C 200.398438 474.457031 200.769531 474.085938 201.164062 473.734375 C 201.722656 473.359375 202.285156 472.976562 202.902344 472.714844 C 202.488281 472.886719 202.070312 473.066406 201.65625 473.238281 C 201.65625 473.238281 201.664062 473.234375 201.664062 473.226562 C 202.261719 472.988281 202.867188 472.785156 203.386719 472.40625 C 204.234375 471.785156 205.175781 471.160156 205.636719 470.164062 C 206.027344 469.546875 206.242188 468.886719 206.273438 468.175781 C 206.429688 467.460938 206.398438 466.75 206.179688 466.042969 C 205.753906 464.691406 204.949219 463.554688 203.722656 462.828125 Z M 197.964844 477.941406 C 198.035156 477.855469 198.085938 477.753906 198.148438 477.671875 C 198.148438 477.675781 198.148438 477.683594 198.15625 477.691406 C 198.089844 477.773438 198.03125 477.851562 197.964844 477.941406 Z M 201.652344 473.238281 C 201.621094 473.253906 201.589844 473.265625 201.554688 473.277344 C 201.589844 473.265625 201.628906 473.238281 201.667969 473.222656 C 201.664062 473.226562 201.65625 473.234375 201.652344 473.238281 Z M 201.652344 473.238281 " fill-opacity="1" fill-rule="nonzero"/><path fill="#c0d5e2" d="M 238.953125 444.132812 C 240.855469 438.6875 237.609375 433.136719 233.296875 429.988281 C 229.320312 427.082031 224.226562 426.324219 219.449219 427.136719 C 214.816406 427.921875 210.957031 430.738281 208.289062 434.515625 C 206.058594 437.664062 204.699219 441.390625 205.1875 445.214844 C 204.734375 446.800781 204.539062 448.421875 205.019531 450.007812 C 206.363281 454.394531 212.535156 455.425781 214.917969 451.304688 C 215.511719 450.273438 215.984375 448.996094 216.265625 447.789062 C 216.269531 447.777344 216.265625 447.777344 216.269531 447.765625 C 216.378906 447.5625 216.492188 447.371094 216.605469 447.183594 C 216.664062 447.082031 216.855469 446.859375 216.96875 446.667969 C 217.265625 446.339844 217.5625 446.023438 217.890625 445.722656 C 217.957031 445.660156 217.96875 445.65625 218.015625 445.613281 C 217.917969 445.691406 217.796875 445.78125 217.671875 445.847656 C 217.816406 445.769531 217.945312 445.660156 218.082031 445.558594 C 218.226562 445.433594 218.21875 445.441406 218.113281 445.535156 C 218.148438 445.507812 218.191406 445.476562 218.230469 445.445312 C 218.648438 445.171875 219.089844 444.9375 219.53125 444.707031 C 219.746094 444.640625 220.007812 444.523438 220.128906 444.484375 C 220.527344 444.359375 221.078125 444.324219 221.496094 444.183594 C 221.785156 444.175781 222.078125 444.152344 222.367188 444.152344 C 222.554688 444.152344 223.074219 444.117188 223.503906 444.128906 C 223.449219 444.128906 223.476562 444.152344 223.777344 444.230469 C 224.09375 444.308594 224.417969 444.359375 224.738281 444.445312 C 225.292969 444.582031 225.824219 444.773438 226.367188 444.945312 C 226.300781 444.910156 226.238281 444.878906 226.1875 444.839844 C 226.238281 444.878906 226.332031 444.914062 226.402344 444.957031 C 226.414062 444.957031 226.425781 444.964844 226.4375 444.964844 C 226.933594 445.117188 226.738281 445.09375 226.5 445.003906 C 226.707031 445.101562 226.929688 445.183594 227.089844 445.261719 C 227.621094 445.53125 228.144531 445.820312 228.652344 446.136719 C 229.027344 446.375 230.644531 447.570312 229.445312 446.632812 C 231.089844 447.925781 232.839844 448.683594 234.972656 448.09375 C 236.988281 447.546875 238.285156 446.035156 238.953125 444.132812 Z M 216.8125 446.816406 C 216.859375 446.765625 216.914062 446.71875 216.960938 446.667969 C 216.765625 446.929688 216.390625 447.285156 216.8125 446.816406 Z M 219.53125 444.707031 C 219.597656 444.675781 219.65625 444.636719 219.722656 444.597656 C 220.289062 444.300781 219.84375 444.582031 219.53125 444.707031 Z M 221.386719 444.1875 C 221.417969 444.1875 221.453125 444.1875 221.484375 444.1875 C 221.15625 444.234375 220.765625 444.199219 221.386719 444.1875 Z M 228.140625 441.074219 C 228.140625 441.074219 228.144531 441.070312 228.152344 441.070312 C 228.199219 441.246094 228.246094 441.410156 228.253906 441.410156 C 228.199219 441.355469 228.164062 441.21875 228.140625 441.074219 Z M 228.140625 441.074219 " fill-opacity="1" fill-rule="nonzero"/><path fill="#c0d5e2" d="M 290.617188 443.476562 C 289.117188 444.671875 287.800781 446.191406 286.816406 447.832031 C 285.253906 450.449219 284.871094 453.300781 285.722656 456.222656 C 286.375 458.460938 288.539062 459.867188 290.828125 459.558594 C 291.808594 459.425781 292.816406 459.027344 293.503906 458.277344 C 294.042969 457.679688 294.34375 457.035156 294.550781 456.347656 C 294.800781 455.847656 295.101562 455.378906 295.441406 454.929688 C 295.230469 455.199219 295.023438 455.472656 294.8125 455.742188 C 294.820312 455.730469 294.820312 455.71875 294.824219 455.707031 C 295.21875 455.1875 295.59375 454.65625 295.972656 454.128906 C 296.550781 453.414062 297.199219 452.777344 297.878906 452.175781 C 298.542969 451.710938 299.238281 451.296875 299.96875 450.941406 C 300.777344 450.648438 301.601562 450.398438 302.453125 450.253906 C 302.949219 450.210938 303.4375 450.152344 303.886719 449.992188 C 303.386719 450.058594 302.890625 450.121094 302.390625 450.195312 C 303.867188 450.015625 305.289062 449.792969 306.726562 449.425781 C 308.585938 448.949219 309.941406 447.257812 310.183594 445.410156 C 310.453125 443.40625 309.511719 441.71875 307.875 440.597656 C 306.527344 439.667969 304.898438 439.242188 303.277344 439.089844 C 301.140625 438.785156 298.835938 439.207031 296.832031 439.960938 C 294.480469 440.828125 292.566406 441.921875 290.617188 443.476562 Z M 294.75 455.824219 C 294.753906 455.8125 294.765625 455.800781 294.773438 455.789062 C 294.765625 455.800781 294.765625 455.804688 294.761719 455.820312 C 294.753906 455.824219 294.753906 455.832031 294.75 455.835938 C 294.75 455.84375 294.75 455.855469 294.75 455.859375 C 294.695312 455.992188 294.636719 456.121094 294.582031 456.261719 C 294.605469 456.171875 294.625 456.070312 294.648438 455.980469 C 294.628906 455.996094 294.617188 456.019531 294.597656 456.039062 C 294.617188 456.019531 294.628906 455.996094 294.648438 455.972656 C 294.71875 455.667969 294.820312 455.390625 294.855469 455.054688 C 294.820312 455.304688 294.785156 455.5625 294.75 455.824219 Z M 294.75 455.824219 " fill-opacity="1" fill-rule="nonzero"/><path fill="#c0d5e2" d="M 320.042969 485.113281 C 319.546875 484.238281 318.726562 483.539062 317.882812 483.003906 C 317.351562 482.664062 316.746094 482.46875 316.148438 482.242188 C 316.148438 482.242188 316.148438 482.234375 316.148438 482.234375 C 316.40625 482.339844 316.660156 482.449219 316.910156 482.554688 C 316.648438 482.4375 316.429688 482.246094 316.171875 482.121094 C 316.488281 480.832031 316.558594 479.441406 316.660156 478.195312 C 316.835938 476.019531 316.464844 473.933594 315.539062 471.957031 C 315.152344 471.117188 314.539062 470.339844 313.910156 469.667969 C 312.933594 468.625 311.789062 468.050781 310.484375 467.550781 C 308.144531 466.632812 305.539062 467.328125 303.617188 468.828125 C 302.746094 469.511719 301.960938 470.191406 301.40625 471.230469 C 300.765625 472.441406 300.4375 473.59375 300.371094 474.957031 C 300.367188 475.117188 300.414062 475.273438 300.421875 475.433594 C 300.371094 475.804688 300.320312 476.179688 300.273438 476.550781 C 300.296875 476.175781 300.378906 475.8125 300.421875 475.441406 C 300.421875 475.445312 300.421875 475.453125 300.421875 475.464844 C 300.3125 476.128906 300.175781 476.796875 300.207031 477.457031 C 300.242188 478.28125 300.371094 479.128906 300.527344 479.9375 C 300.753906 481.113281 301.304688 482.292969 301.808594 483.355469 C 302.644531 485.101562 303.863281 486.726562 305.1875 488.121094 C 306.46875 489.476562 308.007812 490.675781 309.625 491.597656 C 310.613281 492.164062 311.675781 492.601562 312.726562 493.019531 C 314.632812 493.78125 317.085938 493.464844 318.738281 492.171875 C 320.789062 490.734375 321.414062 487.949219 320.292969 485.722656 C 320.199219 485.519531 320.140625 485.289062 320.042969 485.113281 Z M 320.042969 485.113281 " fill-opacity="1" fill-rule="nonzero"/><path fill="#c0d5e2" d="M 255.40625 453.21875 C 249.6875 452.644531 244.492188 456.273438 241.289062 460.691406 C 240.042969 462.414062 239.328125 464.390625 238.808594 466.421875 C 237.53125 468.476562 236.535156 470.6875 236.148438 473.089844 C 235.332031 478.125 235.921875 482.960938 237.972656 487.632812 C 241.332031 495.296875 250.398438 502.851562 259.152344 501.378906 C 261.144531 501.046875 262.628906 498.898438 262.875 497.0625 C 263.144531 495.074219 262.226562 492.878906 260.394531 491.882812 C 259.230469 491.253906 258.007812 490.773438 256.773438 490.332031 C 256.648438 489.839844 256.546875 489.335938 256.25 488.882812 C 255.605469 487.902344 255.007812 486.886719 254.507812 485.820312 C 254.417969 485.59375 254.222656 485.101562 254.171875 484.972656 C 253.945312 484.292969 253.753906 483.601562 253.605469 482.894531 C 253.601562 482.878906 253.59375 482.820312 253.589844 482.78125 C 253.59375 482.777344 253.601562 482.765625 253.605469 482.753906 C 253.945312 482.359375 254.324219 482.007812 254.710938 481.65625 C 254.804688 481.597656 255.355469 481.15625 255.503906 481.054688 C 256.046875 480.683594 256.605469 480.34375 257.160156 479.996094 C 258.199219 479.359375 259.25 478.746094 260.246094 478.042969 C 265.125 474.605469 268.953125 469.394531 267.582031 463.117188 C 266.335938 457.457031 260.917969 453.765625 255.40625 453.21875 Z M 253.582031 482.78125 C 253.582031 482.777344 253.589844 482.777344 253.582031 482.78125 C 253.589844 482.777344 253.582031 482.777344 253.582031 482.78125 Z M 253.582031 482.78125 " fill-opacity="1" fill-rule="nonzero"/></svg>