<svg xmlns="http://www.w3.org/2000/svg" xmlns:xlink="http://www.w3.org/1999/xlink" width="1024" zoomAndPan="magnify" viewBox="0 0 768 767.999994" height="1024" preserveAspectRatio="xMidYMid meet" version="1.0"><defs><clipPath id="bfc7bafc2b"><path d="M 173.140625 143.015625 L 594.640625 143.015625 L 594.640625 625 L 173.140625 625 Z M 173.140625 143.015625 " clip-rule="nonzero"/></clipPath></defs><rect x="-76.8" width="921.6" fill="#ffffff" y="-76.799999" height="921.599993" fill-opacity="1"/><rect x="-76.8" width="921.6" fill="#ca530e" y="-76.799999" height="921.599993" fill-opacity="1"/><g clip-path="url(#bfc7bafc2b)"><path fill="#ffffff" d="M 429.835938 185.375 L 338.25 185.375 C 336.398438 185.375 334.589844 185.921875 333.046875 186.945312 C 297.480469 210.53125 260.5 226.71875 223.125 235.058594 C 218.820312 236.015625 215.761719 239.835938 215.761719 244.246094 L 215.761719 383.738281 C 215.761719 423.648438 234.871094 466.71875 269.570312 505.019531 C 300.722656 539.398438 341.347656 566.816406 381.027344 580.234375 C 382.003906 580.566406 383.023438 580.730469 384.042969 580.730469 C 385.0625 580.730469 386.082031 580.566406 387.058594 580.234375 C 426.738281 566.816406 467.363281 539.398438 498.511719 505.019531 C 533.210938 466.71875 552.324219 423.648438 552.324219 383.738281 L 552.324219 244.246094 C 552.324219 239.835938 549.261719 236.015625 544.960938 235.058594 C 507.585938 226.71875 470.601562 210.53125 435.039062 186.945312 C 433.496094 185.921875 431.683594 185.375 429.835938 185.375 Z M 533.496094 383.738281 C 533.496094 418.964844 516.117188 457.546875 484.5625 492.375 C 456.71875 523.105469 419.359375 548.703125 384.042969 561.351562 C 348.726562 548.703125 311.367188 523.105469 283.523438 492.375 C 251.96875 457.546875 234.589844 418.964844 234.589844 383.738281 L 234.589844 251.691406 C 270.859375 242.648438 306.632812 226.695312 341.070312 204.203125 L 427.015625 204.203125 C 461.449219 226.695312 497.226562 242.648438 533.496094 251.691406 Z M 586.015625 198.539062 C 528.144531 193.9375 479.273438 166.757812 448.460938 144.769531 C 446.863281 143.628906 444.953125 143.015625 442.992188 143.015625 L 325.09375 143.015625 C 323.132812 143.015625 321.21875 143.628906 319.625 144.769531 C 288.8125 166.757812 239.9375 193.9375 182.070312 198.539062 C 177.175781 198.929688 173.402344 203.011719 173.402344 207.921875 L 173.402344 383.734375 C 173.402344 412.113281 180.222656 440.683594 193.671875 468.652344 C 205.726562 493.714844 222.789062 517.746094 244.390625 540.085938 C 283.464844 580.484375 334.757812 612.101562 381.605469 624.652344 C 382.402344 624.867188 383.222656 624.972656 384.042969 624.972656 C 384.859375 624.972656 385.679688 624.867188 386.476562 624.652344 C 433.324219 612.101562 484.621094 580.484375 523.691406 540.085938 C 545.296875 517.75 562.359375 493.714844 574.410156 468.652344 C 587.859375 440.683594 594.679688 412.113281 594.679688 383.734375 L 594.679688 207.921875 C 594.683594 203.015625 590.90625 198.929688 586.015625 198.539062 Z M 575.855469 383.738281 C 575.855469 492.515625 463.324219 583.328125 384.042969 605.796875 C 304.757812 583.328125 192.230469 492.515625 192.230469 383.738281 L 192.230469 216.457031 C 237.847656 211.128906 284.574219 192.363281 328.085938 161.84375 L 440 161.84375 C 483.511719 192.363281 530.234375 211.128906 575.855469 216.457031 Z M 426.351562 281.921875 C 426.351562 276.722656 422.136719 272.511719 416.9375 272.511719 L 351.148438 272.511719 C 345.949219 272.511719 341.734375 276.722656 341.734375 281.921875 L 341.734375 321.980469 L 301.675781 321.980469 C 296.476562 321.980469 292.261719 326.195312 292.261719 331.394531 L 292.261719 397.183594 C 292.261719 402.378906 296.476562 406.59375 301.675781 406.59375 L 341.734375 406.59375 L 341.734375 446.65625 C 341.734375 451.851562 345.949219 456.066406 351.148438 456.066406 L 416.9375 456.066406 C 422.136719 456.066406 426.351562 451.851562 426.351562 446.65625 L 426.351562 406.59375 L 466.40625 406.59375 C 471.605469 406.59375 475.820312 402.378906 475.820312 397.183594 L 475.820312 331.394531 C 475.820312 326.195312 471.605469 321.980469 466.40625 321.980469 L 426.351562 321.980469 Z M 456.996094 340.808594 L 456.996094 387.769531 L 416.9375 387.769531 C 411.738281 387.769531 407.523438 391.984375 407.523438 397.183594 L 407.523438 437.242188 L 360.5625 437.242188 L 360.5625 397.183594 C 360.5625 391.984375 356.347656 387.769531 351.148438 387.769531 L 311.089844 387.769531 L 311.089844 340.808594 L 351.148438 340.808594 C 356.347656 340.808594 360.5625 336.59375 360.5625 331.394531 L 360.5625 291.335938 L 407.523438 291.335938 L 407.523438 331.394531 C 407.523438 336.59375 411.738281 340.808594 416.9375 340.808594 Z M 456.996094 340.808594 " fill-opacity="1" fill-rule="nonzero"/></g></svg>