<svg xmlns="http://www.w3.org/2000/svg" xmlns:xlink="http://www.w3.org/1999/xlink" width="1024" zoomAndPan="magnify" viewBox="0 0 768 767.999994" height="1024" preserveAspectRatio="xMidYMid meet" version="1.0"><defs><clipPath id="300c804cf5"><path d="M 728.761719 780.578125 L 35.558594 780.578125 C 7.003906 780.578125 -16.261719 757.3125 -16.261719 728.761719 L -16.261719 35.558594 C -16.261719 7.003906 7.003906 -16.261719 35.558594 -16.261719 L 728.761719 -16.261719 C 757.3125 -16.261719 780.578125 7.003906 780.578125 35.558594 L 780.578125 728.761719 C 780.578125 757.3125 757.3125 780.578125 728.761719 780.578125 Z M 728.761719 780.578125 " clip-rule="nonzero"/></clipPath><clipPath id="0b37c9878f"><path d="M 241 470 L 650.101562 470 L 650.101562 651.941406 L 241 651.941406 Z M 241 470 " clip-rule="nonzero"/></clipPath><clipPath id="6767f8a655"><path d="M 113.851562 115.691406 L 223 115.691406 L 223 225 L 113.851562 225 Z M 113.851562 115.691406 " clip-rule="nonzero"/></clipPath></defs><rect x="-76.8" width="921.6" fill="#ffffff" y="-76.799999" height="921.599993" fill-opacity="1"/><rect x="-76.8" width="921.6" fill="#fff5e6" y="-76.799999" height="921.599993" fill-opacity="1"/><g clip-path="url(#300c804cf5)"><rect x="-76.8" width="921.6" fill="#ca530e" y="-76.799999" height="921.599993" fill-opacity="1"/></g><g clip-path="url(#0b37c9878f)"><path fill="#ffffff" d="M 650.464844 579.542969 C 650.464844 536.703125 624.289062 506.78125 586.796875 506.78125 C 562.523438 506.78125 545.871094 518.90625 531.207031 547.335938 C 530.976562 547.785156 530.710938 548.207031 530.410156 548.609375 C 530.105469 549.015625 529.773438 549.390625 529.410156 549.734375 C 529.046875 550.082031 528.65625 550.398438 528.238281 550.679688 C 527.824219 550.964844 527.386719 551.210938 526.929688 551.421875 C 526.472656 551.628906 526 551.800781 525.515625 551.933594 C 525.03125 552.066406 524.535156 552.15625 524.035156 552.207031 C 523.535156 552.257812 523.035156 552.265625 522.53125 552.230469 C 522.03125 552.199219 521.535156 552.125 521.042969 552.007812 C 520.554688 551.894531 520.078125 551.738281 519.613281 551.542969 C 519.148438 551.347656 518.703125 551.117188 518.277344 550.851562 C 517.855469 550.582031 517.453125 550.28125 517.078125 549.945312 C 516.703125 549.609375 516.355469 549.246094 516.042969 548.855469 C 515.726562 548.460938 515.445312 548.046875 515.199219 547.609375 C 514.953125 547.167969 514.746094 546.710938 514.574219 546.238281 C 514.402344 545.765625 514.273438 545.28125 514.183594 544.785156 C 514.09375 544.292969 514.042969 543.792969 514.035156 543.289062 C 513.527344 505.871094 473.746094 470.402344 432.179688 470.402344 C 393.535156 470.402344 350.324219 501.515625 350.324219 543.164062 L 350.324219 553.167969 C 350.324219 554.070312 350.191406 554.953125 349.929688 555.816406 C 349.664062 556.679688 349.28125 557.488281 348.777344 558.238281 C 348.273438 558.988281 347.671875 559.648438 346.972656 560.21875 C 346.273438 560.789062 345.503906 561.246094 344.667969 561.585938 C 343.832031 561.925781 342.964844 562.140625 342.066406 562.222656 C 341.164062 562.304688 340.273438 562.253906 339.390625 562.074219 C 338.503906 561.890625 337.664062 561.582031 336.871094 561.148438 C 336.078125 560.71875 335.367188 560.179688 334.734375 559.535156 C 333.953125 558.734375 333.144531 557.960938 332.3125 557.210938 C 331.480469 556.460938 330.628906 555.738281 329.753906 555.039062 C 328.878906 554.34375 327.980469 553.671875 327.0625 553.03125 C 326.148438 552.390625 325.210938 551.777344 324.257812 551.191406 C 323.300781 550.605469 322.332031 550.054688 321.34375 549.527344 C 320.351562 549.003906 319.347656 548.507812 318.332031 548.046875 C 317.3125 547.585938 316.277344 547.152344 315.234375 546.753906 C 314.1875 546.355469 313.128906 545.988281 312.0625 545.652344 C 310.996094 545.320312 309.917969 545.019531 308.828125 544.75 C 307.742188 544.480469 306.648438 544.246094 305.546875 544.046875 C 304.445312 543.847656 303.339844 543.679688 302.230469 543.546875 C 301.117188 543.414062 300.003906 543.316406 298.886719 543.25 C 297.769531 543.1875 296.648438 543.15625 295.53125 543.164062 C 294.410156 543.167969 293.292969 543.207031 292.175781 543.28125 C 291.058594 543.355469 289.945312 543.460938 288.835938 543.605469 C 287.726562 543.746094 286.621094 543.921875 285.523438 544.132812 C 284.421875 544.34375 283.332031 544.585938 282.246094 544.863281 C 281.160156 545.140625 280.085938 545.449219 279.019531 545.792969 C 277.957031 546.136719 276.902344 546.511719 275.859375 546.921875 C 274.816406 547.328125 273.789062 547.769531 272.773438 548.242188 C 271.757812 548.710938 270.757812 549.214844 269.773438 549.75 C 268.792969 550.28125 267.824219 550.84375 266.875 551.4375 C 265.925781 552.027344 264.996094 552.648438 264.082031 553.300781 C 263.171875 553.949219 262.28125 554.625 261.410156 555.332031 C 260.542969 556.035156 259.695312 556.765625 258.871094 557.523438 C 258.046875 558.28125 257.246094 559.0625 256.46875 559.867188 C 255.691406 560.671875 254.941406 561.503906 254.214844 562.355469 C 253.488281 563.207031 252.789062 564.082031 252.117188 564.976562 C 251.445312 565.871094 250.800781 566.785156 250.1875 567.722656 C 249.570312 568.65625 248.984375 569.609375 248.429688 570.578125 C 247.871094 571.550781 247.34375 572.539062 246.847656 573.539062 C 246.351562 574.542969 245.886719 575.5625 245.453125 576.59375 C 245.019531 577.625 244.617188 578.667969 244.25 579.726562 C 243.878906 580.78125 243.542969 581.851562 243.238281 582.925781 C 242.9375 584.003906 242.664062 585.089844 242.429688 586.183594 C 242.191406 587.277344 241.988281 588.378906 241.820312 589.484375 C 241.652344 590.589844 241.515625 591.703125 241.414062 592.816406 C 241.3125 593.929688 241.246094 595.046875 241.214844 596.167969 C 241.183594 597.285156 241.183594 598.402344 241.222656 599.523438 C 241.257812 600.640625 241.328125 601.757812 241.433594 602.871094 C 241.539062 603.988281 241.679688 605.097656 241.855469 606.203125 C 242.027344 607.308594 242.234375 608.40625 242.476562 609.5 C 242.71875 610.59375 242.992188 611.675781 243.300781 612.753906 C 243.609375 613.828125 243.949219 614.894531 244.324219 615.949219 C 244.695312 617.003906 245.101562 618.046875 245.539062 619.078125 C 245.976562 620.109375 246.445312 621.125 246.949219 622.125 C 247.449219 623.125 247.976562 624.113281 248.539062 625.078125 C 249.101562 626.046875 249.691406 627 250.308594 627.929688 C 250.929688 628.863281 251.578125 629.777344 252.253906 630.667969 C 252.925781 631.5625 253.628906 632.433594 254.359375 633.28125 C 255.089844 634.128906 255.84375 634.957031 256.621094 635.757812 C 257.402344 636.5625 258.207031 637.339844 259.035156 638.09375 C 259.863281 638.847656 260.710938 639.574219 261.585938 640.273438 C 262.457031 640.976562 263.351562 641.648438 264.265625 642.296875 C 265.179688 642.941406 266.113281 643.558594 267.0625 644.148438 C 268.015625 644.734375 268.984375 645.296875 269.972656 645.824219 C 270.957031 646.351562 271.960938 646.851562 272.976562 647.320312 C 273.992188 647.785156 275.023438 648.222656 276.066406 648.625 C 277.109375 649.03125 278.167969 649.402344 279.234375 649.738281 C 280.300781 650.078125 281.375 650.386719 282.460938 650.65625 C 283.546875 650.929688 284.640625 651.171875 285.738281 651.375 C 286.839844 651.582031 287.945312 651.753906 289.058594 651.890625 C 290.167969 652.027344 291.28125 652.132812 292.398438 652.199219 C 293.515625 652.269531 294.632812 652.304688 295.753906 652.304688 L 577.703125 652.304688 C 578.894531 652.300781 580.082031 652.273438 581.273438 652.210938 C 582.460938 652.152344 583.648438 652.0625 584.832031 651.945312 C 586.015625 651.828125 587.199219 651.679688 588.375 651.507812 C 589.550781 651.332031 590.726562 651.125 591.890625 650.890625 C 593.058594 650.660156 594.21875 650.398438 595.375 650.105469 C 596.53125 649.816406 597.675781 649.5 598.816406 649.152344 C 599.953125 648.804688 601.082031 648.433594 602.203125 648.03125 C 603.324219 647.628906 604.433594 647.199219 605.535156 646.742188 C 606.632812 646.289062 607.722656 645.804688 608.796875 645.296875 C 609.875 644.785156 610.9375 644.25 611.984375 643.6875 C 613.035156 643.125 614.070312 642.539062 615.089844 641.925781 C 616.113281 641.316406 617.117188 640.679688 618.105469 640.015625 C 619.097656 639.355469 620.070312 638.667969 621.027344 637.960938 C 621.980469 637.25 622.917969 636.519531 623.839844 635.761719 C 624.761719 635.007812 625.660156 634.230469 626.542969 633.429688 C 627.425781 632.632812 628.285156 631.8125 629.128906 630.96875 C 629.96875 630.128906 630.789062 629.265625 631.589844 628.382812 C 632.390625 627.5 633.167969 626.601562 633.921875 625.679688 C 634.679688 624.761719 635.410156 623.820312 636.121094 622.867188 C 636.828125 621.910156 637.515625 620.9375 638.175781 619.949219 C 638.835938 618.957031 639.476562 617.953125 640.085938 616.933594 C 640.699219 615.910156 641.285156 614.875 641.847656 613.824219 C 642.410156 612.777344 642.945312 611.714844 643.453125 610.636719 C 643.964844 609.5625 644.445312 608.472656 644.902344 607.375 C 645.359375 606.273438 645.789062 605.164062 646.191406 604.042969 C 646.59375 602.925781 646.964844 601.792969 647.3125 600.65625 C 647.660156 599.515625 647.976562 598.371094 648.265625 597.214844 C 648.558594 596.058594 648.820312 594.898438 649.050781 593.730469 C 649.285156 592.566406 649.488281 591.390625 649.664062 590.214844 C 649.839844 589.039062 649.988281 587.855469 650.105469 586.671875 C 650.222656 585.488281 650.3125 584.300781 650.371094 583.113281 C 650.433594 581.921875 650.460938 580.734375 650.464844 579.542969 Z M 650.464844 579.542969 " fill-opacity="1" fill-rule="nonzero"/></g><path fill="#ffffff" d="M 395.800781 288.5 C 395.796875 292.007812 395.699219 295.515625 395.5 299.019531 C 395.304688 302.527344 395.011719 306.023438 394.625 309.511719 C 394.234375 313 393.75 316.476562 393.171875 319.9375 C 392.589844 323.398438 391.914062 326.84375 391.144531 330.265625 C 390.375 333.691406 389.511719 337.09375 388.554688 340.46875 C 387.597656 343.847656 386.550781 347.195312 385.40625 350.515625 C 384.265625 353.835938 383.035156 357.121094 381.710938 360.371094 C 380.386719 363.621094 378.976562 366.835938 377.476562 370.007812 C 375.976562 373.183594 374.390625 376.3125 372.71875 379.398438 C 371.046875 382.484375 369.292969 385.523438 367.453125 388.511719 C 365.613281 391.503906 363.691406 394.441406 361.691406 397.324219 C 359.691406 400.207031 357.609375 403.035156 355.453125 405.804688 C 353.296875 408.574219 351.066406 411.28125 348.757812 413.925781 C 346.453125 416.574219 344.074219 419.15625 341.628906 421.667969 C 339.179688 424.183594 336.664062 426.632812 334.082031 429.007812 C 331.496094 431.386719 328.851562 433.6875 326.140625 435.921875 C 323.429688 438.152344 320.660156 440.304688 317.832031 442.382812 C 315.003906 444.460938 312.121094 446.460938 309.179688 448.382812 C 306.242188 450.300781 303.253906 452.136719 300.214844 453.894531 C 297.171875 455.648438 294.085938 457.316406 290.953125 458.902344 C 287.824219 460.488281 284.648438 461.984375 281.433594 463.394531 C 278.21875 464.804688 274.96875 466.125 271.683594 467.355469 C 268.394531 468.589844 265.078125 469.726562 261.726562 470.777344 C 258.375 471.824219 255 472.777344 251.597656 473.640625 C 248.195312 474.503906 244.769531 475.269531 241.324219 475.945312 C 237.878906 476.617188 234.417969 477.195312 230.941406 477.679688 C 227.464844 478.164062 223.976562 478.550781 220.480469 478.839844 C 216.980469 479.128906 213.476562 479.324219 209.96875 479.421875 C 206.460938 479.519531 202.953125 479.519531 199.441406 479.425781 C 195.933594 479.332031 192.429688 479.136719 188.933594 478.851562 C 185.433594 478.5625 181.945312 478.175781 178.46875 477.695312 C 174.992188 477.214844 171.53125 476.640625 168.085938 475.96875 C 173.480469 482.945312 179.273438 489.578125 185.460938 495.863281 C 191.652344 502.148438 198.195312 508.039062 205.089844 513.542969 C 211.984375 519.042969 219.183594 524.113281 226.683594 528.753906 C 234.1875 533.394531 241.9375 537.566406 249.941406 541.28125 C 251.367188 540.121094 252.835938 539.015625 254.34375 537.964844 C 255.855469 536.917969 257.402344 535.925781 258.984375 534.996094 C 260.570312 534.0625 262.1875 533.195312 263.839844 532.386719 C 265.488281 531.578125 267.167969 530.832031 268.875 530.148438 C 270.582031 529.46875 272.3125 528.851562 274.066406 528.300781 C 275.820312 527.75 277.59375 527.265625 279.382812 526.851562 C 281.175781 526.433594 282.976562 526.085938 284.796875 525.808594 C 286.613281 525.527344 288.4375 525.316406 290.269531 525.175781 C 292.101562 525.035156 293.9375 524.964844 295.777344 524.960938 C 297.613281 524.960938 299.449219 525.027344 301.28125 525.164062 C 303.117188 525.300781 304.941406 525.507812 306.757812 525.78125 C 308.578125 526.058594 310.382812 526.402344 312.171875 526.8125 C 313.964844 527.226562 315.738281 527.707031 317.492188 528.253906 C 319.246094 528.796875 320.980469 529.410156 322.6875 530.089844 C 324.398438 530.765625 326.078125 531.507812 327.730469 532.3125 C 329.382812 533.117188 331 533.984375 332.589844 534.914062 C 337.765625 487.0625 387.476562 452.210938 432.179688 452.210938 C 435.667969 452.269531 439.144531 452.503906 442.605469 452.910156 C 446.070312 453.316406 449.503906 453.894531 452.910156 454.640625 C 456.316406 455.390625 459.679688 456.304688 462.992188 457.390625 C 466.308594 458.472656 469.5625 459.71875 472.75 461.125 C 475.941406 462.535156 479.054688 464.097656 482.089844 465.8125 C 485.125 467.53125 488.066406 469.398438 490.917969 471.40625 C 493.765625 473.417969 496.507812 475.566406 499.144531 477.851562 C 501.777344 480.136719 504.292969 482.546875 506.6875 485.082031 C 510.105469 481.117188 513.375 477.039062 516.496094 472.839844 C 519.621094 468.640625 522.589844 464.335938 525.402344 459.925781 C 528.214844 455.511719 530.863281 451.003906 533.351562 446.402344 C 535.835938 441.796875 538.15625 437.113281 540.304688 432.339844 C 542.453125 427.570312 544.429688 422.730469 546.226562 417.816406 C 548.027344 412.902344 549.648438 407.933594 551.089844 402.902344 C 552.53125 397.871094 553.789062 392.796875 554.863281 387.675781 C 555.9375 382.554688 556.828125 377.402344 557.53125 372.21875 C 558.234375 367.035156 558.75 361.832031 559.078125 356.609375 C 559.40625 351.386719 559.546875 346.160156 559.496094 340.925781 C 559.449219 335.695312 559.210938 330.472656 558.785156 325.257812 C 558.359375 320.042969 557.746094 314.847656 556.945312 309.679688 C 556.144531 304.507812 555.160156 299.375 553.988281 294.273438 C 552.816406 289.175781 551.464844 284.125 549.929688 279.121094 C 548.394531 274.121094 546.679688 269.179688 544.789062 264.300781 C 542.898438 259.421875 540.832031 254.617188 538.59375 249.890625 C 537.328125 249.324219 536.117188 248.660156 534.957031 247.898438 C 533.800781 247.140625 532.707031 246.292969 531.683594 245.359375 C 530.660156 244.425781 529.714844 243.414062 528.851562 242.332031 C 527.988281 241.246094 527.21875 240.101562 526.539062 238.894531 C 525.855469 237.6875 525.277344 236.433594 524.796875 235.132812 C 524.316406 233.832031 523.941406 232.503906 523.671875 231.144531 C 523.40625 229.785156 523.246094 228.410156 523.195312 227.027344 C 523.144531 225.640625 523.207031 224.261719 523.378906 222.886719 C 520.910156 219.128906 518.332031 215.453125 515.636719 211.855469 C 512.945312 208.261719 510.140625 204.75 507.230469 201.328125 C 504.316406 197.90625 501.304688 194.578125 498.1875 191.339844 C 495.066406 188.105469 491.851562 184.96875 488.539062 181.933594 C 485.226562 178.898438 481.824219 175.964844 478.332031 173.140625 C 474.835938 170.316406 471.257812 167.601562 467.597656 165 C 463.933594 162.394531 460.195312 159.90625 456.378906 157.535156 C 452.5625 155.164062 448.675781 152.914062 444.71875 150.78125 C 440.761719 148.652344 436.746094 146.644531 432.664062 144.765625 C 428.582031 142.882812 424.449219 141.128906 420.261719 139.503906 C 416.070312 137.878906 411.835938 136.386719 407.554688 135.023438 C 403.273438 133.660156 398.953125 132.429688 394.59375 131.335938 C 390.234375 130.242188 385.847656 129.285156 381.429688 128.460938 C 377.011719 127.636719 372.574219 126.953125 368.113281 126.40625 C 363.65625 125.859375 359.183594 125.449219 354.695312 125.179688 C 350.210938 124.910156 345.722656 124.777344 341.230469 124.785156 C 329.890625 124.785156 318.617188 125.652344 307.414062 127.394531 C 310.777344 129.550781 314.066406 131.808594 317.289062 134.167969 C 320.511719 136.527344 323.65625 138.984375 326.722656 141.539062 C 329.792969 144.097656 332.777344 146.746094 335.679688 149.488281 C 338.582031 152.230469 341.398438 155.058594 344.125 157.976562 C 346.851562 160.894531 349.484375 163.894531 352.019531 166.976562 C 354.558594 170.0625 357 173.21875 359.34375 176.453125 C 361.683594 179.6875 363.921875 182.992188 366.058594 186.367188 C 368.191406 189.742188 370.222656 193.179688 372.140625 196.679688 C 374.0625 200.183594 375.871094 203.738281 377.570312 207.351562 C 379.269531 210.96875 380.855469 214.628906 382.324219 218.34375 C 383.792969 222.054688 385.148438 225.8125 386.382812 229.609375 C 387.617188 233.40625 388.734375 237.238281 389.730469 241.105469 C 390.726562 244.972656 391.601562 248.867188 392.355469 252.789062 C 393.109375 256.710938 393.738281 260.652344 394.246094 264.613281 C 394.753906 268.574219 395.136719 272.546875 395.394531 276.53125 C 395.65625 280.515625 395.789062 284.503906 395.800781 288.5 Z M 424.160156 301.878906 L 440.203125 293.308594 C 441.101562 295 442.113281 296.621094 443.234375 298.171875 C 444.355469 299.726562 445.574219 301.195312 446.894531 302.582031 C 448.210938 303.96875 449.617188 305.261719 451.113281 306.460938 C 452.605469 307.65625 454.175781 308.75 455.816406 309.734375 C 457.457031 310.71875 459.160156 311.589844 460.917969 312.34375 C 462.679688 313.097656 464.480469 313.730469 466.324219 314.242188 C 468.171875 314.753906 470.042969 315.136719 471.9375 315.394531 C 473.835938 315.652344 475.742188 315.78125 477.65625 315.78125 C 479.570312 315.78125 481.476562 315.652344 483.375 315.394531 C 485.269531 315.136719 487.140625 314.753906 488.988281 314.242188 C 490.832031 313.730469 492.632812 313.097656 494.394531 312.34375 C 496.152344 311.589844 497.855469 310.71875 499.496094 309.734375 C 501.136719 308.75 502.703125 307.65625 504.199219 306.460938 C 505.691406 305.261719 507.101562 303.96875 508.417969 302.582031 C 509.738281 301.195312 510.957031 299.726562 512.078125 298.171875 C 513.199219 296.621094 514.207031 295 515.109375 293.308594 L 531.152344 301.878906 C 528.050781 307.648438 524.109375 312.78125 519.328125 317.265625 L 538.703125 336.640625 L 525.84375 349.5 L 504.085938 327.789062 C 498.585938 330.488281 492.808594 332.308594 486.75 333.246094 L 486.75 361.257812 L 468.5625 361.257812 L 468.5625 333.246094 C 462.503906 332.308594 456.726562 330.488281 451.226562 327.789062 L 429.515625 349.5 L 416.65625 336.640625 L 436.027344 317.265625 C 431.234375 312.78125 427.277344 307.652344 424.160156 301.878906 Z M 424.160156 301.878906 " fill-opacity="1" fill-rule="nonzero"/><path fill="#ffffff" d="M 541.320312 142.976562 L 586.796875 142.976562 C 587.65625 142.976562 588.496094 143.09375 589.316406 143.332031 C 590.140625 143.570312 590.917969 143.914062 591.640625 144.371094 C 592.367188 144.828125 593.015625 145.375 593.585938 146.015625 C 594.15625 146.652344 594.628906 147.359375 595 148.132812 C 595.371094 148.902344 595.625 149.710938 595.769531 150.558594 C 595.914062 151.402344 595.933594 152.25 595.835938 153.101562 C 595.742188 153.953125 595.527344 154.773438 595.199219 155.566406 C 594.867188 156.355469 594.4375 157.085938 593.902344 157.753906 L 543.140625 221.257812 C 542.683594 221.832031 542.316406 222.453125 542.035156 223.132812 C 541.753906 223.808594 541.570312 224.507812 541.488281 225.238281 C 541.40625 225.964844 541.425781 226.6875 541.546875 227.410156 C 541.664062 228.132812 541.882812 228.824219 542.199219 229.484375 C 542.515625 230.148438 542.914062 230.75 543.402344 231.300781 C 543.886719 231.847656 544.4375 232.316406 545.054688 232.710938 C 545.675781 233.101562 546.335938 233.402344 547.039062 233.609375 C 547.738281 233.816406 548.457031 233.921875 549.1875 233.925781 L 614.082031 233.925781 C 614.679688 233.925781 615.273438 233.871094 615.859375 233.753906 C 616.441406 233.636719 617.011719 233.464844 617.5625 233.234375 C 618.117188 233.007812 618.640625 232.726562 619.136719 232.394531 C 619.632812 232.0625 620.09375 231.6875 620.515625 231.261719 C 620.9375 230.839844 621.3125 230.382812 621.644531 229.886719 C 621.976562 229.390625 622.257812 228.863281 622.484375 228.3125 C 622.714844 227.761719 622.886719 227.191406 623.003906 226.605469 C 623.121094 226.019531 623.179688 225.429688 623.179688 224.832031 C 623.179688 224.234375 623.121094 223.644531 623.003906 223.058594 C 622.886719 222.472656 622.714844 221.902344 622.484375 221.351562 C 622.257812 220.800781 621.976562 220.277344 621.644531 219.78125 C 621.3125 219.28125 620.9375 218.824219 620.515625 218.402344 C 620.09375 217.980469 619.632812 217.601562 619.136719 217.269531 C 618.640625 216.9375 618.117188 216.65625 617.5625 216.429688 C 617.011719 216.199219 616.441406 216.027344 615.859375 215.910156 C 615.273438 215.796875 614.679688 215.738281 614.082031 215.738281 L 586.796875 215.738281 C 585.941406 215.738281 585.101562 215.621094 584.277344 215.382812 C 583.453125 215.144531 582.679688 214.796875 581.953125 214.34375 C 581.226562 213.886719 580.582031 213.339844 580.007812 212.699219 C 579.4375 212.058594 578.96875 211.355469 578.597656 210.582031 C 578.226562 209.808594 577.96875 209 577.828125 208.15625 C 577.683594 207.3125 577.660156 206.464844 577.757812 205.613281 C 577.855469 204.761719 578.066406 203.9375 578.398438 203.148438 C 578.726562 202.355469 579.160156 201.625 579.695312 200.957031 L 630.574219 137.363281 C 631.027344 136.796875 631.398438 136.171875 631.675781 135.5 C 631.957031 134.828125 632.140625 134.128906 632.222656 133.402344 C 632.304688 132.679688 632.285156 131.957031 632.164062 131.238281 C 632.042969 130.515625 631.824219 129.828125 631.507812 129.171875 C 631.191406 128.515625 630.789062 127.914062 630.304688 127.371094 C 629.816406 126.824219 629.265625 126.359375 628.648438 125.972656 C 628.03125 125.582031 627.371094 125.289062 626.671875 125.085938 C 625.96875 124.886719 625.253906 124.785156 624.523438 124.785156 L 541.320312 124.785156 C 540.726562 124.785156 540.132812 124.84375 539.546875 124.960938 C 538.960938 125.078125 538.394531 125.25 537.839844 125.476562 C 537.289062 125.707031 536.765625 125.988281 536.269531 126.320312 C 535.773438 126.652344 535.3125 127.027344 534.890625 127.449219 C 534.46875 127.871094 534.089844 128.332031 533.757812 128.828125 C 533.429688 129.324219 533.148438 129.847656 532.917969 130.402344 C 532.691406 130.953125 532.519531 131.519531 532.402344 132.105469 C 532.285156 132.691406 532.226562 133.285156 532.226562 133.882812 C 532.226562 134.476562 532.285156 135.070312 532.402344 135.65625 C 532.519531 136.242188 532.691406 136.808594 532.917969 137.363281 C 533.148438 137.914062 533.429688 138.4375 533.757812 138.933594 C 534.089844 139.429688 534.46875 139.890625 534.890625 140.3125 C 535.3125 140.734375 535.773438 141.113281 536.269531 141.441406 C 536.765625 141.773438 537.289062 142.054688 537.839844 142.285156 C 538.394531 142.511719 538.960938 142.683594 539.546875 142.800781 C 540.132812 142.917969 540.726562 142.976562 541.320312 142.976562 Z M 541.320312 142.976562 " fill-opacity="1" fill-rule="nonzero"/><g clip-path="url(#6767f8a655)"><path fill="#ffffff" d="M 222.992188 170.261719 C 222.992188 172.050781 222.90625 173.832031 222.730469 175.609375 C 222.554688 177.390625 222.292969 179.15625 221.945312 180.90625 C 221.59375 182.660156 221.160156 184.390625 220.640625 186.101562 C 220.125 187.8125 219.523438 189.492188 218.839844 191.144531 C 218.152344 192.796875 217.390625 194.410156 216.546875 195.984375 C 215.707031 197.5625 214.789062 199.09375 213.796875 200.578125 C 212.800781 202.066406 211.738281 203.5 210.605469 204.882812 C 209.472656 206.261719 208.273438 207.585938 207.007812 208.847656 C 205.746094 210.113281 204.421875 211.3125 203.039062 212.445312 C 201.660156 213.578125 200.226562 214.644531 198.738281 215.636719 C 197.253906 216.628906 195.722656 217.546875 194.144531 218.390625 C 192.570312 219.230469 190.957031 219.996094 189.304688 220.679688 C 187.652344 221.363281 185.972656 221.964844 184.261719 222.484375 C 182.550781 223 180.820312 223.433594 179.066406 223.785156 C 177.316406 224.132812 175.550781 224.394531 173.769531 224.570312 C 171.992188 224.746094 170.207031 224.832031 168.421875 224.832031 C 166.632812 224.832031 164.851562 224.746094 163.074219 224.570312 C 161.292969 224.394531 159.527344 224.132812 157.773438 223.785156 C 156.023438 223.433594 154.289062 223 152.582031 222.484375 C 150.871094 221.964844 149.1875 221.363281 147.539062 220.679688 C 145.886719 219.996094 144.273438 219.230469 142.695312 218.390625 C 141.121094 217.546875 139.589844 216.628906 138.101562 215.636719 C 136.617188 214.644531 135.183594 213.578125 133.800781 212.445312 C 132.421875 211.3125 131.097656 210.113281 129.832031 208.847656 C 128.570312 207.585938 127.371094 206.261719 126.238281 204.882812 C 125.105469 203.5 124.039062 202.066406 123.046875 200.578125 C 122.054688 199.09375 121.136719 197.5625 120.292969 195.984375 C 119.453125 194.410156 118.6875 192.796875 118.003906 191.144531 C 117.320312 189.492188 116.71875 187.8125 116.199219 186.101562 C 115.679688 184.390625 115.246094 182.660156 114.898438 180.90625 C 114.550781 179.15625 114.289062 177.390625 114.113281 175.609375 C 113.9375 173.832031 113.851562 172.050781 113.851562 170.261719 C 113.851562 168.472656 113.9375 166.691406 114.113281 164.914062 C 114.289062 163.132812 114.550781 161.367188 114.898438 159.617188 C 115.246094 157.863281 115.679688 156.128906 116.199219 154.421875 C 116.71875 152.710938 117.320312 151.03125 118.003906 149.378906 C 118.6875 147.726562 119.453125 146.113281 120.292969 144.535156 C 121.136719 142.960938 122.054688 141.429688 123.046875 139.945312 C 124.039062 138.457031 125.105469 137.023438 126.238281 135.640625 C 127.371094 134.261719 128.570312 132.9375 129.832031 131.675781 C 131.097656 130.410156 132.421875 129.210938 133.800781 128.078125 C 135.183594 126.945312 136.617188 125.878906 138.101562 124.886719 C 139.589844 123.894531 141.121094 122.976562 142.695312 122.132812 C 144.273438 121.292969 145.886719 120.527344 147.539062 119.84375 C 149.1875 119.160156 150.871094 118.558594 152.582031 118.039062 C 154.289062 117.523438 156.023438 117.089844 157.773438 116.738281 C 159.527344 116.390625 161.292969 116.128906 163.074219 115.953125 C 164.851562 115.777344 166.632812 115.691406 168.421875 115.691406 C 170.207031 115.691406 171.992188 115.777344 173.769531 115.953125 C 175.550781 116.128906 177.316406 116.390625 179.066406 116.738281 C 180.820312 117.089844 182.550781 117.523438 184.261719 118.039062 C 185.972656 118.558594 187.652344 119.160156 189.304688 119.84375 C 190.957031 120.527344 192.570312 121.292969 194.144531 122.132812 C 195.722656 122.976562 197.253906 123.894531 198.738281 124.886719 C 200.226562 125.878906 201.660156 126.945312 203.039062 128.078125 C 204.421875 129.210938 205.746094 130.410156 207.007812 131.675781 C 208.273438 132.9375 209.472656 134.261719 210.605469 135.640625 C 211.738281 137.023438 212.800781 138.457031 213.796875 139.945312 C 214.789062 141.429688 215.707031 142.960938 216.546875 144.535156 C 217.390625 146.113281 218.152344 147.726562 218.839844 149.378906 C 219.523438 151.03125 220.125 152.710938 220.640625 154.421875 C 221.160156 156.128906 221.59375 157.863281 221.945312 159.617188 C 222.292969 161.367188 222.554688 163.132812 222.730469 164.914062 C 222.90625 166.691406 222.992188 168.472656 222.992188 170.261719 Z M 222.992188 170.261719 " fill-opacity="1" fill-rule="nonzero"/></g><path fill="#ffffff" d="M 313.945312 297.59375 C 313.945312 298.785156 313.886719 299.972656 313.769531 301.160156 C 313.652344 302.34375 313.476562 303.523438 313.246094 304.691406 C 313.011719 305.859375 312.722656 307.015625 312.378906 308.152344 C 312.03125 309.292969 311.628906 310.414062 311.175781 311.515625 C 310.71875 312.617188 310.210938 313.691406 309.648438 314.742188 C 309.085938 315.792969 308.472656 316.816406 307.8125 317.804688 C 307.148438 318.796875 306.441406 319.753906 305.683594 320.671875 C 304.929688 321.59375 304.128906 322.476562 303.289062 323.320312 C 302.445312 324.160156 301.5625 324.960938 300.640625 325.714844 C 299.722656 326.472656 298.765625 327.179688 297.773438 327.84375 C 296.785156 328.503906 295.761719 329.117188 294.710938 329.679688 C 293.660156 330.238281 292.585938 330.75 291.484375 331.203125 C 290.382812 331.660156 289.265625 332.0625 288.125 332.40625 C 286.984375 332.753906 285.828125 333.042969 284.660156 333.273438 C 283.492188 333.507812 282.316406 333.683594 281.128906 333.800781 C 279.941406 333.914062 278.753906 333.972656 277.5625 333.972656 C 276.371094 333.972656 275.183594 333.914062 273.996094 333.800781 C 272.8125 333.683594 271.632812 333.507812 270.464844 333.273438 C 269.296875 333.042969 268.140625 332.753906 267.003906 332.40625 C 265.863281 332.0625 264.742188 331.660156 263.640625 331.203125 C 262.539062 330.75 261.464844 330.238281 260.414062 329.679688 C 259.363281 329.117188 258.339844 328.503906 257.351562 327.84375 C 256.359375 327.179688 255.40625 326.472656 254.484375 325.714844 C 253.5625 324.960938 252.679688 324.160156 251.839844 323.320312 C 250.996094 322.476562 250.195312 321.59375 249.441406 320.671875 C 248.683594 319.753906 247.976562 318.796875 247.3125 317.804688 C 246.652344 316.816406 246.039062 315.792969 245.476562 314.742188 C 244.917969 313.691406 244.40625 312.617188 243.953125 311.515625 C 243.496094 310.414062 243.09375 309.292969 242.75 308.152344 C 242.402344 307.015625 242.113281 305.859375 241.882812 304.691406 C 241.648438 303.523438 241.472656 302.34375 241.359375 301.160156 C 241.242188 299.972656 241.183594 298.785156 241.183594 297.59375 C 241.183594 296.402344 241.242188 295.214844 241.359375 294.027344 C 241.472656 292.84375 241.648438 291.664062 241.882812 290.496094 C 242.113281 289.328125 242.402344 288.171875 242.75 287.03125 C 243.09375 285.894531 243.496094 284.773438 243.953125 283.671875 C 244.40625 282.570312 244.917969 281.496094 245.476562 280.445312 C 246.039062 279.394531 246.652344 278.371094 247.3125 277.382812 C 247.976562 276.390625 248.683594 275.433594 249.441406 274.515625 C 250.195312 273.59375 250.996094 272.710938 251.839844 271.867188 C 252.679688 271.027344 253.5625 270.226562 254.484375 269.472656 C 255.40625 268.714844 256.359375 268.007812 257.351562 267.34375 C 258.339844 266.683594 259.363281 266.070312 260.414062 265.507812 C 261.464844 264.945312 262.539062 264.4375 263.640625 263.980469 C 264.742188 263.527344 265.863281 263.125 267.003906 262.78125 C 268.140625 262.433594 269.296875 262.144531 270.464844 261.910156 C 271.632812 261.679688 272.8125 261.503906 273.996094 261.386719 C 275.183594 261.269531 276.371094 261.214844 277.5625 261.214844 C 278.753906 261.214844 279.941406 261.269531 281.128906 261.386719 C 282.316406 261.503906 283.492188 261.679688 284.660156 261.910156 C 285.828125 262.144531 286.984375 262.433594 288.125 262.78125 C 289.265625 263.125 290.382812 263.527344 291.484375 263.980469 C 292.585938 264.4375 293.660156 264.945312 294.710938 265.507812 C 295.761719 266.070312 296.785156 266.683594 297.773438 267.34375 C 298.765625 268.007812 299.722656 268.714844 300.640625 269.472656 C 301.5625 270.226562 302.445312 271.027344 303.289062 271.867188 C 304.128906 272.710938 304.929688 273.59375 305.683594 274.515625 C 306.441406 275.433594 307.148438 276.390625 307.8125 277.382812 C 308.472656 278.371094 309.085938 279.394531 309.648438 280.445312 C 310.210938 281.496094 310.71875 282.570312 311.175781 283.671875 C 311.628906 284.773438 312.03125 285.894531 312.378906 287.03125 C 312.722656 288.171875 313.011719 289.328125 313.246094 290.496094 C 313.476562 291.664062 313.652344 292.84375 313.769531 294.027344 C 313.886719 295.214844 313.945312 296.402344 313.945312 297.59375 Z M 313.945312 297.59375 " fill-opacity="1" fill-rule="nonzero"/></svg>